Hack-Italic.ufo
<glyph name="dollar" format="1">
  <advance width="1233"/>
  <unicode hex="0024"/>
  <note>
	dollar
  </note>
  <outline>
    <contour>
      <point x="373" y="0" type="line"/>
      <point x="302" y="4"/>
      <point x="187" y="33"/>
      <point x="124" y="55" type="curve" smooth="yes"/>
      <point x="93" y="66"/>
      <point x="62" y="78"/>
      <point x="31" y="92" type="curve"/>
      <point x="66" y="272" type="line"/>
      <point x="174" y="192"/>
      <point x="307" y="146"/>
      <point x="430" y="141" type="curve"/>
      <point x="520" y="606" type="line"/>
      <point x="420" y="629"/>
      <point x="332" y="662"/>
      <point x="275" y="714" type="curve" smooth="yes"/>
      <point x="224" y="761"/>
      <point x="195" y="821"/>
      <point x="195" y="912" type="curve" smooth="yes"/>
      <point x="195" y="1023"/>
      <point x="239" y="1123"/>
      <point x="328" y="1200" type="curve" smooth="yes"/>
      <point x="417" y="1277"/>
      <point x="550" y="1317"/>
      <point x="629" y="1321" type="curve"/>
      <point x="677" y="1556" type="line"/>
      <point x="857" y="1556" type="line"/>
      <point x="810" y="1321" type="line"/>
      <point x="813" y="1319"/>
      <point x="830" y="1316"/>
      <point x="859" y="1312" type="curve" smooth="yes"/>
      <point x="888" y="1308"/>
      <point x="913" y="1304"/>
      <point x="933" y="1300" type="curve" smooth="yes"/>
      <point x="953" y="1296"/>
      <point x="979" y="1290"/>
      <point x="1007" y="1283" type="curve"/>
      <point x="1034" y="1275"/>
      <point x="1060" y="1268"/>
      <point x="1083" y="1260" type="curve"/>
      <point x="1051" y="1087" type="line"/>
      <point x="1008" y="1114"/>
      <point x="952" y="1138"/>
      <point x="909" y="1151" type="curve" smooth="yes"/>
      <point x="866" y="1164"/>
      <point x="801" y="1177"/>
      <point x="753" y="1182" type="curve"/>
      <point x="672" y="756" type="line"/>
      <point x="782" y="733"/>
      <point x="866" y="694"/>
      <point x="925" y="639" type="curve" smooth="yes"/>
      <point x="985" y="583"/>
      <point x="1014" y="516"/>
      <point x="1014" y="421" type="curve" smooth="yes"/>
      <point x="1014" y="304"/>
      <point x="969" y="202"/>
      <point x="877" y="122" type="curve" smooth="yes"/>
      <point x="786" y="42"/>
      <point x="668" y="2"/>
      <point x="524" y="2" type="curve"/>
      <point x="554" y="2" type="line"/>
      <point x="495" y="-301" type="line"/>
      <point x="314" y="-301" type="line"/>
    </contour>
    <contour>
      <point x="633" y="1184" type="line"/>
      <point x="489" y="1175"/>
      <point x="373" y="1072"/>
      <point x="373" y="941" type="curve" smooth="yes"/>
      <point x="373" y="894"/>
      <point x="387" y="859"/>
      <point x="415" y="834" type="curve" smooth="yes"/>
      <point x="442" y="810"/>
      <point x="490" y="790"/>
      <point x="553" y="774" type="curve"/>
    </contour>
    <contour>
      <point x="553" y="145" type="line"/>
      <point x="633" y="145"/>
      <point x="699" y="169"/>
      <point x="752" y="218" type="curve" smooth="yes"/>
      <point x="803" y="265"/>
      <point x="831" y="326"/>
      <point x="831" y="402" type="curve" smooth="yes"/>
      <point x="831" y="461"/>
      <point x="815" y="500"/>
      <point x="784" y="527" type="curve" smooth="yes"/>
      <point x="753" y="554"/>
      <point x="705" y="575"/>
      <point x="639" y="588" type="curve"/>
    </contour>
  </outline>
</glyph>
<glyph name="percent" format="1">
  <advance width="1233"/>
  <unicode hex="0025"/>
  <note>
	percent
  </note>
  <outline>
    <contour>
      <point x="260" y="793"/>
      <point x="181" y="828"/>
      <point x="125" y="884" type="curve" smooth="yes"/>
      <point x="65" y="944"/>
      <point x="33" y="1024"/>
      <point x="33" y="1112" type="curve" smooth="yes"/>
      <point x="33" y="1207"/>
      <point x="69" y="1285"/>
      <point x="125" y="1341" type="curve" smooth="yes"/>
      <point x="181" y="1397"/>
      <point x="260" y="1432"/>
      <point x="352" y="1432" type="curve" smooth="yes"/>
      <point x="437" y="1432"/>
      <point x="518" y="1399"/>
      <point x="578" y="1339" type="curve" smooth="yes"/>
      <point x="609" y="1308"/>
      <point x="633" y="1272"/>
      <point x="648" y="1236" type="curve" smooth="yes"/>
      <point x="664" y="1197"/>
      <point x="672" y="1156"/>
      <point x="672" y="1113" type="curve" smooth="yes"/>
      <point x="672" y="1025"/>
      <point x="639" y="944"/>
      <point x="580" y="885" type="curve" smooth="yes"/>
      <point x="524" y="829"/>
      <point x="443" y="793"/>
      <point x="351" y="793" type="curve" smooth="yes"/>
    </contour>
    <contour>
      <point x="400" y="928"/>
      <point x="447" y="946"/>
      <point x="483" y="981" type="curve" smooth="yes"/>
      <point x="514" y="1012"/>
      <point x="537" y="1057"/>
      <point x="537" y="1113" type="curve" smooth="yes"/>
      <point x="537" y="1214"/>
      <point x="453" y="1296"/>
      <point x="353" y="1296" type="curve" smooth="yes"/>
      <point x="302" y="1296"/>
      <point x="258" y="1279"/>
      <point x="222" y="1244" type="curve" smooth="yes"/>
      <point x="189" y="1212"/>
      <point x="168" y="1165"/>
      <point x="168" y="1112" type="curve" smooth="yes"/>
      <point x="168" y="1059"/>
      <point x="186" y="1015"/>
      <point x="221" y="980" type="curve" smooth="yes"/>
      <point x="250" y="951"/>
      <point x="295" y="928"/>
      <point x="351" y="928" type="curve" smooth="yes"/>
    </contour>
    <contour>
      <point x="42" y="560" type="line"/>
      <point x="1192" y="996" type="line"/>
      <point x="1192" y="883" type="line"/>
      <point x="42" y="453" type="line"/>
    </contour>
    <contour>
      <point x="788" y="0"/>
      <point x="712" y="31"/>
      <point x="651" y="92" type="curve" smooth="yes"/>
      <point x="591" y="153"/>
      <point x="561" y="231"/>
      <point x="561" y="318" type="curve" smooth="yes"/>
      <point x="561" y="413"/>
      <point x="597" y="492"/>
      <point x="653" y="548" type="curve" smooth="yes"/>
      <point x="709" y="604"/>
      <point x="787" y="639"/>
      <point x="879" y="639" type="curve" smooth="yes"/>
      <point x="923" y="639"/>
      <point x="962" y="631"/>
      <point x="1001" y="615" type="curve" smooth="yes"/>
      <point x="1039" y="599"/>
      <point x="1073" y="576"/>
      <point x="1104" y="545" type="curve" smooth="yes"/>
      <point x="1137" y="512"/>
      <point x="1160" y="475"/>
      <point x="1175" y="440" type="curve" smooth="yes"/>
      <point x="1192" y="402"/>
      <point x="1200" y="362"/>
      <point x="1200" y="319" type="curve" smooth="yes"/>
      <point x="1200" y="235"/>
      <point x="1171" y="156"/>
      <point x="1107" y="92" type="curve" smooth="yes"/>
      <point x="1044" y="31"/>
      <point x="967" y="0"/>
      <point x="879" y="0" type="curve" smooth="yes"/>
    </contour>
    <contour>
      <point x="982" y="135"/>
      <point x="1063" y="216"/>
      <point x="1063" y="319" type="curve" smooth="yes"/>
      <point x="1063" y="422"/>
      <point x="980" y="504"/>
      <point x="879" y="504" type="curve" smooth="yes"/>
      <point x="776" y="504"/>
      <point x="696" y="424"/>
      <point x="696" y="319" type="curve" smooth="yes"/>
      <point x="696" y="215"/>
      <point x="776" y="135"/>
      <point x="879" y="135" type="curve" smooth="yes"/>
    </contour>
  </outline>
</glyph>
<glyph name="ampersand" format="1">
  <advance width="1233"/>
  <unicode hex="0026"/>
  <note>
	ampersand
  </note>
  <outline>
    <contour>
      <point x="283" y="-29"/>
      <point x="173" y="7"/>
      <point x="96" y="78" type="curve" smooth="yes"/>
      <point x="20" y="146"/>
      <point x="-20" y="242"/>
      <point x="-20" y="362" type="curve" smooth="yes"/>
      <point x="-20" y="470"/>
      <point x="14" y="578"/>
      <point x="79" y="673" type="curve" smooth="yes"/>
      <point x="144" y="768"/>
      <point x="242" y="851"/>
      <point x="367" y="920" type="curve"/>
      <point x="344" y="963"/>
      <point x="335" y="989"/>
      <point x="324" y="1026" type="curve"/>
      <point x="315" y="1061"/>
      <point x="309" y="1092"/>
      <point x="309" y="1135" type="curve" smooth="yes"/>
      <point x="309" y="1247"/>
      <point x="349" y="1345"/>
      <point x="432" y="1416" type="curve" smooth="yes"/>
      <point x="512" y="1484"/>
      <point x="626" y="1520"/>
      <point x="761" y="1520" type="curve" smooth="yes"/>
      <point x="849" y="1520"/>
      <point x="929" y="1504"/>
      <point x="1008" y="1473" type="curve"/>
      <point x="973" y="1290" type="line"/>
      <point x="945" y="1315"/>
      <point x="911" y="1334"/>
      <point x="870" y="1347" type="curve" smooth="yes"/>
      <point x="829" y="1360"/>
      <point x="782" y="1366"/>
      <point x="738" y="1366" type="curve" smooth="yes"/>
      <point x="658" y="1366"/>
      <point x="596" y="1347"/>
      <point x="551" y="1309" type="curve" smooth="yes"/>
      <point x="506" y="1270"/>
      <point x="483" y="1217"/>
      <point x="483" y="1157" type="curve" smooth="yes"/>
      <point x="483" y="1126"/>
      <point x="489" y="1092"/>
      <point x="505" y="1045" type="curve" smooth="yes"/>
      <point x="520" y="1002"/>
      <point x="536" y="962"/>
      <point x="567" y="907" type="curve" smooth="yes"/>
      <point x="874" y="350" type="line"/>
      <point x="957" y="438"/>
      <point x="988" y="551"/>
      <point x="1004" y="630" type="curve" smooth="yes"/>
      <point x="1012" y="669"/>
      <point x="1018" y="713"/>
      <point x="1022" y="760" type="curve"/>
      <point x="1190" y="760" type="line"/>
      <point x="1179" y="647"/>
      <point x="1155" y="550"/>
      <point x="1112" y="458" type="curve" smooth="yes"/>
      <point x="1071" y="368"/>
      <point x="1015" y="289"/>
      <point x="944" y="221" type="curve"/>
      <point x="1067" y="0" type="line"/>
      <point x="868" y="0" type="line"/>
      <point x="809" y="113" type="line"/>
      <point x="744" y="65"/>
      <point x="686" y="32"/>
      <point x="614" y="7" type="curve" smooth="yes"/>
      <point x="547" y="-17"/>
      <point x="478" y="-29"/>
      <point x="408" y="-29" type="curve" smooth="yes"/>
    </contour>
    <contour>
      <point x="504" y="129"/>
      <point x="548" y="139"/>
      <point x="597" y="158" type="curve" smooth="yes"/>
      <point x="644" y="177"/>
      <point x="690" y="201"/>
      <point x="741" y="240" type="curve"/>
      <point x="432" y="795" type="line"/>
      <point x="342" y="746"/>
      <point x="274" y="689"/>
      <point x="228" y="624" type="curve" smooth="yes"/>
      <point x="181" y="557"/>
      <point x="158" y="483"/>
      <point x="158" y="411" type="curve" smooth="yes"/>
      <point x="158" y="324"/>
      <point x="191" y="257"/>
      <point x="243" y="209" type="curve" smooth="yes"/>
      <point x="298" y="158"/>
      <point x="372" y="129"/>
      <point x="456" y="129" type="curve" smooth="yes"/>
    </contour>
  </outline>
</glyph>
<glyph name="parenleft" format="1">
  <advance width="1233"/>
  <unicode hex="0028"/>
  <note>
	parenleft
  </note>
  <outline>
    <contour>
      <point x="373" y="-143"/>
      <point x="335" y="-29"/>
      <point x="310" y="76" type="curve" smooth="yes"/>
      <point x="285" y="181"/>
      <point x="273" y="277"/>
      <point x="273" y="381" type="curve" smooth="yes"/>
      <point x="273" y="576"/>
      <point x="315" y="777"/>
      <point x="402" y="978" type="curve" smooth="yes"/>
      <point x="486" y="1174"/>
      <point x="612" y="1366"/>
      <point x="783" y="1554" type="curve"/>
      <point x="942" y="1554" type="line"/>
      <point x="785" y="1351"/>
      <point x="668" y="1156"/>
      <point x="587" y="948" type="curve" smooth="yes"/>
      <point x="507" y="744"/>
      <point x="467" y="541"/>
      <point x="467" y="340" type="curve" smooth="yes"/>
      <point x="467" y="235"/>
      <point x="478" y="142"/>
      <point x="497" y="43" type="curve" smooth="yes"/>
      <point x="518" y="-65"/>
      <point x="546" y="-162"/>
      <point x="586" y="-270" type="curve"/>
      <point x="426" y="-270" type="line"/>
    </contour>
  </outline>
</glyph>
<glyph name="parenright" format="1">
  <advance width="1233"/>
  <unicode hex="0029"/>
  <note>
	parenright
  </note>
  <outline>
    <contour>
      <point x="478" y="-69"/>
      <point x="597" y="133"/>
      <point x="676" y="336" type="curve" smooth="yes"/>
      <point x="756" y="540"/>
      <point x="795" y="743"/>
      <point x="795" y="940" type="curve" smooth="yes"/>
      <point x="795" y="1039"/>
      <point x="785" y="1142"/>
      <point x="766" y="1241" type="curve" smooth="yes"/>
      <point x="747" y="1338"/>
      <point x="716" y="1446"/>
      <point x="676" y="1554" type="curve"/>
      <point x="836" y="1554" type="line"/>
      <point x="889" y="1427"/>
      <point x="927" y="1312"/>
      <point x="952" y="1209" type="curve" smooth="yes"/>
      <point x="977" y="1104"/>
      <point x="989" y="1008"/>
      <point x="989" y="904" type="curve" smooth="yes"/>
      <point x="989" y="709"/>
      <point x="947" y="507"/>
      <point x="860" y="307" type="curve" smooth="yes"/>
      <point x="772" y="104"/>
      <point x="647" y="-85"/>
      <point x="479" y="-270" type="curve"/>
      <point x="320" y="-270" type="line"/>
    </contour>
  </outline>
</glyph>
<glyph name="comma" format="1">
  <advance width="1233"/>
  <unicode hex="002C"/>
  <note>
	comma
  </note>
  <outline>
    <contour>
      <point x="400" y="-283" type="line"/>
      <point x="563" y="-210"/>
      <point x="647" y="-99"/>
      <point x="652" y="51" type="curve"/>
      <point x="636" y="48"/>
      <point x="624" y="47"/>
      <point x="612" y="47" type="curve" smooth="yes"/>
      <point x="569" y="47"/>
      <point x="531" y="59"/>
      <point x="502" y="86" type="curve" smooth="yes"/>
      <point x="473" y="112"/>
      <point x="458" y="149"/>
      <point x="458" y="197" type="curve" smooth="yes"/>
      <point x="458" y="244"/>
      <point x="473" y="281"/>
      <point x="504" y="308" type="curve" smooth="yes"/>
      <point x="531" y="332"/>
      <point x="568" y="349"/>
      <point x="619" y="349" type="curve" smooth="yes"/>
      <point x="734" y="349"/>
      <point x="798" y="254"/>
      <point x="798" y="93" type="curve" smooth="yes"/>
      <point x="798" y="-135"/>
      <point x="670" y="-304"/>
      <point x="446" y="-387" type="curve"/>
    </contour>
  </outline>
</glyph>
<glyph name="five" format="1">
  <advance width="1233"/>
  <unicode hex="0035"/>
  <note>
	five
  </note>
  <outline>
    <contour>
      <point x="302" y="-29"/>
      <point x="233" y="-24"/>
      <point x="170" y="-13" type="curve" smooth="yes"/>
      <point x="107" y="-2"/>
      <point x="52" y="14"/>
      <point x="4" y="35" type="curve"/>
      <point x="45" y="240" type="line"/>
      <point x="106" y="203"/>
      <point x="164" y="179"/>
      <point x="217" y="164" type="curve" smooth="yes"/>
      <point x="277" y="147"/>
      <point x="339" y="139"/>
      <point x="395" y="139" type="curve" smooth="yes"/>
      <point x="519" y="139"/>
      <point x="628" y="178"/>
      <point x="708" y="255" type="curve" smooth="yes"/>
      <point x="781" y="326"/>
      <point x="829" y="429"/>
      <point x="829" y="545" type="curve" smooth="yes"/>
      <point x="829" y="718"/>
      <point x="717" y="821"/>
      <point x="525" y="821" type="curve" smooth="yes"/>
      <point x="473" y="821"/>
      <point x="421" y="814"/>
      <point x="365" y="801" type="curve" smooth="yes"/>
      <point x="309" y="788"/>
      <point x="258" y="768"/>
      <point x="207" y="743" type="curve"/>
      <point x="352" y="1493" type="line"/>
      <point x="1108" y="1493" type="line"/>
      <point x="1075" y="1323" type="line"/>
      <point x="504" y="1323" type="line"/>
      <point x="432" y="956" type="line"/>
      <point x="463" y="967"/>
      <point x="493" y="975"/>
      <point x="524" y="980" type="curve" smooth="yes"/>
      <point x="553" y="985"/>
      <point x="584" y="987"/>
      <point x="612" y="987" type="curve" smooth="yes"/>
      <point x="740" y="987"/>
      <point x="842" y="947"/>
      <point x="915" y="875" type="curve" smooth="yes"/>
      <point x="991" y="802"/>
      <point x="1030" y="698"/>
      <point x="1030" y="574" type="curve" smooth="yes"/>
      <point x="1030" y="409"/>
      <point x="957" y="246"/>
      <point x="829" y="131" type="curve" smooth="yes"/>
      <point x="772" y="80"/>
      <point x="707" y="39"/>
      <point x="628" y="11" type="curve" smooth="yes"/>
      <point x="552" y="-16"/>
      <point x="470" y="-29"/>
      <point x="366" y="-29" type="curve" smooth="yes"/>
    </contour>
  </outline>
</glyph>
<glyph name="seven" format="1">
  <advance width="1233"/>
  <unicode hex="0037"/>
  <note>
	seven
  </note>
  <outline>
    <contour>
      <point x="952" y="1323" type="line"/>
      <point x="244" y="1323" type="line"/>
      <point x="276" y="1493" type="line"/>
      <point x="1212" y="1493" type="line"/>
      <point x="1196" y="1399" type="line"/>
      <point x="391" y="0" type="line"/>
      <point x="174" y="0" type="line"/>
    </contour>
  </outline>
</glyph>
<glyph name="less" format="1">
  <advance width="1233"/>
  <unicode hex="003C"/>
  <note>
	less
  </note>
  <outline>
    <contour>
      <point x="88" y="559" type="line"/>
      <point x="88" y="725" type="line"/>
      <point x="1145" y="1143" type="line"/>
      <point x="1145" y="961" type="line"/>
      <point x="295" y="641" type="line"/>
      <point x="1145" y="324" type="line"/>
      <point x="1145" y="141" type="line"/>
    </contour>
  </outline>
</glyph>
<glyph name="question" format="1">
  <advance width="1233"/>
  <unicode hex="003F"/>
  <note>
	question
  </note>
  <outline>
    <contour>
      <point x="546" y="583" type="line" smooth="yes"/>
      <point x="554" y="635"/>
      <point x="572" y="684"/>
      <point x="599" y="729" type="curve" smooth="yes"/>
      <point x="627" y="776"/>
      <point x="666" y="819"/>
      <point x="738" y="880" type="curve" smooth="yes"/>
      <point x="842" y="969" type="line" smooth="yes"/>
      <point x="898" y="1016"/>
      <point x="925" y="1045"/>
      <point x="944" y="1072" type="curve" smooth="yes"/>
      <point x="965" y="1102"/>
      <point x="978" y="1133"/>
      <point x="983" y="1165" type="curve" smooth="yes"/>
      <point x="985" y="1177"/>
      <point x="986" y="1188"/>
      <point x="986" y="1199" type="curve" smooth="yes"/>
      <point x="986" y="1242"/>
      <point x="971" y="1280"/>
      <point x="940" y="1309" type="curve" smooth="yes"/>
      <point x="904" y="1344"/>
      <point x="848" y="1364"/>
      <point x="775" y="1364" type="curve" smooth="yes"/>
      <point x="668" y="1364"/>
      <point x="571" y="1322"/>
      <point x="504" y="1287" type="curve" smooth="yes"/>
      <point x="470" y="1270"/>
      <point x="435" y="1250"/>
      <point x="398" y="1227" type="curve"/>
      <point x="428" y="1415" type="line"/>
      <point x="493" y="1451"/>
      <point x="563" y="1481"/>
      <point x="631" y="1500" type="curve" smooth="yes"/>
      <point x="699" y="1519"/>
      <point x="766" y="1528"/>
      <point x="833" y="1528" type="curve" smooth="yes"/>
      <point x="954" y="1528"/>
      <point x="1049" y="1499"/>
      <point x="1116" y="1432" type="curve" smooth="yes"/>
      <point x="1164" y="1384"/>
      <point x="1192" y="1318"/>
      <point x="1192" y="1250" type="curve" smooth="yes"/>
      <point x="1192" y="1227"/>
      <point x="1189" y="1196"/>
      <point x="1186" y="1175" type="curve" smooth="yes"/>
      <point x="1179" y="1126"/>
      <point x="1162" y="1081"/>
      <point x="1130" y="1034" type="curve" smooth="yes"/>
      <point x="1095" y="983"/>
      <point x="1043" y="932"/>
      <point x="978" y="876" type="curve" smooth="yes"/>
      <point x="876" y="790" type="line" smooth="yes"/>
      <point x="819" y="742"/>
      <point x="788" y="709"/>
      <point x="771" y="682" type="curve" smooth="yes"/>
      <point x="756" y="659"/>
      <point x="743" y="626"/>
      <point x="739" y="599" type="curve" smooth="yes"/>
      <point x="731" y="552" type="line"/>
      <point x="719" y="472" type="line"/>
      <point x="529" y="472" type="line"/>
    </contour>
    <contour>
      <point x="507" y="-40"/>
      <point x="478" y="-30"/>
      <point x="454" y="-3" type="curve" smooth="yes"/>
      <point x="429" y="26"/>
      <point x="421" y="58"/>
      <point x="421" y="93" type="curve" smooth="yes"/>
      <point x="421" y="146"/>
      <point x="444" y="187"/>
      <point x="476" y="216" type="curve" smooth="yes"/>
      <point x="508" y="245"/>
      <point x="552" y="264"/>
      <point x="596" y="264" type="curve" smooth="yes"/>
      <point x="627" y="264"/>
      <point x="663" y="254"/>
      <point x="687" y="227" type="curve" smooth="yes"/>
      <point x="707" y="204"/>
      <point x="718" y="171"/>
      <point x="718" y="134" type="curve" smooth="yes"/>
      <point x="718" y="89"/>
      <point x="701" y="44"/>
      <point x="664" y="9" type="curve" smooth="yes"/>
      <point x="633" y="-19"/>
      <point x="590" y="-40"/>
      <point x="542" y="-40" type="curve" smooth="yes"/>
    </contour>
  </outline>
</glyph>
<glyph name="R" format="1">
  <advance width="1233"/>
  <unicode hex="0052"/>
  <note>
	R
  </note>
  <outline>
    <contour>
      <point x="281" y="1493" type="line"/>
      <point x="697" y="1493" type="line" smooth="yes"/>
      <point x="834" y="1493"/>
      <point x="941" y="1463"/>
      <point x="1018" y="1404" type="curve" smooth="yes"/>
      <point x="1097" y="1343"/>
      <point x="1131" y="1257"/>
      <point x="1131" y="1144" type="curve" smooth="yes"/>
      <point x="1131" y="1032"/>
      <point x="1097" y="928"/>
      <point x="1028" y="848" type="curve" smooth="yes"/>
      <point x="960" y="769"/>
      <point x="867" y="720"/>
      <point x="746" y="705" type="curve"/>
      <point x="791" y="697"/>
      <point x="834" y="673"/>
      <point x="862" y="638" type="curve" smooth="yes"/>
      <point x="889" y="605"/>
      <point x="922" y="533"/>
      <point x="959" y="408" type="curve" smooth="yes"/>
      <point x="1080" y="0" type="line"/>
      <point x="879" y="0" type="line"/>
      <point x="773" y="377" type="line" smooth="yes"/>
      <point x="744" y="480"/>
      <point x="711" y="549"/>
      <point x="675" y="582" type="curve" smooth="yes"/>
      <point x="638" y="617"/>
      <point x="579" y="631"/>
      <point x="510" y="631" type="curve" smooth="yes"/>
      <point x="318" y="631" type="line"/>
      <point x="195" y="0" type="line"/>
      <point x="-8" y="0" type="line"/>
    </contour>
    <contour>
      <point x="570" y="797" type="line" smooth="yes"/>
      <point x="787" y="797"/>
      <point x="928" y="921"/>
      <point x="928" y="1109" type="curve" smooth="yes"/>
      <point x="928" y="1260"/>
      <point x="849" y="1327"/>
      <point x="666" y="1327" type="curve" smooth="yes"/>
      <point x="453" y="1327" type="line"/>
      <point x="351" y="797" type="line"/>
    </contour>
  </outline>
</glyph>
<glyph name="Y" format="1">
  <advance width="1233"/>
  <unicode hex="0059"/>
  <note>
	Y
  </note>
  <outline>
    <contour>
      <point x="508" y="670" type="line"/>
      <point x="195" y="1493" type="line"/>
      <point x="397" y="1493" type="line"/>
      <point x="633" y="842" type="line"/>
      <point x="1130" y="1493" type="line"/>
      <point x="1348" y="1493" type="line"/>
      <point x="713" y="670" type="line"/>
      <point x="584" y="0" type="line"/>
      <point x="377" y="0" type="line"/>
    </contour>
  </outline>
</glyph>
<glyph name="d" format="1">
  <advance width="1233"/>
  <unicode hex="0064"/>
  <note>
	d
  </note>
  <outline>
    <contour>
      <point x="349" y="-29"/>
      <point x="269" y="8"/>
      <point x="210" y="76" type="curve" smooth="yes"/>
      <point x="149" y="147"/>
      <point x="119" y="241"/>
      <point x="119" y="374" type="curve" smooth="yes"/>
      <point x="119" y="462"/>
      <point x="132" y="560"/>
      <point x="159" y="657" type="curve" smooth="yes"/>
      <point x="187" y="758"/>
      <point x="225" y="841"/>
      <point x="268" y="909" type="curve" smooth="yes"/>
      <point x="320" y="992"/>
      <point x="378" y="1048"/>
      <point x="445" y="1087" type="curve" smooth="yes"/>
      <point x="512" y="1126"/>
      <point x="584" y="1147"/>
      <point x="668" y="1147" type="curve" smooth="yes"/>
      <point x="736" y="1147"/>
      <point x="791" y="1133"/>
      <point x="840" y="1104" type="curve" smooth="yes"/>
      <point x="889" y="1075"/>
      <point x="927" y="1032"/>
      <point x="954" y="977" type="curve"/>
      <point x="1069" y="1556" type="line"/>
      <point x="1253" y="1556" type="line"/>
      <point x="950" y="0" type="line"/>
      <point x="786" y="0" type="line"/>
      <point x="793" y="141" type="line"/>
      <point x="708" y="30"/>
      <point x="598" y="-29"/>
      <point x="462" y="-29" type="curve" smooth="yes"/>
    </contour>
    <contour>
      <point x="575" y="127"/>
      <point x="626" y="142"/>
      <point x="672" y="172" type="curve" smooth="yes"/>
      <point x="719" y="203"/>
      <point x="755" y="245"/>
      <point x="788" y="305" type="curve" smooth="yes"/>
      <point x="821" y="363"/>
      <point x="846" y="431"/>
      <point x="865" y="508" type="curve" smooth="yes"/>
      <point x="884" y="583"/>
      <point x="893" y="660"/>
      <point x="893" y="727" type="curve" smooth="yes"/>
      <point x="893" y="815"/>
      <point x="875" y="881"/>
      <point x="840" y="924" type="curve" smooth="yes"/>
      <point x="807" y="965"/>
      <point x="754" y="991"/>
      <point x="682" y="991" type="curve" smooth="yes"/>
      <point x="626" y="991"/>
      <point x="572" y="975"/>
      <point x="531" y="948" type="curve" smooth="yes"/>
      <point x="488" y="920"/>
      <point x="448" y="873"/>
      <point x="417" y="817" type="curve" smooth="yes"/>
      <point x="388" y="764"/>
      <point x="361" y="689"/>
      <point x="342" y="613" type="curve" smooth="yes"/>
      <point x="323" y="537"/>
      <point x="315" y="456"/>
      <point x="315" y="388" type="curve" smooth="yes"/>
      <point x="315" y="296"/>
      <point x="331" y="234"/>
      <point x="366" y="191" type="curve" smooth="yes"/>
      <point x="400" y="148"/>
      <point x="451" y="127"/>
      <point x="518" y="127" type="curve" smooth="yes"/>
    </contour>
  </outline>
</glyph>
<glyph name="h" format="1">
  <advance width="1233"/>
  <unicode hex="0068"/>
  <note>
	h
  </note>
  <outline>
    <contour>
      <point x="387" y="1556" type="line"/>
      <point x="571" y="1556" type="line"/>
      <point x="455" y="952" type="line"/>
      <point x="504" y="1016"/>
      <point x="559" y="1065"/>
      <point x="618" y="1098" type="curve" smooth="yes"/>
      <point x="675" y="1130"/>
      <point x="732" y="1147"/>
      <point x="807" y="1147" type="curve" smooth="yes"/>
      <point x="895" y="1147"/>
      <point x="968" y="1123"/>
      <point x="1019" y="1075" type="curve" smooth="yes"/>
      <point x="1070" y="1028"/>
      <point x="1096" y="957"/>
      <point x="1096" y="877" type="curve" smooth="yes"/>
      <point x="1096" y="854"/>
      <point x="1094" y="820"/>
      <point x="1091" y="793" type="curve" smooth="yes"/>
      <point x="1088" y="766"/>
      <point x="1084" y="741"/>
      <point x="1075" y="694" type="curve" smooth="yes"/>
      <point x="940" y="0" type="line"/>
      <point x="756" y="0" type="line"/>
      <point x="891" y="695" type="line"/>
      <point x="893" y="701"/>
      <point x="894" y="704"/>
      <point x="893" y="704" type="curve"/>
      <point x="892" y="703"/>
      <point x="893" y="705"/>
      <point x="894" y="709" type="curve"/>
      <point x="899" y="737"/>
      <point x="902" y="755"/>
      <point x="905" y="771" type="curve" smooth="yes"/>
      <point x="908" y="787"/>
      <point x="909" y="800"/>
      <point x="909" y="817" type="curve" smooth="yes"/>
      <point x="909" y="876"/>
      <point x="894" y="915"/>
      <point x="863" y="944" type="curve" smooth="yes"/>
      <point x="832" y="973"/>
      <point x="788" y="987"/>
      <point x="730" y="987" type="curve" smooth="yes"/>
      <point x="558" y="987"/>
      <point x="435" y="856"/>
      <point x="391" y="633" type="curve" smooth="yes"/>
      <point x="268" y="0" type="line"/>
      <point x="84" y="0" type="line"/>
    </contour>
  </outline>
</glyph>
<glyph name="i" format="1">
  <advance width="1233"/>
  <unicode hex="0069"/>
  <note>
	i
  </note>
  <outline>
    <contour>
      <point x="627" y="1323" type="line" smooth="yes"/>
      <point x="607" y="1323"/>
      <point x="596" y="1336"/>
      <point x="600" y="1356" type="curve" smooth="yes"/>
      <point x="634" y="1529" type="line" smooth="yes"/>
      <point x="637" y="1547"/>
      <point x="647" y="1556"/>
      <point x="666" y="1556" type="curve" smooth="yes"/>
      <point x="790" y="1556" type="line" smooth="yes"/>
      <point x="810" y="1556"/>
      <point x="821" y="1543"/>
      <point x="817" y="1523" type="curve" smooth="yes"/>
      <point x="783" y="1350" type="line" smooth="yes"/>
      <point x="780" y="1332"/>
      <point x="769" y="1323"/>
      <point x="751" y="1323" type="curve" smooth="yes"/>
    </contour>
    <contour>
      <point x="749" y="-4" type="line" smooth="yes"/>
      <point x="517" y="-4"/>
      <point x="407" y="81"/>
      <point x="407" y="252" type="curve" smooth="yes"/>
      <point x="407" y="275"/>
      <point x="409" y="295"/>
      <point x="412" y="322" type="curve" smooth="yes"/>
      <point x="415" y="349"/>
      <point x="419" y="379"/>
      <point x="426" y="408" type="curve" smooth="yes"/>
      <point x="559" y="976" type="line"/>
      <point x="313" y="976" type="line"/>
      <point x="342" y="1120" type="line"/>
      <point x="772" y="1120" type="line"/>
      <point x="610" y="404" type="line" smooth="yes"/>
      <point x="605" y="383"/>
      <point x="601" y="353"/>
      <point x="600" y="342" type="curve"/>
      <point x="597" y="321"/>
      <point x="596" y="310"/>
      <point x="596" y="297" type="curve" smooth="yes"/>
      <point x="596" y="198"/>
      <point x="655" y="152"/>
      <point x="776" y="152" type="curve" smooth="yes"/>
      <point x="987" y="152" type="line"/>
      <point x="956" y="-4" type="line"/>
    </contour>
  </outline>
</glyph>
<glyph name="w" format="1">
  <advance width="1233"/>
  <unicode hex="0077"/>
  <note>
	w
  </note>
  <outline>
    <contour>
      <point x="92" y="1120" type="line"/>
      <point x="268" y="1120" type="line"/>
      <point x="283" y="215" type="line"/>
      <point x="551" y="793" type="line"/>
      <point x="713" y="793" type="line"/>
      <point x="762" y="215" type="line"/>
      <point x="1124" y="1120" type="line"/>
      <point x="1315" y="1120" type="line"/>
      <point x="829" y="0" type="line"/>
      <point x="664" y="0" type="line"/>
      <point x="604" y="623" type="line"/>
      <point x="307" y="0" type="line"/>
      <point x="141" y="0" type="line"/>
    </contour>
  </outline>
</glyph>
<glyph name="braceleft" format="1">
  <advance width="1233"/>
  <unicode hex="007B"/>
  <note>
	braceleft
  </note>
  <outline>
    <contour>
      <point x="436" y="-334"/>
      <point x="335" y="-266"/>
      <point x="335" y="-102" type="curve" smooth="yes"/>
      <point x="335" y="-89" type="line"/>
      <point x="334" y="-70"/>
      <point x="335" y="-60"/>
      <point x="338" y="-37" type="curve" smooth="yes"/>
      <point x="343" y="2"/>
      <point x="346" y="19"/>
      <point x="349" y="34" type="curve" smooth="yes"/>
      <point x="394" y="270" type="line"/>
      <point x="395" y="273"/>
      <point x="396" y="276"/>
      <point x="396" y="278" type="curve" smooth="yes"/>
      <point x="396" y="279"/>
      <point x="396" y="281"/>
      <point x="397" y="282" type="curve"/>
      <point x="404" y="315"/>
      <point x="407" y="339"/>
      <point x="407" y="372" type="curve" smooth="yes"/>
      <point x="407" y="437"/>
      <point x="391" y="475"/>
      <point x="358" y="500" type="curve" smooth="yes"/>
      <point x="325" y="525"/>
      <point x="271" y="537"/>
      <point x="196" y="537" type="curve" smooth="yes"/>
      <point x="104" y="537" type="line"/>
      <point x="133" y="684" type="line"/>
      <point x="224" y="684" type="line" smooth="yes"/>
      <point x="419" y="684"/>
      <point x="484" y="743"/>
      <point x="525" y="944" type="curve" smooth="yes"/>
      <point x="575" y="1188" type="line" smooth="yes"/>
      <point x="608" y="1353"/>
      <point x="654" y="1440"/>
      <point x="726" y="1493" type="curve" smooth="yes"/>
      <point x="755" y="1514"/>
      <point x="790" y="1531"/>
      <point x="843" y="1542" type="curve" smooth="yes"/>
      <point x="888" y="1551"/>
      <point x="952" y="1556"/>
      <point x="1044" y="1556" type="curve" smooth="yes"/>
      <point x="1126" y="1556" type="line"/>
      <point x="1097" y="1413" type="line"/>
      <point x="1012" y="1413" type="line" smooth="yes"/>
      <point x="920" y="1413"/>
      <point x="867" y="1401"/>
      <point x="836" y="1374" type="curve" smooth="yes"/>
      <point x="803" y="1345"/>
      <point x="778" y="1280"/>
      <point x="759" y="1184" type="curve" smooth="yes"/>
      <point x="708" y="932" type="line" smooth="yes"/>
      <point x="688" y="832"/>
      <point x="659" y="753"/>
      <point x="615" y="700" type="curve" smooth="yes"/>
      <point x="576" y="653"/>
      <point x="519" y="621"/>
      <point x="444" y="606" type="curve"/>
      <point x="540" y="582"/>
      <point x="597" y="510"/>
      <point x="597" y="410" type="curve"/>
      <point x="598" y="393"/>
      <point x="598" y="386"/>
      <point x="594" y="353" type="curve" smooth="yes"/>
      <point x="593" y="342"/>
      <point x="592" y="334"/>
      <point x="591" y="329" type="curve"/>
      <point x="590" y="317"/>
      <point x="589" y="310"/>
      <point x="587" y="302" type="curve"/>
      <point x="586" y="297"/>
      <point x="584" y="291"/>
      <point x="583" y="283" type="curve"/>
      <point x="536" y="39" type="line" smooth="yes"/>
      <point x="531" y="12"/>
      <point x="529" y="-3"/>
      <point x="528" y="-20" type="curve" smooth="yes"/>
      <point x="527" y="-31"/>
      <point x="527" y="-40"/>
      <point x="527" y="-45" type="curve"/>
      <point x="526" y="-51"/>
      <point x="526" y="-55"/>
      <point x="526" y="-58" type="curve" smooth="yes"/>
      <point x="526" y="-61"/>
      <point x="526" y="-64"/>
      <point x="526" y="-65" type="curve"/>
      <point x="525" y="-66"/>
      <point x="525" y="-68"/>
      <point x="525" y="-70" type="curve" smooth="yes"/>
      <point x="525" y="-155"/>
      <point x="579" y="-190"/>
      <point x="708" y="-190" type="curve" smooth="yes"/>
      <point x="786" y="-190" type="line"/>
      <point x="757" y="-334" type="line"/>
      <point x="685" y="-334" type="line" smooth="yes"/>
    </contour>
  </outline>
</glyph>
<glyph name="asciitilde" format="1">
  <advance width="1233"/>
  <unicode hex="007E"/>
  <note>
	asciitilde
  </note>
  <outline>
    <contour>
      <point x="1151" y="840" type="line"/>
      <point x="1146" y="691"/>
      <point x="1132" y="586"/>
      <point x="1083" y="499" type="curve"/>
      <point x="1035" y="402"/>
      <point x="956" y="354"/>
      <point x="846" y="354" type="curve" smooth="yes"/>
      <point x="793" y="354"/>
      <point x="748" y="365"/>
      <point x="709" y="388" type="curve" smooth="yes"/>
      <point x="674" y="410"/>
      <point x="632" y="455"/>
      <point x="583" y="522" type="curve" smooth="yes"/>
      <point x="531" y="594"/>
      <point x="493" y="640"/>
      <point x="468" y="659" type="curve"/>
      <point x="441" y="678"/>
      <point x="416" y="688"/>
      <point x="391" y="688" type="curve" smooth="yes"/>
      <point x="340" y="688"/>
      <point x="303" y="664"/>
      <point x="282" y="616" type="curve" smooth="yes"/>
      <point x="259" y="560"/>
      <point x="245" y="475"/>
      <point x="240" y="361" type="curve"/>
      <point x="84" y="361" type="line"/>
      <point x="87" y="500"/>
      <point x="110" y="613"/>
      <point x="152" y="701" type="curve"/>
      <point x="207" y="796"/>
      <point x="285" y="844"/>
      <point x="386" y="844" type="curve" smooth="yes"/>
      <point x="483" y="844"/>
      <point x="537" y="802"/>
      <point x="583" y="758" type="curve" smooth="yes"/>
      <point x="606" y="735"/>
      <point x="628" y="709"/>
      <point x="649" y="679" type="curve" smooth="yes"/>
      <point x="685" y="630"/>
      <point x="720" y="588"/>
      <point x="754" y="554" type="curve" smooth="yes"/>
      <point x="782" y="525"/>
      <point x="809" y="510"/>
      <point x="842" y="510" type="curve" smooth="yes"/>
      <point x="895" y="510"/>
      <point x="934" y="537"/>
      <point x="958" y="592" type="curve" smooth="yes"/>
      <point x="981" y="646"/>
      <point x="994" y="729"/>
      <point x="995" y="840" type="curve"/>
    </contour>
  </outline>
</glyph>
<glyph name="cent" format="1">
  <advance width="1233"/>
  <unicode hex="00A2"/>
  <note>
	cent
  </note>
  <outline>
    <contour>
      <point x="510" y="-27" type="line"/>
      <point x="393" y="-15"/>
      <point x="293" y="33"/>
      <point x="225" y="113" type="curve" smooth="yes"/>
      <point x="157" y="193"/>
      <point x="123" y="301"/>
      <point x="123" y="434" type="curve" smooth="yes"/>
      <point x="123" y="551"/>
      <point x="149" y="670"/>
      <point x="204" y="778" type="curve" smooth="yes"/>
      <point x="263" y="895"/>
      <point x="341" y="979"/>
      <point x="425" y="1036" type="curve" smooth="yes"/>
      <point x="476" y="1071"/>
      <point x="526" y="1095"/>
      <point x="574" y="1112" type="curve" smooth="yes"/>
      <point x="625" y="1130"/>
      <point x="679" y="1141"/>
      <point x="737" y="1145" type="curve"/>
      <point x="793" y="1432" type="line"/>
      <point x="895" y="1432" type="line"/>
      <point x="840" y="1145" type="line"/>
      <point x="917" y="1141"/>
      <point x="1007" y="1118"/>
      <point x="1087" y="1077" type="curve"/>
      <point x="1055" y="905" type="line"/>
      <point x="988" y="956"/>
      <point x="910" y="985"/>
      <point x="811" y="993" type="curve"/>
      <point x="641" y="123" type="line"/>
      <point x="684" y="126"/>
      <point x="729" y="136"/>
      <point x="776" y="151" type="curve" smooth="yes"/>
      <point x="823" y="166"/>
      <point x="869" y="186"/>
      <point x="920" y="213" type="curve"/>
      <point x="887" y="41" type="line"/>
      <point x="860" y="29"/>
      <point x="832" y="19"/>
      <point x="806" y="11" type="curve" smooth="yes"/>
      <point x="793" y="7"/>
      <point x="781" y="4"/>
      <point x="770" y="1" type="curve" smooth="yes"/>
      <point x="759" y="-2"/>
      <point x="751" y="-5"/>
      <point x="744" y="-7" type="curve" smooth="yes"/>
      <point x="704" y="-18"/>
      <point x="655" y="-24"/>
      <point x="612" y="-27" type="curve"/>
      <point x="557" y="-313" type="line"/>
      <point x="455" y="-313" type="line"/>
    </contour>
    <contour>
      <point x="709" y="991" type="line"/>
      <point x="489" y="971"/>
      <point x="382" y="760"/>
      <point x="344" y="632" type="curve" smooth="yes"/>
      <point x="325" y="567"/>
      <point x="315" y="500"/>
      <point x="315" y="431" type="curve" smooth="yes"/>
      <point x="315" y="331"/>
      <point x="335" y="267"/>
      <point x="374" y="216" type="curve" smooth="yes"/>
      <point x="411" y="168"/>
      <point x="461" y="136"/>
      <point x="541" y="127" type="curve"/>
    </contour>
  </outline>
</glyph>
<glyph name="sterling" format="1">
  <advance width="1233"/>
  <unicode hex="00A3"/>
  <note>
	sterling
  </note>
  <outline>
    <contour>
      <point x="25" y="170" type="line"/>
      <point x="262" y="170" type="line"/>
      <point x="352" y="635" type="line"/>
      <point x="154" y="635" type="line"/>
      <point x="180" y="778" type="line"/>
      <point x="379" y="778" type="line"/>
      <point x="426" y="1016" type="line" smooth="yes"/>
      <point x="462" y="1199"/>
      <point x="521" y="1317"/>
      <point x="608" y="1397" type="curve" smooth="yes"/>
      <point x="692" y="1476"/>
      <point x="808" y="1520"/>
      <point x="957" y="1520" type="curve" smooth="yes"/>
      <point x="1006" y="1520"/>
      <point x="1051" y="1515"/>
      <point x="1092" y="1506" type="curve"/>
      <point x="1119" y="1499"/>
      <point x="1176" y="1483"/>
      <point x="1229" y="1462" type="curve"/>
      <point x="1192" y="1278" type="line"/>
      <point x="1120" y="1335"/>
      <point x="1040" y="1366"/>
      <point x="952" y="1366" type="curve" smooth="yes"/>
      <point x="857" y="1366"/>
      <point x="789" y="1337"/>
      <point x="738" y="1281" type="curve" smooth="yes"/>
      <point x="687" y="1225"/>
      <point x="651" y="1138"/>
      <point x="623" y="995" type="curve" smooth="yes"/>
      <point x="580" y="778" type="line"/>
      <point x="950" y="778" type="line"/>
      <point x="922" y="635" type="line"/>
      <point x="551" y="635" type="line"/>
      <point x="461" y="170" type="line"/>
      <point x="997" y="170" type="line"/>
      <point x="965" y="0" type="line"/>
      <point x="-8" y="0" type="line"/>
    </contour>
  </outline>
</glyph>
<glyph name="copyright" format="1">
  <advance width="1233"/>
  <unicode hex="00A9"/>
  <note>
	copyright
  </note>
  <outline>
    <contour>
      <point x="528" y="125"/>
      <point x="454" y="140"/>
      <point x="382" y="171" type="curve" smooth="yes"/>
      <point x="309" y="202"/>
      <point x="240" y="248"/>
      <point x="181" y="307" type="curve" smooth="yes"/>
      <point x="125" y="363"/>
      <point x="76" y="433"/>
      <point x="45" y="508" type="curve" smooth="yes"/>
      <point x="15" y="579"/>
      <point x="0" y="656"/>
      <point x="0" y="741" type="curve" smooth="yes"/>
      <point x="0" y="825"/>
      <point x="15" y="904"/>
      <point x="46" y="977" type="curve" smooth="yes"/>
      <point x="77" y="1049"/>
      <point x="121" y="1115"/>
      <point x="182" y="1178" type="curve" smooth="yes"/>
      <point x="245" y="1242"/>
      <point x="312" y="1285"/>
      <point x="381" y="1313" type="curve" smooth="yes"/>
      <point x="454" y="1343"/>
      <point x="532" y="1358"/>
      <point x="616" y="1358" type="curve" smooth="yes"/>
      <point x="700" y="1358"/>
      <point x="779" y="1343"/>
      <point x="852" y="1313" type="curve" smooth="yes"/>
      <point x="928" y="1282"/>
      <point x="995" y="1235"/>
      <point x="1051" y="1178" type="curve" smooth="yes"/>
      <point x="1116" y="1111"/>
      <point x="1160" y="1041"/>
      <point x="1187" y="977" type="curve" smooth="yes"/>
      <point x="1218" y="905"/>
      <point x="1233" y="827"/>
      <point x="1233" y="742" type="curve" smooth="yes"/>
      <point x="1233" y="657"/>
      <point x="1218" y="579"/>
      <point x="1188" y="508" type="curve" smooth="yes"/>
      <point x="1159" y="439"/>
      <point x="1112" y="367"/>
      <point x="1052" y="307" type="curve" smooth="yes"/>
      <point x="996" y="251"/>
      <point x="927" y="203"/>
      <point x="851" y="171" type="curve" smooth="yes"/>
      <point x="779" y="140"/>
      <point x="701" y="125"/>
      <point x="616" y="125" type="curve" smooth="yes"/>
    </contour>
    <contour>
      <point x="686" y="227"/>
      <point x="751" y="240"/>
      <point x="812" y="265" type="curve" smooth="yes"/>
      <point x="875" y="292"/>
      <point x="932" y="331"/>
      <point x="979" y="378" type="curve" smooth="yes"/>
      <point x="1024" y="423"/>
      <point x="1068" y="485"/>
      <point x="1093" y="546" type="curve" smooth="yes"/>
      <point x="1118" y="605"/>
      <point x="1130" y="670"/>
      <point x="1130" y="741" type="curve" smooth="yes"/>
      <point x="1130" y="813"/>
      <point x="1117" y="878"/>
      <point x="1092" y="939" type="curve" smooth="yes"/>
      <point x="1041" y="1062"/>
      <point x="935" y="1167"/>
      <point x="814" y="1218" type="curve" smooth="yes"/>
      <point x="754" y="1243"/>
      <point x="688" y="1255"/>
      <point x="616" y="1255" type="curve" smooth="yes"/>
      <point x="473" y="1255"/>
      <point x="353" y="1205"/>
      <point x="254" y="1106" type="curve" smooth="yes"/>
      <point x="153" y="1005"/>
      <point x="102" y="881"/>
      <point x="102" y="742" type="curve" smooth="yes"/>
      <point x="102" y="670"/>
      <point x="114" y="609"/>
      <point x="141" y="546" type="curve" smooth="yes"/>
      <point x="173" y="470"/>
      <point x="215" y="418"/>
      <point x="254" y="379" type="curve" smooth="yes"/>
      <point x="305" y="328"/>
      <point x="357" y="292"/>
      <point x="421" y="265" type="curve" smooth="yes"/>
      <point x="481" y="240"/>
      <point x="545" y="227"/>
      <point x="617" y="227" type="curve" smooth="yes"/>
    </contour>
    <contour>
      <point x="515" y="369"/>
      <point x="420" y="405"/>
      <point x="353" y="469" type="curve" smooth="yes"/>
      <point x="286" y="533"/>
      <point x="250" y="626"/>
      <point x="250" y="741" type="curve" smooth="yes"/>
      <point x="250" y="854"/>
      <point x="286" y="949"/>
      <point x="354" y="1016" type="curve" smooth="yes"/>
      <point x="421" y="1080"/>
      <point x="518" y="1116"/>
      <point x="638" y="1116" type="curve" smooth="yes"/>
      <point x="678" y="1116"/>
      <point x="716" y="1112"/>
      <point x="755" y="1105" type="curve" smooth="yes"/>
      <point x="792" y="1098"/>
      <point x="824" y="1088"/>
      <point x="864" y="1071" type="curve"/>
      <point x="864" y="963" type="line"/>
      <point x="825" y="982"/>
      <point x="787" y="996"/>
      <point x="751" y="1005" type="curve" smooth="yes"/>
      <point x="714" y="1014"/>
      <point x="674" y="1018"/>
      <point x="641" y="1018" type="curve" smooth="yes"/>
      <point x="565" y="1018"/>
      <point x="500" y="996"/>
      <point x="453" y="945" type="curve" smooth="yes"/>
      <point x="410" y="898"/>
      <point x="385" y="827"/>
      <point x="385" y="739" type="curve" smooth="yes"/>
      <point x="385" y="655"/>
      <point x="408" y="585"/>
      <point x="455" y="538" type="curve" smooth="yes"/>
      <point x="502" y="491"/>
      <point x="566" y="467"/>
      <point x="657" y="467" type="curve" smooth="yes"/>
      <point x="698" y="467"/>
      <point x="730" y="472"/>
      <point x="763" y="480" type="curve" smooth="yes"/>
      <point x="796" y="488"/>
      <point x="832" y="501"/>
      <point x="864" y="518" type="curve"/>
      <point x="864" y="414" type="line"/>
      <point x="829" y="399"/>
      <point x="794" y="387"/>
      <point x="755" y="380" type="curve" smooth="yes"/>
      <point x="716" y="373"/>
      <point x="679" y="369"/>
      <point x="638" y="369" type="curve" smooth="yes"/>
    </contour>
  </outline>
</glyph>
<glyph name="twosuperior" format="1">
  <advance width="1233"/>
  <unicode hex="00B2"/>
  <note>
	twosuperior
  </note>
  <outline>
    <contour>
      <point x="328" y="1230" type="line"/>
      <point x="531" y="1397" type="line" smooth="yes"/>
      <point x="636" y="1482"/>
      <point x="714" y="1554"/>
      <point x="766" y="1612" type="curve" smooth="yes"/>
      <point x="818" y="1670"/>
      <point x="844" y="1719"/>
      <point x="844" y="1760" type="curve" smooth="yes"/>
      <point x="844" y="1784"/>
      <point x="835" y="1811"/>
      <point x="812" y="1832" type="curve" smooth="yes"/>
      <point x="789" y="1852"/>
      <point x="755" y="1867"/>
      <point x="704" y="1867" type="curve" smooth="yes"/>
      <point x="640" y="1867"/>
      <point x="562" y="1844"/>
      <point x="451" y="1789" type="curve"/>
      <point x="475" y="1916" type="line"/>
      <point x="588" y="1955"/>
      <point x="665" y="1972"/>
      <point x="737" y="1972" type="curve" smooth="yes"/>
      <point x="821" y="1972"/>
      <point x="884" y="1948"/>
      <point x="927" y="1912" type="curve" smooth="yes"/>
      <point x="970" y="1876"/>
      <point x="991" y="1829"/>
      <point x="991" y="1781" type="curve" smooth="yes"/>
      <point x="991" y="1674"/>
      <point x="885" y="1537"/>
      <point x="682" y="1385" type="curve" smooth="yes"/>
      <point x="662" y="1370" type="line"/>
      <point x="492" y="1234" type="line"/>
      <point x="887" y="1234" type="line"/>
      <point x="864" y="1120" type="line"/>
      <point x="307" y="1120" type="line"/>
    </contour>
  </outline>
</glyph>
<glyph name="threesuperior" format="1">
  <advance width="1233"/>
  <unicode hex="00B3"/>
  <note>
	threesuperior
  </note>
  <outline>
    <contour>
      <point x="452" y="1103"/>
      <point x="367" y="1117"/>
      <point x="287" y="1144" type="curve"/>
      <point x="311" y="1265" type="line"/>
      <point x="400" y="1226"/>
      <point x="464" y="1210"/>
      <point x="536" y="1210" type="curve" smooth="yes"/>
      <point x="608" y="1210"/>
      <point x="668" y="1227"/>
      <point x="709" y="1257" type="curve" smooth="yes"/>
      <point x="750" y="1287"/>
      <point x="774" y="1329"/>
      <point x="774" y="1384" type="curve" smooth="yes"/>
      <point x="774" y="1469"/>
      <point x="716" y="1511"/>
      <point x="600" y="1511" type="curve" smooth="yes"/>
      <point x="528" y="1511" type="line"/>
      <point x="549" y="1617" type="line"/>
      <point x="621" y="1617" type="line" smooth="yes"/>
      <point x="686" y="1617"/>
      <point x="740" y="1632"/>
      <point x="777" y="1657" type="curve" smooth="yes"/>
      <point x="814" y="1682"/>
      <point x="836" y="1719"/>
      <point x="836" y="1760" type="curve" smooth="yes"/>
      <point x="836" y="1829"/>
      <point x="778" y="1863"/>
      <point x="671" y="1863" type="curve" smooth="yes"/>
      <point x="604" y="1863"/>
      <point x="545" y="1851"/>
      <point x="461" y="1820" type="curve"/>
      <point x="483" y="1935" type="line"/>
      <point x="580" y="1958"/>
      <point x="661" y="1970"/>
      <point x="728" y="1970" type="curve" smooth="yes"/>
      <point x="895" y="1970"/>
      <point x="983" y="1900"/>
      <point x="983" y="1783" type="curve" smooth="yes"/>
      <point x="983" y="1672"/>
      <point x="904" y="1591"/>
      <point x="772" y="1566" type="curve"/>
      <point x="871" y="1549"/>
      <point x="922" y="1488"/>
      <point x="922" y="1388" type="curve" smooth="yes"/>
      <point x="922" y="1303"/>
      <point x="885" y="1232"/>
      <point x="818" y="1182" type="curve" smooth="yes"/>
      <point x="750" y="1132"/>
      <point x="653" y="1103"/>
      <point x="536" y="1103" type="curve" smooth="yes"/>
    </contour>
  </outline>
</glyph>
<glyph name="paragraph" format="1">
  <advance width="1233"/>
  <unicode hex="00B6"/>
  <note>
	paragraph
  </note>
  <outline>
    <contour>
      <point x="506" y="649" type="line"/>
      <point x="270" y="654"/>
      <point x="125" y="788"/>
      <point x="125" y="1004" type="curve" smooth="yes"/>
      <point x="125" y="1283"/>
      <point x="383" y="1493"/>
      <point x="735" y="1493" type="curve" smooth="yes"/>
      <point x="1141" y="1493" type="line"/>
      <point x="813" y="-197" type="line"/>
      <point x="674" y="-197" type="line"/>
      <point x="977" y="1370" type="line"/>
      <point x="786" y="1370" type="line"/>
      <point x="483" y="-197" type="line"/>
      <point x="342" y="-197" type="line"/>
    </contour>
  </outline>
</glyph>
<glyph name="onehalf" format="1">
  <advance width="1233"/>
  <unicode hex="00BD"/>
  <note>
	onehalf
  </note>
  <outline>
    <contour>
      <point x="111" y="934" type="line"/>
      <point x="317" y="934" type="line"/>
      <point x="434" y="1545" type="line"/>
      <point x="203" y="1504" type="line"/>
      <point x="225" y="1620" type="line"/>
      <point x="463" y="1659" type="line"/>
      <point x="600" y="1659" type="line"/>
      <point x="459" y="934" type="line"/>
      <point x="664" y="934" type="line"/>
      <point x="643" y="824" type="line"/>
      <point x="90" y="824" type="line"/>
    </contour>
    <contour>
      <point x="47" y="612" type="line"/>
      <point x="1106" y="870" type="line"/>
      <point x="1133" y="762" type="line"/>
      <point x="70" y="504" type="line"/>
    </contour>
    <contour>
      <point x="482" y="-160" type="line"/>
      <point x="685" y="7" type="line" smooth="yes"/>
      <point x="787" y="90"/>
      <point x="865" y="161"/>
      <point x="918" y="220" type="curve" smooth="yes"/>
      <point x="971" y="279"/>
      <point x="998" y="329"/>
      <point x="998" y="370" type="curve" smooth="yes"/>
      <point x="998" y="397"/>
      <point x="986" y="426"/>
      <point x="961" y="447" type="curve" smooth="yes"/>
      <point x="937" y="467"/>
      <point x="904" y="477"/>
      <point x="861" y="477" type="curve" smooth="yes"/>
      <point x="830" y="477"/>
      <point x="788" y="471"/>
      <point x="749" y="459" type="curve" smooth="yes"/>
      <point x="713" y="448"/>
      <point x="661" y="426"/>
      <point x="605" y="399" type="curve"/>
      <point x="629" y="526" type="line"/>
      <point x="685" y="545"/>
      <point x="733" y="560"/>
      <point x="776" y="569" type="curve" smooth="yes"/>
      <point x="817" y="578"/>
      <point x="856" y="582"/>
      <point x="892" y="582" type="curve" smooth="yes"/>
      <point x="975" y="582"/>
      <point x="1034" y="562"/>
      <point x="1077" y="527" type="curve" smooth="yes"/>
      <point x="1122" y="490"/>
      <point x="1145" y="434"/>
      <point x="1145" y="387" type="curve" smooth="yes"/>
      <point x="1145" y="335"/>
      <point x="1115" y="273"/>
      <point x="1063" y="206" type="curve" smooth="yes"/>
      <point x="1010" y="138"/>
      <point x="932" y="67"/>
      <point x="836" y="-5" type="curve" smooth="yes"/>
      <point x="816" y="-20" type="line"/>
      <point x="646" y="-156" type="line"/>
      <point x="1041" y="-156" type="line"/>
      <point x="1018" y="-270" type="line"/>
      <point x="461" y="-270" type="line"/>
    </contour>
  </outline>
</glyph>
<glyph name="threequarters" format="1">
  <advance width="1233"/>
  <unicode hex="00BE"/>
  <note>
	threequarters
  </note>
  <outline>
    <contour>
      <point x="268" y="809"/>
      <point x="226" y="813"/>
      <point x="183" y="820" type="curve" smooth="yes"/>
      <point x="140" y="827"/>
      <point x="103" y="835"/>
      <point x="60" y="850" type="curve"/>
      <point x="84" y="971" type="line"/>
      <point x="176" y="932"/>
      <point x="236" y="916"/>
      <point x="308" y="916" type="curve" smooth="yes"/>
      <point x="380" y="916"/>
      <point x="439" y="931"/>
      <point x="482" y="962" type="curve" smooth="yes"/>
      <point x="527" y="994"/>
      <point x="547" y="1036"/>
      <point x="547" y="1087" type="curve" smooth="yes"/>
      <point x="547" y="1175"/>
      <point x="490" y="1217"/>
      <point x="373" y="1217" type="curve" smooth="yes"/>
      <point x="301" y="1217" type="line"/>
      <point x="322" y="1323" type="line"/>
      <point x="394" y="1323" type="line" smooth="yes"/>
      <point x="525" y="1323"/>
      <point x="609" y="1383"/>
      <point x="609" y="1466" type="curve" smooth="yes"/>
      <point x="609" y="1537"/>
      <point x="555" y="1555"/>
      <point x="512" y="1563" type="curve" smooth="yes"/>
      <point x="491" y="1567"/>
      <point x="467" y="1569"/>
      <point x="440" y="1569" type="curve" smooth="yes"/>
      <point x="376" y="1569"/>
      <point x="314" y="1555"/>
      <point x="234" y="1526" type="curve"/>
      <point x="256" y="1641" type="line"/>
      <point x="303" y="1652"/>
      <point x="347" y="1660"/>
      <point x="388" y="1667" type="curve" smooth="yes"/>
      <point x="429" y="1673"/>
      <point x="467" y="1676"/>
      <point x="503" y="1676" type="curve" smooth="yes"/>
      <point x="580" y="1676"/>
      <point x="644" y="1661"/>
      <point x="691" y="1626" type="curve" smooth="yes"/>
      <point x="734" y="1593"/>
      <point x="756" y="1546"/>
      <point x="756" y="1486" type="curve" smooth="yes"/>
      <point x="756" y="1433"/>
      <point x="737" y="1387"/>
      <point x="699" y="1348" type="curve" smooth="yes"/>
      <point x="663" y="1311"/>
      <point x="613" y="1284"/>
      <point x="545" y="1272" type="curve"/>
      <point x="593" y="1264"/>
      <point x="630" y="1245"/>
      <point x="656" y="1215" type="curve" smooth="yes"/>
      <point x="681" y="1186"/>
      <point x="695" y="1147"/>
      <point x="695" y="1095" type="curve" smooth="yes"/>
      <point x="695" y="926"/>
      <point x="546" y="809"/>
      <point x="313" y="809" type="curve" smooth="yes"/>
    </contour>
    <contour>
      <point x="47" y="612" type="line"/>
      <point x="1106" y="870" type="line"/>
      <point x="1133" y="762" type="line"/>
      <point x="70" y="504" type="line"/>
    </contour>
    <contour>
      <point x="799" y="-86" type="line"/>
      <point x="413" y="-86" type="line"/>
      <point x="436" y="35" type="line"/>
      <point x="901" y="565" type="line"/>
      <point x="1063" y="565" type="line"/>
      <point x="958" y="25" type="line"/>
      <point x="1075" y="25" type="line"/>
      <point x="1055" y="-86" type="line"/>
      <point x="936" y="-86" type="line"/>
      <point x="903" y="-270" type="line"/>
      <point x="764" y="-270" type="line"/>
    </contour>
    <contour>
      <point x="821" y="25" type="line"/>
      <point x="897" y="416" type="line"/>
      <point x="555" y="25" type="line"/>
    </contour>
  </outline>
</glyph>
<glyph name="Acircumflex" format="1">
  <advance width="1233"/>
  <unicode hex="00C2"/>
  <note>
	Acircumflex
  </note>
  <outline>
    <contour>
      <point x="704" y="1854" type="line"/>
      <point x="917" y="1854" type="line"/>
      <point x="1075" y="1588" type="line"/>
      <point x="942" y="1588" type="line"/>
      <point x="803" y="1766" type="line"/>
      <point x="594" y="1588" type="line"/>
      <point x="442" y="1588" type="line"/>
    </contour>
    <contour>
      <point x="639" y="1493" type="line"/>
      <point x="885" y="1493" type="line"/>
      <point x="1051" y="0" type="line"/>
      <point x="850" y="0" type="line"/>
      <point x="815" y="389" type="line"/>
      <point x="295" y="389" type="line"/>
      <point x="111" y="0" type="line"/>
      <point x="-106" y="0" type="line"/>
    </contour>
    <contour>
      <point x="801" y="551" type="line"/>
      <point x="735" y="1325" type="line"/>
      <point x="371" y="551" type="line"/>
    </contour>
  </outline>
</glyph>
<glyph name="Idieresis" format="1">
  <advance width="1233"/>
  <unicode hex="00CF"/>
  <note>
	Idieresis
  </note>
  <outline>
    <contour>
      <point x="506" y="1627" type="line" smooth="yes"/>
      <point x="486" y="1627"/>
      <point x="475" y="1640"/>
      <point x="479" y="1660" type="curve" smooth="yes"/>
      <point x="507" y="1803" type="line" smooth="yes"/>
      <point x="510" y="1821"/>
      <point x="520" y="1830"/>
      <point x="539" y="1830" type="curve" smooth="yes"/>
      <point x="683" y="1830" type="line" smooth="yes"/>
      <point x="701" y="1830"/>
      <point x="710" y="1822"/>
      <point x="710" y="1806" type="curve" smooth="yes"/>
      <point x="710" y="1802"/>
      <point x="710" y="1799"/>
      <point x="709" y="1797" type="curve"/>
      <point x="680" y="1654" type="line" smooth="yes"/>
      <point x="676" y="1636"/>
      <point x="665" y="1627"/>
      <point x="648" y="1627" type="curve" smooth="yes"/>
    </contour>
    <contour>
      <point x="897" y="1627" type="line" smooth="yes"/>
      <point x="877" y="1627"/>
      <point x="866" y="1640"/>
      <point x="870" y="1660" type="curve" smooth="yes"/>
      <point x="898" y="1803" type="line" smooth="yes"/>
      <point x="901" y="1821"/>
      <point x="911" y="1830"/>
      <point x="930" y="1830" type="curve" smooth="yes"/>
      <point x="1073" y="1830" type="line" smooth="yes"/>
      <point x="1093" y="1830"/>
      <point x="1104" y="1817"/>
      <point x="1100" y="1797" type="curve" smooth="yes"/>
      <point x="1072" y="1654" type="line" smooth="yes"/>
      <point x="1069" y="1636"/>
      <point x="1058" y="1627"/>
      <point x="1040" y="1627" type="curve" smooth="yes"/>
    </contour>
    <contour>
      <point x="90" y="170" type="line"/>
      <point x="403" y="170" type="line"/>
      <point x="627" y="1323" type="line"/>
      <point x="313" y="1323" type="line"/>
      <point x="346" y="1493" type="line"/>
      <point x="1176" y="1493" type="line"/>
      <point x="1143" y="1323" type="line"/>
      <point x="829" y="1323" type="line"/>
      <point x="606" y="170" type="line"/>
      <point x="920" y="170" type="line"/>
      <point x="887" y="0" type="line"/>
      <point x="57" y="0" type="line"/>
    </contour>
  </outline>
</glyph>
<glyph name="germandbls" format="1">
  <advance width="1233"/>
  <unicode hex="00DF"/>
  <note>
	germandbls
  </note>
  <outline>
    <contour>
      <point x="548" y="-29"/>
      <point x="510" y="-25"/>
      <point x="462" y="-16" type="curve" smooth="yes"/>
      <point x="407" y="-7"/>
      <point x="374" y="4"/>
      <point x="330" y="20" type="curve"/>
      <point x="360" y="184" type="line"/>
      <point x="437" y="141"/>
      <point x="531" y="119"/>
      <point x="623" y="119" type="curve" smooth="yes"/>
      <point x="710" y="119"/>
      <point x="779" y="140"/>
      <point x="830" y="182" type="curve" smooth="yes"/>
      <point x="878" y="222"/>
      <point x="905" y="277"/>
      <point x="905" y="348" type="curve" smooth="yes"/>
      <point x="905" y="389"/>
      <point x="897" y="418"/>
      <point x="878" y="445" type="curve" smooth="yes"/>
      <point x="855" y="478"/>
      <point x="822" y="506"/>
      <point x="766" y="549" type="curve" smooth="yes"/>
      <point x="705" y="596" type="line" smooth="yes"/>
      <point x="648" y="640"/>
      <point x="611" y="671"/>
      <point x="587" y="710" type="curve" smooth="yes"/>
      <point x="568" y="741"/>
      <point x="559" y="777"/>
      <point x="559" y="820" type="curve" smooth="yes"/>
      <point x="559" y="907"/>
      <point x="593" y="982"/>
      <point x="661" y="1046" type="curve" smooth="yes"/>
      <point x="724" y="1106"/>
      <point x="812" y="1153"/>
      <point x="940" y="1178" type="curve"/>
      <point x="943" y="1189"/>
      <point x="944" y="1197"/>
      <point x="945" y="1208" type="curve"/>
      <point x="946" y="1213"/>
      <point x="946" y="1217"/>
      <point x="946" y="1220" type="curve" smooth="yes"/>
      <point x="946" y="1223"/>
      <point x="946" y="1226"/>
      <point x="946" y="1227" type="curve" smooth="yes"/>
      <point x="946" y="1280"/>
      <point x="934" y="1328"/>
      <point x="895" y="1361" type="curve" smooth="yes"/>
      <point x="863" y="1388"/>
      <point x="814" y="1405"/>
      <point x="747" y="1405" type="curve" smooth="yes"/>
      <point x="671" y="1405"/>
      <point x="605" y="1383"/>
      <point x="558" y="1338" type="curve" smooth="yes"/>
      <point x="515" y="1297"/>
      <point x="480" y="1232"/>
      <point x="461" y="1133" type="curve" smooth="yes"/>
      <point x="242" y="0" type="line"/>
      <point x="55" y="0" type="line"/>
      <point x="276" y="1137" type="line" smooth="yes"/>
      <point x="303" y="1277"/>
      <point x="358" y="1384"/>
      <point x="438" y="1453" type="curve" smooth="yes"/>
      <point x="522" y="1525"/>
      <point x="631" y="1556"/>
      <point x="758" y="1556" type="curve" smooth="yes"/>
      <point x="879" y="1556"/>
      <point x="972" y="1527"/>
      <point x="1032" y="1476" type="curve" smooth="yes"/>
      <point x="1095" y="1423"/>
      <point x="1126" y="1345"/>
      <point x="1126" y="1244" type="curve" smooth="yes"/>
      <point x="1126" y="1225"/>
      <point x="1125" y="1202"/>
      <point x="1122" y="1179" type="curve" smooth="yes"/>
      <point x="1119" y="1156"/>
      <point x="1115" y="1132"/>
      <point x="1108" y="1108" type="curve"/>
      <point x="876" y="1080"/>
      <point x="733" y="984"/>
      <point x="733" y="857" type="curve" smooth="yes"/>
      <point x="733" y="829"/>
      <point x="739" y="809"/>
      <point x="754" y="788" type="curve" smooth="yes"/>
      <point x="773" y="761"/>
      <point x="794" y="744"/>
      <point x="834" y="713" type="curve" smooth="yes"/>
      <point x="885" y="674" type="line" smooth="yes"/>
      <point x="957" y="618"/>
      <point x="1010" y="574"/>
      <point x="1041" y="523" type="curve" smooth="yes"/>
      <point x="1068" y="480"/>
      <point x="1081" y="427"/>
      <point x="1081" y="364" type="curve" smooth="yes"/>
      <point x="1081" y="252"/>
      <point x="1041" y="154"/>
      <point x="952" y="79" type="curve" smooth="yes"/>
      <point x="868" y="8"/>
      <point x="752" y="-29"/>
      <point x="599" y="-29" type="curve" smooth="yes"/>
    </contour>
  </outline>
</glyph>
<glyph name="ae" format="1">
  <advance width="1233"/>
  <unicode hex="00E6"/>
  <note>
	ae
  </note>
  <outline>
    <contour>
      <point x="143" y="-29"/>
      <point x="72" y="0"/>
      <point x="28" y="43" type="curve" smooth="yes"/>
      <point x="-27" y="94"/>
      <point x="-47" y="168"/>
      <point x="-47" y="252" type="curve" smooth="yes"/>
      <point x="-47" y="368"/>
      <point x="-7" y="476"/>
      <point x="74" y="549" type="curve" smooth="yes"/>
      <point x="154" y="621"/>
      <point x="269" y="657"/>
      <point x="418" y="657" type="curve" smooth="yes"/>
      <point x="535" y="657" type="line"/>
      <point x="553" y="745" type="line" smooth="yes"/>
      <point x="557" y="764"/>
      <point x="558" y="770"/>
      <point x="559" y="787" type="curve" smooth="yes"/>
      <point x="560" y="802"/>
      <point x="561" y="817"/>
      <point x="561" y="832" type="curve" smooth="yes"/>
      <point x="561" y="888"/>
      <point x="546" y="926"/>
      <point x="519" y="953" type="curve" smooth="yes"/>
      <point x="494" y="978"/>
      <point x="453" y="995"/>
      <point x="400" y="995" type="curve" smooth="yes"/>
      <point x="364" y="995"/>
      <point x="324" y="987"/>
      <point x="284" y="974" type="curve" smooth="yes"/>
      <point x="241" y="959"/>
      <point x="190" y="938"/>
      <point x="141" y="911" type="curve"/>
      <point x="176" y="1079" type="line"/>
      <point x="235" y="1104"/>
      <point x="279" y="1119"/>
      <point x="324" y="1130" type="curve" smooth="yes"/>
      <point x="371" y="1141"/>
      <point x="411" y="1147"/>
      <point x="450" y="1147" type="curve" smooth="yes"/>
      <point x="558" y="1147"/>
      <point x="637" y="1102"/>
      <point x="680" y="1018" type="curve"/>
      <point x="711" y="1057"/>
      <point x="753" y="1091"/>
      <point x="800" y="1114" type="curve" smooth="yes"/>
      <point x="848" y="1137"/>
      <point x="901" y="1147"/>
      <point x="950" y="1147" type="curve" smooth="yes"/>
      <point x="1029" y="1147"/>
      <point x="1095" y="1122"/>
      <point x="1143" y="1070" type="curve" smooth="yes"/>
      <point x="1190" y="1019"/>
      <point x="1214" y="947"/>
      <point x="1214" y="867" type="curve" smooth="yes"/>
      <point x="1214" y="839"/>
      <point x="1211" y="799"/>
      <point x="1206" y="760" type="curve" smooth="yes"/>
      <point x="1205" y="753"/>
      <point x="1203" y="743"/>
      <point x="1202" y="730" type="curve"/>
      <point x="1198" y="704"/>
      <point x="1192" y="673"/>
      <point x="1187" y="644" type="curve" smooth="yes"/>
      <point x="1184" y="629"/>
      <point x="1182" y="616"/>
      <point x="1180" y="604" type="curve" smooth="yes"/>
      <point x="1163" y="514" type="line"/>
      <point x="668" y="514" type="line"/>
      <point x="652" y="438"/>
      <point x="646" y="403"/>
      <point x="641" y="368" type="curve" smooth="yes"/>
      <point x="636" y="331"/>
      <point x="633" y="308"/>
      <point x="633" y="285" type="curve" smooth="yes"/>
      <point x="633" y="230"/>
      <point x="651" y="190"/>
      <point x="682" y="163" type="curve" smooth="yes"/>
      <point x="715" y="134"/>
      <point x="759" y="119"/>
      <point x="815" y="119" type="curve" smooth="yes"/>
      <point x="907" y="119"/>
      <point x="1009" y="159"/>
      <point x="1081" y="227" type="curve"/>
      <point x="1047" y="55" type="line"/>
      <point x="1010" y="28"/>
      <point x="962" y="5"/>
      <point x="922" y="-8" type="curve" smooth="yes"/>
      <point x="879" y="-22"/>
      <point x="833" y="-29"/>
      <point x="785" y="-29" type="curve" smooth="yes"/>
      <point x="714" y="-29"/>
      <point x="653" y="-14"/>
      <point x="608" y="13" type="curve" smooth="yes"/>
      <point x="563" y="40"/>
      <point x="530" y="80"/>
      <point x="514" y="131" type="curve"/>
      <point x="483" y="78"/>
      <point x="444" y="38"/>
      <point x="397" y="11" type="curve" smooth="yes"/>
      <point x="350" y="-16"/>
      <point x="294" y="-29"/>
      <point x="234" y="-29" type="curve" smooth="yes"/>
    </contour>
    <contour>
      <point x="1024" y="657" type="line"/>
      <point x="1040" y="731" type="line" smooth="yes"/>
      <point x="1045" y="754"/>
      <point x="1048" y="774"/>
      <point x="1049" y="786" type="curve" smooth="yes"/>
      <point x="1050" y="801"/>
      <point x="1051" y="829"/>
      <point x="1051" y="844" type="curve" smooth="yes"/>
      <point x="1051" y="896"/>
      <point x="1039" y="932"/>
      <point x="1016" y="957" type="curve" smooth="yes"/>
      <point x="994" y="982"/>
      <point x="963" y="995"/>
      <point x="922" y="995" type="curve" smooth="yes"/>
      <point x="875" y="995"/>
      <point x="827" y="979"/>
      <point x="788" y="932" type="curve" smooth="yes"/>
      <point x="749" y="885"/>
      <point x="730" y="824"/>
      <point x="711" y="739" type="curve" smooth="yes"/>
      <point x="694" y="657" type="line"/>
    </contour>
    <contour>
      <point x="322" y="123"/>
      <point x="367" y="146"/>
      <point x="401" y="191" type="curve" smooth="yes"/>
      <point x="418" y="215"/>
      <point x="434" y="245"/>
      <point x="448" y="286" type="curve" smooth="yes"/>
      <point x="462" y="326"/>
      <point x="474" y="377"/>
      <point x="487" y="442" type="curve" smooth="yes"/>
      <point x="502" y="514" type="line"/>
      <point x="453" y="514" type="line" smooth="yes"/>
      <point x="364" y="514"/>
      <point x="316" y="510"/>
      <point x="276" y="498" type="curve" smooth="yes"/>
      <point x="235" y="486"/>
      <point x="211" y="471"/>
      <point x="188" y="444" type="curve" smooth="yes"/>
      <point x="164" y="417"/>
      <point x="152" y="393"/>
      <point x="141" y="362" type="curve" smooth="yes"/>
      <point x="129" y="328"/>
      <point x="123" y="296"/>
      <point x="123" y="267" type="curve" smooth="yes"/>
      <point x="123" y="231"/>
      <point x="133" y="191"/>
      <point x="161" y="162" type="curve" smooth="yes"/>
      <point x="190" y="133"/>
      <point x="230" y="123"/>
      <point x="267" y="123" type="curve" smooth="yes"/>
    </contour>
  </outline>
</glyph>
<glyph name="idieresis" format="1">
  <advance width="1233"/>
  <unicode hex="00EF"/>
  <note>
	idieresis
  </note>
  <outline>
    <contour>
      <point x="380" y="1350" type="line" smooth="yes"/>
      <point x="360" y="1350"/>
      <point x="349" y="1363"/>
      <point x="353" y="1383" type="curve" smooth="yes"/>
      <point x="381" y="1525" type="line" smooth="yes"/>
      <point x="384" y="1543"/>
      <point x="394" y="1552"/>
      <point x="413" y="1552" type="curve" smooth="yes"/>
      <point x="556" y="1552" type="line" smooth="yes"/>
      <point x="576" y="1552"/>
      <point x="587" y="1539"/>
      <point x="583" y="1519" type="curve" smooth="yes"/>
      <point x="555" y="1377" type="line" smooth="yes"/>
      <point x="552" y="1359"/>
      <point x="541" y="1350"/>
      <point x="523" y="1350" type="curve" smooth="yes"/>
    </contour>
    <contour>
      <point x="771" y="1350" type="line" smooth="yes"/>
      <point x="751" y="1350"/>
      <point x="740" y="1363"/>
      <point x="744" y="1383" type="curve" smooth="yes"/>
      <point x="772" y="1525" type="line" smooth="yes"/>
      <point x="775" y="1543"/>
      <point x="785" y="1552"/>
      <point x="804" y="1552" type="curve" smooth="yes"/>
      <point x="947" y="1552" type="line" smooth="yes"/>
      <point x="967" y="1552"/>
      <point x="978" y="1539"/>
      <point x="974" y="1519" type="curve" smooth="yes"/>
      <point x="946" y="1377" type="line" smooth="yes"/>
      <point x="943" y="1359"/>
      <point x="932" y="1350"/>
      <point x="914" y="1350" type="curve" smooth="yes"/>
    </contour>
    <contour>
      <point x="749" y="-4" type="line" smooth="yes"/>
      <point x="517" y="-4"/>
      <point x="407" y="81"/>
      <point x="407" y="252" type="curve" smooth="yes"/>
      <point x="407" y="275"/>
      <point x="409" y="295"/>
      <point x="412" y="322" type="curve" smooth="yes"/>
      <point x="415" y="349"/>
      <point x="419" y="379"/>
      <point x="426" y="408" type="curve" smooth="yes"/>
      <point x="559" y="976" type="line"/>
      <point x="313" y="976" type="line"/>
      <point x="342" y="1120" type="line"/>
      <point x="772" y="1120" type="line"/>
      <point x="610" y="404" type="line" smooth="yes"/>
      <point x="605" y="383"/>
      <point x="601" y="353"/>
      <point x="600" y="342" type="curve"/>
      <point x="597" y="321"/>
      <point x="596" y="310"/>
      <point x="596" y="297" type="curve" smooth="yes"/>
      <point x="596" y="198"/>
      <point x="655" y="152"/>
      <point x="776" y="152" type="curve" smooth="yes"/>
      <point x="987" y="152" type="line"/>
      <point x="956" y="-4" type="line"/>
    </contour>
  </outline>
</glyph>
<glyph name="eth" format="1">
  <advance width="1233"/>
  <unicode hex="00F0"/>
  <note>
	eth
  </note>
  <outline>
    <contour>
      <point x="387" y="-29"/>
      <point x="289" y="7"/>
      <point x="221" y="79" type="curve" smooth="yes"/>
      <point x="149" y="155"/>
      <point x="119" y="258"/>
      <point x="119" y="389" type="curve" smooth="yes"/>
      <point x="119" y="472"/>
      <point x="132" y="555"/>
      <point x="157" y="637" type="curve" smooth="yes"/>
      <point x="184" y="725"/>
      <point x="227" y="808"/>
      <point x="266" y="864" type="curve" smooth="yes"/>
      <point x="317" y="939"/>
      <point x="381" y="996"/>
      <point x="458" y="1037" type="curve" smooth="yes"/>
      <point x="535" y="1078"/>
      <point x="622" y="1098"/>
      <point x="697" y="1098" type="curve" smooth="yes"/>
      <point x="709" y="1098"/>
      <point x="721" y="1098"/>
      <point x="732" y="1097" type="curve" smooth="yes"/>
      <point x="743" y="1096"/>
      <point x="757" y="1094"/>
      <point x="772" y="1093" type="curve" smooth="yes"/>
      <point x="805" y="1090" type="line"/>
      <point x="792" y="1115"/>
      <point x="777" y="1142"/>
      <point x="760" y="1171" type="curve" smooth="yes"/>
      <point x="757" y="1176"/>
      <point x="753" y="1182"/>
      <point x="748" y="1191" type="curve"/>
      <point x="738" y="1207"/>
      <point x="724" y="1226"/>
      <point x="711" y="1246" type="curve"/>
      <point x="704" y="1255"/>
      <point x="698" y="1264"/>
      <point x="692" y="1272" type="curve"/>
      <point x="395" y="1178" type="line"/>
      <point x="365" y="1270" type="line"/>
      <point x="639" y="1356" type="line"/>
      <point x="498" y="1556" type="line"/>
      <point x="711" y="1556" type="line"/>
      <point x="815" y="1411" type="line"/>
      <point x="1102" y="1499" type="line"/>
      <point x="1130" y="1407" type="line"/>
      <point x="870" y="1327" type="line"/>
      <point x="953" y="1212"/>
      <point x="1013" y="1104"/>
      <point x="1050" y="1007" type="curve" smooth="yes"/>
      <point x="1087" y="909"/>
      <point x="1106" y="807"/>
      <point x="1106" y="701" type="curve" smooth="yes"/>
      <point x="1106" y="616"/>
      <point x="1094" y="527"/>
      <point x="1069" y="440" type="curve" smooth="yes"/>
      <point x="1044" y="354"/>
      <point x="1008" y="276"/>
      <point x="961" y="207" type="curve" smooth="yes"/>
      <point x="905" y="126"/>
      <point x="847" y="71"/>
      <point x="771" y="31" type="curve" smooth="yes"/>
      <point x="695" y="-9"/>
      <point x="610" y="-29"/>
      <point x="516" y="-29" type="curve" smooth="yes"/>
    </contour>
    <contour>
      <point x="639" y="127"/>
      <point x="735" y="181"/>
      <point x="806" y="288" type="curve" smooth="yes"/>
      <point x="877" y="396"/>
      <point x="911" y="539"/>
      <point x="911" y="702" type="curve" smooth="yes"/>
      <point x="911" y="750"/>
      <point x="909" y="785"/>
      <point x="902" y="820" type="curve" smooth="yes"/>
      <point x="896" y="854"/>
      <point x="887" y="883"/>
      <point x="874" y="907" type="curve"/>
      <point x="825" y="932"/>
      <point x="770" y="944"/>
      <point x="714" y="944" type="curve" smooth="yes"/>
      <point x="589" y="944"/>
      <point x="492" y="886"/>
      <point x="424" y="789" type="curve" smooth="yes"/>
      <point x="387" y="736"/>
      <point x="359" y="672"/>
      <point x="341" y="605" type="curve" smooth="yes"/>
      <point x="323" y="537"/>
      <point x="313" y="466"/>
      <point x="313" y="398" type="curve" smooth="yes"/>
      <point x="313" y="309"/>
      <point x="327" y="239"/>
      <point x="370" y="192" type="curve" smooth="yes"/>
      <point x="405" y="153"/>
      <point x="461" y="127"/>
      <point x="534" y="127" type="curve" smooth="yes"/>
    </contour>
  </outline>
</glyph>
<glyph name="ntilde" format="1">
  <advance width="1233"/>
  <unicode hex="00F1"/>
  <note>
	ntilde
  </note>
  <outline>
    <contour>
      <point x="861" y="1297"/>
      <point x="836" y="1302"/>
      <point x="814" y="1312" type="curve" smooth="yes"/>
      <point x="794" y="1321"/>
      <point x="769" y="1337"/>
      <point x="741" y="1366" type="curve" smooth="yes"/>
      <point x="694" y="1415" type="line" smooth="yes"/>
      <point x="687" y="1422"/>
      <point x="671" y="1436"/>
      <point x="658" y="1443" type="curve" smooth="yes"/>
      <point x="647" y="1449"/>
      <point x="634" y="1452"/>
      <point x="621" y="1452" type="curve" smooth="yes"/>
      <point x="601" y="1452"/>
      <point x="577" y="1446"/>
      <point x="558" y="1415" type="curve"/>
      <point x="541" y="1390"/>
      <point x="531" y="1351"/>
      <point x="526" y="1299" type="curve"/>
      <point x="401" y="1299" type="line"/>
      <point x="422" y="1479"/>
      <point x="502" y="1581"/>
      <point x="622" y="1581" type="curve" smooth="yes"/>
      <point x="651" y="1581"/>
      <point x="676" y="1576"/>
      <point x="698" y="1566" type="curve" smooth="yes"/>
      <point x="721" y="1555"/>
      <point x="746" y="1536"/>
      <point x="770" y="1512" type="curve" smooth="yes"/>
      <point x="817" y="1465" type="line" smooth="yes"/>
      <point x="836" y="1446"/>
      <point x="839" y="1443"/>
      <point x="854" y="1435" type="curve" smooth="yes"/>
      <point x="865" y="1429"/>
      <point x="876" y="1426"/>
      <point x="888" y="1426" type="curve" smooth="yes"/>
      <point x="915" y="1426"/>
      <point x="938" y="1441"/>
      <point x="953" y="1465" type="curve" smooth="yes"/>
      <point x="968" y="1489"/>
      <point x="980" y="1529"/>
      <point x="985" y="1581" type="curve"/>
      <point x="1110" y="1581" type="line"/>
      <point x="1099" y="1497"/>
      <point x="1076" y="1422"/>
      <point x="1037" y="1371" type="curve" smooth="yes"/>
      <point x="998" y="1320"/>
      <point x="949" y="1297"/>
      <point x="890" y="1297" type="curve" smooth="yes"/>
    </contour>
    <contour>
      <point x="303" y="1120" type="line"/>
      <point x="467" y="1120" type="line"/>
      <point x="455" y="952" type="line"/>
      <point x="504" y="1016"/>
      <point x="559" y="1065"/>
      <point x="618" y="1098" type="curve" smooth="yes"/>
      <point x="675" y="1130"/>
      <point x="732" y="1147"/>
      <point x="807" y="1147" type="curve" smooth="yes"/>
      <point x="895" y="1147"/>
      <point x="968" y="1123"/>
      <point x="1019" y="1075" type="curve" smooth="yes"/>
      <point x="1070" y="1028"/>
      <point x="1096" y="957"/>
      <point x="1096" y="877" type="curve" smooth="yes"/>
      <point x="1096" y="854"/>
      <point x="1094" y="820"/>
      <point x="1091" y="793" type="curve" smooth="yes"/>
      <point x="1088" y="766"/>
      <point x="1084" y="741"/>
      <point x="1075" y="694" type="curve" smooth="yes"/>
      <point x="940" y="0" type="line"/>
      <point x="756" y="0" type="line"/>
      <point x="891" y="695" type="line"/>
      <point x="893" y="701"/>
      <point x="894" y="704"/>
      <point x="893" y="704" type="curve"/>
      <point x="892" y="703"/>
      <point x="893" y="705"/>
      <point x="894" y="709" type="curve"/>
      <point x="899" y="737"/>
      <point x="902" y="755"/>
      <point x="905" y="771" type="curve" smooth="yes"/>
      <point x="908" y="787"/>
      <point x="909" y="800"/>
      <point x="909" y="817" type="curve" smooth="yes"/>
      <point x="909" y="876"/>
      <point x="894" y="915"/>
      <point x="863" y="944" type="curve" smooth="yes"/>
      <point x="832" y="973"/>
      <point x="788" y="987"/>
      <point x="730" y="987" type="curve" smooth="yes"/>
      <point x="558" y="987"/>
      <point x="435" y="856"/>
      <point x="391" y="633" type="curve" smooth="yes"/>
      <point x="268" y="0" type="line"/>
      <point x="84" y="0" type="line"/>
    </contour>
  </outline>
</glyph>
<glyph name="ograve" format="1">
  <advance width="1233"/>
  <unicode hex="00F2"/>
  <note>
	ograve
  </note>
  <outline>
    <contour>
      <point x="453" y="1673" type="line"/>
      <point x="651" y="1673" type="line"/>
      <point x="848" y="1297" type="line"/>
      <point x="705" y="1297" type="line"/>
    </contour>
    <contour>
      <point x="387" y="-29"/>
      <point x="287" y="4"/>
      <point x="218" y="80" type="curve" smooth="yes"/>
      <point x="155" y="148"/>
      <point x="117" y="251"/>
      <point x="117" y="396" type="curve" smooth="yes"/>
      <point x="117" y="483"/>
      <point x="131" y="572"/>
      <point x="158" y="663" type="curve" smooth="yes"/>
      <point x="183" y="747"/>
      <point x="221" y="833"/>
      <point x="274" y="910" type="curve" smooth="yes"/>
      <point x="382" y="1067"/>
      <point x="529" y="1147"/>
      <point x="717" y="1147" type="curve" smooth="yes"/>
      <point x="838" y="1147"/>
      <point x="941" y="1113"/>
      <point x="1012" y="1040" type="curve" smooth="yes"/>
      <point x="1080" y="969"/>
      <point x="1114" y="864"/>
      <point x="1114" y="726" type="curve" smooth="yes"/>
      <point x="1114" y="636"/>
      <point x="1100" y="545"/>
      <point x="1073" y="453" type="curve" smooth="yes"/>
      <point x="1042" y="353"/>
      <point x="1001" y="270"/>
      <point x="958" y="207" type="curve" smooth="yes"/>
      <point x="902" y="126"/>
      <point x="842" y="69"/>
      <point x="766" y="30" type="curve" smooth="yes"/>
      <point x="690" y="-9"/>
      <point x="603" y="-29"/>
      <point x="510" y="-29" type="curve" smooth="yes"/>
    </contour>
    <contour>
      <point x="649" y="127"/>
      <point x="744" y="190"/>
      <point x="812" y="298" type="curve" smooth="yes"/>
      <point x="848" y="354"/>
      <point x="875" y="421"/>
      <point x="893" y="493" type="curve" smooth="yes"/>
      <point x="911" y="565"/>
      <point x="920" y="642"/>
      <point x="920" y="718" type="curve" smooth="yes"/>
      <point x="920" y="814"/>
      <point x="905" y="880"/>
      <point x="864" y="927" type="curve" smooth="yes"/>
      <point x="824" y="972"/>
      <point x="767" y="991"/>
      <point x="702" y="991" type="curve" smooth="yes"/>
      <point x="582" y="991"/>
      <point x="490" y="928"/>
      <point x="422" y="820" type="curve" smooth="yes"/>
      <point x="355" y="715"/>
      <point x="313" y="563"/>
      <point x="313" y="402" type="curve" smooth="yes"/>
      <point x="313" y="306"/>
      <point x="328" y="238"/>
      <point x="369" y="191" type="curve" smooth="yes"/>
      <point x="408" y="148"/>
      <point x="466" y="127"/>
      <point x="533" y="127" type="curve" smooth="yes"/>
    </contour>
  </outline>
</glyph>
<glyph name="oslash" format="1">
  <advance width="1233"/>
  <unicode hex="00F8"/>
  <note>
	oslash
  </note>
  <outline>
    <contour>
      <point x="47" y="-20" type="line"/>
      <point x="176" y="133" type="line"/>
      <point x="157" y="165"/>
      <point x="142" y="202"/>
      <point x="133" y="245" type="curve" smooth="yes"/>
      <point x="124" y="288"/>
      <point x="119" y="334"/>
      <point x="119" y="391" type="curve" smooth="yes"/>
      <point x="119" y="483"/>
      <point x="132" y="575"/>
      <point x="159" y="666" type="curve" smooth="yes"/>
      <point x="184" y="750"/>
      <point x="223" y="839"/>
      <point x="274" y="912" type="curve" smooth="yes"/>
      <point x="325" y="985"/>
      <point x="391" y="1050"/>
      <point x="467" y="1089" type="curve" smooth="yes"/>
      <point x="542" y="1128"/>
      <point x="628" y="1147"/>
      <point x="724" y="1147" type="curve" smooth="yes"/>
      <point x="829" y="1147"/>
      <point x="906" y="1123"/>
      <point x="969" y="1075" type="curve"/>
      <point x="1081" y="1212" type="line"/>
      <point x="1174" y="1135" type="line"/>
      <point x="1051" y="989" type="line"/>
      <point x="1074" y="954"/>
      <point x="1090" y="912"/>
      <point x="1099" y="875" type="curve" smooth="yes"/>
      <point x="1110" y="834"/>
      <point x="1114" y="781"/>
      <point x="1114" y="726" type="curve" smooth="yes"/>
      <point x="1114" y="636"/>
      <point x="1100" y="545"/>
      <point x="1073" y="453" type="curve" smooth="yes"/>
      <point x="1045" y="360"/>
      <point x="1005" y="276"/>
      <point x="958" y="207" type="curve" smooth="yes"/>
      <point x="902" y="126"/>
      <point x="842" y="69"/>
      <point x="766" y="30" type="curve" smooth="yes"/>
      <point x="691" y="-9"/>
      <point x="604" y="-29"/>
      <point x="507" y="-29" type="curve" smooth="yes"/>
      <point x="454" y="-29"/>
      <point x="414" y="-23"/>
      <point x="371" y="-10" type="curve" smooth="yes"/>
      <point x="334" y="1"/>
      <point x="297" y="17"/>
      <point x="258" y="45" type="curve"/>
      <point x="139" y="-96" type="line"/>
    </contour>
    <contour>
      <point x="852" y="938" type="line"/>
      <point x="833" y="955"/>
      <point x="809" y="971"/>
      <point x="784" y="979" type="curve" smooth="yes"/>
      <point x="760" y="987"/>
      <point x="730" y="991"/>
      <point x="701" y="991" type="curve" smooth="yes"/>
      <point x="584" y="991"/>
      <point x="490" y="928"/>
      <point x="422" y="820" type="curve" smooth="yes"/>
      <point x="354" y="712"/>
      <point x="313" y="559"/>
      <point x="313" y="388" type="curve" smooth="yes"/>
      <point x="313" y="361"/>
      <point x="314" y="353"/>
      <point x="315" y="340" type="curve" smooth="yes"/>
      <point x="316" y="327"/>
      <point x="317" y="319"/>
      <point x="318" y="314" type="curve"/>
      <point x="318" y="309"/>
      <point x="318" y="305"/>
      <point x="319" y="302" type="curve"/>
    </contour>
    <contour>
      <point x="645" y="127"/>
      <point x="739" y="184"/>
      <point x="811" y="299" type="curve" smooth="yes"/>
      <point x="878" y="404"/>
      <point x="920" y="550"/>
      <point x="920" y="725" type="curve" smooth="yes"/>
      <point x="920" y="752"/>
      <point x="919" y="770"/>
      <point x="918" y="782" type="curve" smooth="yes"/>
      <point x="917" y="795"/>
      <point x="915" y="810"/>
      <point x="911" y="825" type="curve"/>
      <point x="377" y="186" type="line"/>
      <point x="397" y="166"/>
      <point x="418" y="153"/>
      <point x="446" y="142" type="curve" smooth="yes"/>
      <point x="471" y="133"/>
      <point x="498" y="127"/>
      <point x="534" y="127" type="curve" smooth="yes"/>
    </contour>
  </outline>
</glyph>
<glyph name="ydieresis" format="1">
  <advance width="1233"/>
  <unicode hex="00FF"/>
  <note>
	ydieresis
  </note>
  <outline>
    <contour>
      <point x="509" y="1320" type="line" smooth="yes"/>
      <point x="489" y="1320"/>
      <point x="478" y="1333"/>
      <point x="482" y="1353" type="curve" smooth="yes"/>
      <point x="510" y="1495" type="line" smooth="yes"/>
      <point x="513" y="1513"/>
      <point x="523" y="1522"/>
      <point x="542" y="1522" type="curve" smooth="yes"/>
      <point x="685" y="1522" type="line" smooth="yes"/>
      <point x="705" y="1522"/>
      <point x="716" y="1509"/>
      <point x="712" y="1489" type="curve" smooth="yes"/>
      <point x="684" y="1347" type="line" smooth="yes"/>
      <point x="681" y="1329"/>
      <point x="670" y="1320"/>
      <point x="652" y="1320" type="curve" smooth="yes"/>
    </contour>
    <contour>
      <point x="900" y="1320" type="line" smooth="yes"/>
      <point x="880" y="1320"/>
      <point x="869" y="1333"/>
      <point x="873" y="1353" type="curve" smooth="yes"/>
      <point x="901" y="1495" type="line" smooth="yes"/>
      <point x="904" y="1513"/>
      <point x="914" y="1522"/>
      <point x="933" y="1522" type="curve" smooth="yes"/>
      <point x="1076" y="1522" type="line" smooth="yes"/>
      <point x="1096" y="1522"/>
      <point x="1107" y="1509"/>
      <point x="1103" y="1489" type="curve" smooth="yes"/>
      <point x="1075" y="1347" type="line" smooth="yes"/>
      <point x="1072" y="1329"/>
      <point x="1061" y="1320"/>
      <point x="1043" y="1320" type="curve" smooth="yes"/>
    </contour>
    <contour>
      <point x="20" y="-272" type="line"/>
      <point x="128" y="-272" type="line" smooth="yes"/>
      <point x="239" y="-272"/>
      <point x="311" y="-211"/>
      <point x="386" y="-66" type="curve" smooth="yes"/>
      <point x="429" y="18" type="line"/>
      <point x="212" y="1120" type="line"/>
      <point x="395" y="1120" type="line"/>
      <point x="567" y="258" type="line"/>
      <point x="1050" y="1120" type="line"/>
      <point x="1255" y="1120" type="line"/>
      <point x="816" y="360" type="line" smooth="yes"/>
      <point x="794" y="321"/>
      <point x="777" y="291"/>
      <point x="764" y="270" type="curve" smooth="yes"/>
      <point x="751" y="249"/>
      <point x="742" y="232"/>
      <point x="735" y="220" type="curve" smooth="yes"/>
      <point x="728" y="207"/>
      <point x="722" y="198"/>
      <point x="719" y="191" type="curve"/>
      <point x="711" y="178"/>
      <point x="703" y="163"/>
      <point x="687" y="135" type="curve" smooth="yes"/>
      <point x="678" y="120"/>
      <point x="666" y="99"/>
      <point x="651" y="72" type="curve" smooth="yes"/>
      <point x="583" y="-48"/>
      <point x="541" y="-121"/>
      <point x="511" y="-171" type="curve" smooth="yes"/>
      <point x="481" y="-221"/>
      <point x="462" y="-248"/>
      <point x="442" y="-275" type="curve" smooth="yes"/>
      <point x="406" y="-322"/>
      <point x="366" y="-362"/>
      <point x="310" y="-389" type="curve" smooth="yes"/>
      <point x="261" y="-414"/>
      <point x="204" y="-426"/>
      <point x="139" y="-426" type="curve" smooth="yes"/>
      <point x="-9" y="-426" type="line"/>
    </contour>
  </outline>
</glyph>
<glyph name="abreve" format="1">
  <advance width="1233"/>
  <unicode hex="0103"/>
  <note>
	abreve
  </note>
  <outline>
    <contour>
      <point x="568" y="1297"/>
      <point x="469" y="1386"/>
      <point x="469" y="1543" type="curve" smooth="yes"/>
      <point x="469" y="1566"/>
      <point x="469" y="1573"/>
      <point x="472" y="1584" type="curve"/>
      <point x="592" y="1584" type="line"/>
      <point x="592" y="1567" type="line" smooth="yes"/>
      <point x="592" y="1479"/>
      <point x="652" y="1434"/>
      <point x="761" y="1434" type="curve" smooth="yes"/>
      <point x="874" y="1434"/>
      <point x="940" y="1484"/>
      <point x="979" y="1584" type="curve"/>
      <point x="1098" y="1584" type="line"/>
      <point x="1054" y="1392"/>
      <point x="932" y="1297"/>
      <point x="747" y="1297" type="curve" smooth="yes"/>
    </contour>
    <contour>
      <point x="304" y="-29"/>
      <point x="221" y="1"/>
      <point x="163" y="55" type="curve" smooth="yes"/>
      <point x="105" y="109"/>
      <point x="72" y="187"/>
      <point x="72" y="283" type="curve" smooth="yes"/>
      <point x="72" y="408"/>
      <point x="127" y="514"/>
      <point x="227" y="589" type="curve" smooth="yes"/>
      <point x="326" y="664"/>
      <point x="469" y="707"/>
      <point x="645" y="707" type="curve" smooth="yes"/>
      <point x="891" y="707" type="line"/>
      <point x="903" y="768" type="line"/>
      <point x="906" y="780"/>
      <point x="907" y="794"/>
      <point x="907" y="807" type="curve" smooth="yes"/>
      <point x="907" y="932"/>
      <point x="821" y="991"/>
      <point x="665" y="991" type="curve" smooth="yes"/>
      <point x="548" y="991"/>
      <point x="416" y="957"/>
      <point x="268" y="889" type="curve"/>
      <point x="303" y="1069" type="line"/>
      <point x="448" y="1121"/>
      <point x="574" y="1147"/>
      <point x="693" y="1147" type="curve" smooth="yes"/>
      <point x="817" y="1147"/>
      <point x="916" y="1117"/>
      <point x="984" y="1065" type="curve" smooth="yes"/>
      <point x="1051" y="1012"/>
      <point x="1087" y="935"/>
      <point x="1087" y="839" type="curve" smooth="yes"/>
      <point x="1087" y="794"/>
      <point x="1079" y="723"/>
      <point x="1063" y="639" type="curve" smooth="yes"/>
      <point x="938" y="0" type="line"/>
      <point x="774" y="0" type="line"/>
      <point x="786" y="166" type="line"/>
      <point x="690" y="42"/>
      <point x="561" y="-29"/>
      <point x="404" y="-29" type="curve" smooth="yes"/>
    </contour>
    <contour>
      <point x="550" y="125"/>
      <point x="637" y="161"/>
      <point x="707" y="229" type="curve" smooth="yes"/>
      <point x="777" y="296"/>
      <point x="831" y="395"/>
      <point x="856" y="522" type="curve" smooth="yes"/>
      <point x="864" y="563" type="line"/>
      <point x="692" y="563" type="line" smooth="yes"/>
      <point x="617" y="563"/>
      <point x="562" y="561"/>
      <point x="519" y="556" type="curve" smooth="yes"/>
      <point x="475" y="551"/>
      <point x="442" y="542"/>
      <point x="414" y="530" type="curve" smooth="yes"/>
      <point x="323" y="491"/>
      <point x="264" y="411"/>
      <point x="264" y="307" type="curve" smooth="yes"/>
      <point x="264" y="195"/>
      <point x="334" y="125"/>
      <point x="461" y="125" type="curve" smooth="yes"/>
    </contour>
  </outline>
</glyph>
<glyph name="aogonek" format="1">
  <advance width="1233"/>
  <unicode hex="0105"/>
  <note>
	aogonek
  </note>
  <outline>
    <contour>
      <point x="868" y="0" type="line"/>
      <point x="787" y="-77"/>
      <point x="743" y="-144"/>
      <point x="743" y="-200" type="curve" smooth="yes"/>
      <point x="743" y="-247"/>
      <point x="775" y="-272"/>
      <point x="839" y="-272" type="curve" smooth="yes"/>
      <point x="878" y="-272"/>
      <point x="923" y="-262"/>
      <point x="966" y="-242" type="curve"/>
      <point x="941" y="-375" type="line"/>
      <point x="895" y="-388"/>
      <point x="849" y="-395"/>
      <point x="802" y="-395" type="curve" smooth="yes"/>
      <point x="671" y="-395"/>
      <point x="597" y="-338"/>
      <point x="597" y="-245" type="curve" smooth="yes"/>
      <point x="597" y="-170"/>
      <point x="645" y="-93"/>
      <point x="749" y="0" type="curve"/>
      <point x="754" y="0" type="line"/>
      <point x="786" y="166" type="line"/>
      <point x="690" y="42"/>
      <point x="561" y="-29"/>
      <point x="404" y="-29" type="curve" smooth="yes"/>
      <point x="304" y="-29"/>
      <point x="221" y="1"/>
      <point x="163" y="55" type="curve" smooth="yes"/>
      <point x="105" y="109"/>
      <point x="72" y="187"/>
      <point x="72" y="283" type="curve" smooth="yes"/>
      <point x="72" y="408"/>
      <point x="127" y="514"/>
      <point x="227" y="589" type="curve" smooth="yes"/>
      <point x="326" y="664"/>
      <point x="469" y="707"/>
      <point x="645" y="707" type="curve" smooth="yes"/>
      <point x="891" y="707" type="line"/>
      <point x="903" y="768" type="line"/>
      <point x="906" y="780"/>
      <point x="907" y="794"/>
      <point x="907" y="807" type="curve" smooth="yes"/>
      <point x="907" y="932"/>
      <point x="821" y="991"/>
      <point x="665" y="991" type="curve" smooth="yes"/>
      <point x="548" y="991"/>
      <point x="416" y="957"/>
      <point x="268" y="889" type="curve"/>
      <point x="303" y="1069" type="line"/>
      <point x="448" y="1121"/>
      <point x="574" y="1147"/>
      <point x="693" y="1147" type="curve" smooth="yes"/>
      <point x="817" y="1147"/>
      <point x="916" y="1117"/>
      <point x="984" y="1065" type="curve" smooth="yes"/>
      <point x="1051" y="1012"/>
      <point x="1087" y="935"/>
      <point x="1087" y="839" type="curve" smooth="yes"/>
      <point x="1087" y="794"/>
      <point x="1079" y="723"/>
      <point x="1063" y="639" type="curve" smooth="yes"/>
      <point x="938" y="0" type="line"/>
    </contour>
    <contour>
      <point x="550" y="125"/>
      <point x="637" y="161"/>
      <point x="707" y="229" type="curve" smooth="yes"/>
      <point x="777" y="296"/>
      <point x="831" y="395"/>
      <point x="856" y="522" type="curve" smooth="yes"/>
      <point x="864" y="563" type="line"/>
      <point x="692" y="563" type="line" smooth="yes"/>
      <point x="617" y="563"/>
      <point x="562" y="561"/>
      <point x="519" y="556" type="curve" smooth="yes"/>
      <point x="475" y="551"/>
      <point x="442" y="542"/>
      <point x="414" y="530" type="curve" smooth="yes"/>
      <point x="323" y="491"/>
      <point x="264" y="411"/>
      <point x="264" y="307" type="curve" smooth="yes"/>
      <point x="264" y="195"/>
      <point x="334" y="125"/>
      <point x="461" y="125" type="curve" smooth="yes"/>
    </contour>
  </outline>
</glyph>
<glyph name="ccircumflex" format="1">
  <advance width="1233"/>
  <unicode hex="0109"/>
  <note>
	ccircumflex
  </note>
  <outline>
    <contour>
      <point x="447" y="1297" type="line"/>
      <point x="767" y="1673" type="line"/>
      <point x="914" y="1673" type="line"/>
      <point x="1078" y="1297" type="line"/>
      <point x="945" y="1297" type="line"/>
      <point x="828" y="1538" type="line"/>
      <point x="603" y="1297" type="line"/>
    </contour>
    <contour>
      <point x="930" y="51" type="line"/>
      <point x="831" y="-2"/>
      <point x="720" y="-29"/>
      <point x="597" y="-29" type="curve" smooth="yes"/>
      <point x="302" y="-29"/>
      <point x="146" y="127"/>
      <point x="146" y="412" type="curve" smooth="yes"/>
      <point x="146" y="624"/>
      <point x="223" y="815"/>
      <point x="344" y="950" type="curve" smooth="yes"/>
      <point x="400" y="1014"/>
      <point x="473" y="1066"/>
      <point x="549" y="1098" type="curve"/>
      <point x="619" y="1131"/>
      <point x="701" y="1147"/>
      <point x="794" y="1147" type="curve" smooth="yes"/>
      <point x="911" y="1147"/>
      <point x="1022" y="1118"/>
      <point x="1127" y="1061" type="curve"/>
      <point x="1090" y="879" type="line"/>
      <point x="1003" y="956"/>
      <point x="912" y="991"/>
      <point x="800" y="991" type="curve" smooth="yes"/>
      <point x="651" y="991"/>
      <point x="538" y="932"/>
      <point x="459" y="813" type="curve" smooth="yes"/>
      <point x="386" y="705"/>
      <point x="340" y="551"/>
      <point x="340" y="418" type="curve" smooth="yes"/>
      <point x="340" y="224"/>
      <point x="432" y="127"/>
      <point x="615" y="127" type="curve" smooth="yes"/>
      <point x="739" y="127"/>
      <point x="864" y="172"/>
      <point x="969" y="252" type="curve"/>
    </contour>
  </outline>
</glyph>
<glyph name="cdotaccent" format="1">
  <advance width="1233"/>
  <unicode hex="010B"/>
  <note>
	cdotaccent
  </note>
  <outline>
    <contour>
      <point x="739" y="1348" type="line" smooth="yes"/>
      <point x="721" y="1348"/>
      <point x="712" y="1356"/>
      <point x="712" y="1372" type="curve" smooth="yes"/>
      <point x="712" y="1376"/>
      <point x="712" y="1379"/>
      <point x="713" y="1381" type="curve"/>
      <point x="742" y="1525" type="line" smooth="yes"/>
      <point x="745" y="1543"/>
      <point x="755" y="1552"/>
      <point x="774" y="1552" type="curve" smooth="yes"/>
      <point x="919" y="1552" type="line" smooth="yes"/>
      <point x="937" y="1552"/>
      <point x="946" y="1544"/>
      <point x="946" y="1528" type="curve" smooth="yes"/>
      <point x="946" y="1524"/>
      <point x="946" y="1521"/>
      <point x="945" y="1519" type="curve"/>
      <point x="916" y="1375" type="line" smooth="yes"/>
      <point x="912" y="1357"/>
      <point x="901" y="1348"/>
      <point x="884" y="1348" type="curve" smooth="yes"/>
    </contour>
    <contour>
      <point x="311" y="-29"/>
      <point x="156" y="121"/>
      <point x="156" y="414" type="curve" smooth="yes"/>
      <point x="156" y="514"/>
      <point x="175" y="613"/>
      <point x="209" y="705" type="curve" smooth="yes"/>
      <point x="243" y="797"/>
      <point x="291" y="881"/>
      <point x="354" y="950" type="curve" smooth="yes"/>
      <point x="471" y="1079"/>
      <point x="625" y="1147"/>
      <point x="805" y="1147" type="curve" smooth="yes"/>
      <point x="921" y="1147"/>
      <point x="1032" y="1118"/>
      <point x="1137" y="1061" type="curve"/>
      <point x="1100" y="879" type="line"/>
      <point x="1012" y="956"/>
      <point x="923" y="991"/>
      <point x="808" y="991" type="curve" smooth="yes"/>
      <point x="655" y="991"/>
      <point x="549" y="929"/>
      <point x="469" y="813" type="curve" smooth="yes"/>
      <point x="432" y="758"/>
      <point x="402" y="694"/>
      <point x="382" y="626" type="curve" smooth="yes"/>
      <point x="361" y="558"/>
      <point x="350" y="486"/>
      <point x="350" y="418" type="curve" smooth="yes"/>
      <point x="350" y="219"/>
      <point x="440" y="127"/>
      <point x="627" y="127" type="curve" smooth="yes"/>
      <point x="750" y="127"/>
      <point x="867" y="168"/>
      <point x="979" y="252" type="curve"/>
      <point x="940" y="51" type="line"/>
      <point x="843" y="-1"/>
      <point x="733" y="-29"/>
      <point x="606" y="-29" type="curve" smooth="yes"/>
    </contour>
  </outline>
</glyph>
<glyph name="Dcroat" format="1">
  <advance width="1233"/>
  <unicode hex="0110"/>
  <note>
	Dcroat
  </note>
  <outline>
    <contour>
      <point x="129" y="709" type="line"/>
      <point x="2" y="709" type="line"/>
      <point x="31" y="858" type="line"/>
      <point x="160" y="858" type="line"/>
      <point x="283" y="1493" type="line"/>
      <point x="586" y="1493" type="line" smooth="yes"/>
      <point x="955" y="1493"/>
      <point x="1130" y="1328"/>
      <point x="1130" y="983" type="curve" smooth="yes"/>
      <point x="1130" y="883"/>
      <point x="1116" y="773"/>
      <point x="1089" y="663" type="curve" smooth="yes"/>
      <point x="1062" y="553"/>
      <point x="1023" y="446"/>
      <point x="975" y="354" type="curve" smooth="yes"/>
      <point x="907" y="226"/>
      <point x="824" y="137"/>
      <point x="714" y="81" type="curve" smooth="yes"/>
      <point x="604" y="25"/>
      <point x="468" y="0"/>
      <point x="295" y="0" type="curve" smooth="yes"/>
      <point x="-8" y="0" type="line"/>
    </contour>
    <contour>
      <point x="324" y="166" type="line" smooth="yes"/>
      <point x="448" y="166"/>
      <point x="545" y="186"/>
      <point x="622" y="230" type="curve" smooth="yes"/>
      <point x="699" y="273"/>
      <point x="757" y="339"/>
      <point x="801" y="432" type="curve" smooth="yes"/>
      <point x="836" y="504"/>
      <point x="867" y="601"/>
      <point x="889" y="702" type="curve" smooth="yes"/>
      <point x="911" y="803"/>
      <point x="924" y="908"/>
      <point x="924" y="996" type="curve" smooth="yes"/>
      <point x="924" y="1115"/>
      <point x="899" y="1198"/>
      <point x="842" y="1251" type="curve" smooth="yes"/>
      <point x="785" y="1303"/>
      <point x="696" y="1327"/>
      <point x="567" y="1327" type="curve" smooth="yes"/>
      <point x="453" y="1327" type="line"/>
      <point x="362" y="858" type="line"/>
      <point x="629" y="858" type="line"/>
      <point x="600" y="709" type="line"/>
      <point x="334" y="709" type="line"/>
      <point x="227" y="166" type="line"/>
    </contour>
  </outline>
</glyph>
<glyph name="eogonek" format="1">
  <advance width="1233"/>
  <unicode hex="0119"/>
  <note>
	eogonek
  </note>
  <outline>
    <contour>
      <point x="297" y="516" type="line"/>
      <point x="289" y="473"/>
      <point x="285" y="441"/>
      <point x="285" y="406" type="curve" smooth="yes"/>
      <point x="285" y="229"/>
      <point x="388" y="127"/>
      <point x="584" y="127" type="curve" smooth="yes"/>
      <point x="704" y="127"/>
      <point x="844" y="164"/>
      <point x="997" y="240" type="curve"/>
      <point x="961" y="57" type="line"/>
      <point x="902" y="33"/>
      <point x="844" y="14"/>
      <point x="787" y="0" type="curve"/>
      <point x="706" y="-77"/>
      <point x="662" y="-144"/>
      <point x="662" y="-200" type="curve" smooth="yes"/>
      <point x="662" y="-247"/>
      <point x="694" y="-272"/>
      <point x="758" y="-272" type="curve" smooth="yes"/>
      <point x="797" y="-272"/>
      <point x="842" y="-262"/>
      <point x="885" y="-242" type="curve"/>
      <point x="860" y="-375" type="line"/>
      <point x="814" y="-388"/>
      <point x="768" y="-395"/>
      <point x="721" y="-395" type="curve" smooth="yes"/>
      <point x="590" y="-395"/>
      <point x="516" y="-338"/>
      <point x="516" y="-245" type="curve" smooth="yes"/>
      <point x="516" y="-177"/>
      <point x="556" y="-108"/>
      <point x="641" y="-25" type="curve"/>
      <point x="613" y="-28"/>
      <point x="584" y="-29"/>
      <point x="556" y="-29" type="curve" smooth="yes"/>
      <point x="253" y="-29"/>
      <point x="98" y="122"/>
      <point x="98" y="407" type="curve" smooth="yes"/>
      <point x="98" y="511"/>
      <point x="119" y="617"/>
      <point x="158" y="714" type="curve" smooth="yes"/>
      <point x="197" y="811"/>
      <point x="253" y="901"/>
      <point x="324" y="973" type="curve" smooth="yes"/>
      <point x="436" y="1089"/>
      <point x="570" y="1149"/>
      <point x="719" y="1149" type="curve" smooth="yes"/>
      <point x="842" y="1149"/>
      <point x="943" y="1107"/>
      <point x="1015" y="1035" type="curve" smooth="yes"/>
      <point x="1086" y="962"/>
      <point x="1126" y="856"/>
      <point x="1126" y="731" type="curve" smooth="yes"/>
      <point x="1126" y="683"/>
      <point x="1120" y="620"/>
      <point x="1104" y="516" type="curve"/>
    </contour>
    <contour>
      <point x="620" y="991"/>
      <point x="541" y="959"/>
      <point x="477" y="901" type="curve" smooth="yes"/>
      <point x="412" y="843"/>
      <point x="361" y="759"/>
      <point x="332" y="659" type="curve"/>
      <point x="938" y="659" type="line"/>
      <point x="946" y="695"/>
      <point x="948" y="716"/>
      <point x="948" y="739" type="curve" smooth="yes"/>
      <point x="948" y="818"/>
      <point x="925" y="881"/>
      <point x="883" y="925" type="curve" smooth="yes"/>
      <point x="841" y="968"/>
      <point x="780" y="991"/>
      <point x="707" y="991" type="curve" smooth="yes"/>
    </contour>
  </outline>
</glyph>
<glyph name="iogonek" format="1">
  <advance width="1233"/>
  <unicode hex="012F"/>
  <note>
	iogonek
  </note>
  <outline>
    <contour>
      <point x="631" y="1323" type="line" smooth="yes"/>
      <point x="611" y="1323"/>
      <point x="600" y="1336"/>
      <point x="604" y="1356" type="curve" smooth="yes"/>
      <point x="638" y="1529" type="line" smooth="yes"/>
      <point x="641" y="1547"/>
      <point x="651" y="1556"/>
      <point x="670" y="1556" type="curve" smooth="yes"/>
      <point x="794" y="1556" type="line" smooth="yes"/>
      <point x="814" y="1556"/>
      <point x="825" y="1543"/>
      <point x="821" y="1523" type="curve" smooth="yes"/>
      <point x="787" y="1350" type="line" smooth="yes"/>
      <point x="784" y="1332"/>
      <point x="773" y="1323"/>
      <point x="755" y="1323" type="curve" smooth="yes"/>
    </contour>
    <contour>
      <point x="774" y="-4" type="line"/>
      <point x="706" y="-73"/>
      <point x="669" y="-133"/>
      <point x="669" y="-184" type="curve" smooth="yes"/>
      <point x="669" y="-231"/>
      <point x="701" y="-256"/>
      <point x="765" y="-256" type="curve" smooth="yes"/>
      <point x="804" y="-256"/>
      <point x="849" y="-246"/>
      <point x="892" y="-226" type="curve"/>
      <point x="867" y="-359" type="line"/>
      <point x="821" y="-372"/>
      <point x="775" y="-379"/>
      <point x="728" y="-379" type="curve" smooth="yes"/>
      <point x="597" y="-379"/>
      <point x="523" y="-322"/>
      <point x="523" y="-229" type="curve" smooth="yes"/>
      <point x="523" y="-158"/>
      <point x="566" y="-86"/>
      <point x="659" y="1" type="curve"/>
      <point x="514" y="20"/>
      <point x="407" y="81"/>
      <point x="407" y="252" type="curve" smooth="yes"/>
      <point x="407" y="275"/>
      <point x="409" y="295"/>
      <point x="412" y="322" type="curve" smooth="yes"/>
      <point x="415" y="349"/>
      <point x="419" y="377"/>
      <point x="426" y="408" type="curve" smooth="yes"/>
      <point x="559" y="976" type="line"/>
      <point x="313" y="976" type="line"/>
      <point x="342" y="1120" type="line"/>
      <point x="772" y="1120" type="line"/>
      <point x="610" y="404" type="line" smooth="yes"/>
      <point x="605" y="383"/>
      <point x="601" y="354"/>
      <point x="600" y="342" type="curve" smooth="yes"/>
      <point x="599" y="331"/>
      <point x="598" y="322"/>
      <point x="597" y="317" type="curve" smooth="yes"/>
      <point x="596" y="311"/>
      <point x="596" y="305"/>
      <point x="596" y="298" type="curve" smooth="yes"/>
      <point x="596" y="198"/>
      <point x="655" y="152"/>
      <point x="776" y="152" type="curve" smooth="yes"/>
      <point x="987" y="152" type="line"/>
      <point x="956" y="-4" type="line"/>
    </contour>
  </outline>
</glyph>
<glyph name="IJ" format="1">
  <advance width="1233"/>
  <unicode hex="0132"/>
  <outline>
    <contour>
      <point x="-61" y="170" type="line"/>
      <point x="72" y="170" type="line"/>
      <point x="296" y="1323" type="line"/>
      <point x="163" y="1323" type="line"/>
      <point x="196" y="1493" type="line"/>
      <point x="665" y="1493" type="line"/>
      <point x="632" y="1323" type="line"/>
      <point x="499" y="1323" type="line"/>
      <point x="275" y="170" type="line"/>
      <point x="408" y="170" type="line"/>
      <point x="375" y="0" type="line"/>
      <point x="-94" y="0" type="line"/>
    </contour>
    <contour>
      <point x="633" y="-24"/>
      <point x="596" y="-18"/>
      <point x="494" y="61" type="curve"/>
      <point x="540" y="297" type="line"/>
      <point x="634" y="181"/>
      <point x="661" y="135"/>
      <point x="798" y="135" type="curve" smooth="yes"/>
      <point x="896" y="135"/>
      <point x="955" y="248"/>
      <point x="1002" y="487" type="curve" smooth="yes"/>
      <point x="1164" y="1323" type="line"/>
      <point x="843" y="1323" type="line"/>
      <point x="876" y="1493" type="line"/>
      <point x="1399" y="1493" type="line"/>
      <point x="1204" y="487" type="line" smooth="yes"/>
      <point x="1136" y="136"/>
      <point x="1022" y="-24"/>
      <point x="770" y="-24" type="curve" smooth="yes"/>
    </contour>
  </outline>
</glyph>
<glyph name="ij" format="1">
  <advance width="1233"/>
  <unicode hex="0133"/>
  <outline>
    <contour>
      <point x="349" y="1323" type="line" smooth="yes"/>
      <point x="329" y="1323"/>
      <point x="321" y="1333"/>
      <point x="325" y="1353" type="curve" smooth="yes"/>
      <point x="359" y="1526" type="line" smooth="yes"/>
      <point x="363" y="1546"/>
      <point x="375" y="1556"/>
      <point x="395" y="1556" type="curve" smooth="yes"/>
      <point x="539" y="1556" type="line" smooth="yes"/>
      <point x="559" y="1556"/>
      <point x="567" y="1546"/>
      <point x="563" y="1526" type="curve" smooth="yes"/>
      <point x="529" y="1353" type="line" smooth="yes"/>
      <point x="525" y="1333"/>
      <point x="513" y="1323"/>
      <point x="493" y="1323" type="curve" smooth="yes"/>
    </contour>
    <contour>
      <point x="290" y="1120" type="line"/>
      <point x="474" y="1120" type="line"/>
      <point x="256" y="0" type="line"/>
      <point x="72" y="0" type="line"/>
    </contour>
    <contour>
      <point x="1036" y="1323" type="line" smooth="yes"/>
      <point x="1016" y="1323"/>
      <point x="1008" y="1333"/>
      <point x="1012" y="1353" type="curve" smooth="yes"/>
      <point x="1046" y="1526" type="line" smooth="yes"/>
      <point x="1050" y="1546"/>
      <point x="1062" y="1556"/>
      <point x="1082" y="1556" type="curve" smooth="yes"/>
      <point x="1226" y="1556" type="line" smooth="yes"/>
      <point x="1246" y="1556"/>
      <point x="1254" y="1546"/>
      <point x="1250" y="1526" type="curve" smooth="yes"/>
      <point x="1216" y="1353" type="line" smooth="yes"/>
      <point x="1212" y="1333"/>
      <point x="1200" y="1323"/>
      <point x="1180" y="1323" type="curve" smooth="yes"/>
    </contour>
    <contour>
      <point x="204" y="-270" type="line"/>
      <point x="527" y="-270" type="line" smooth="yes"/>
      <point x="647" y="-270"/>
      <point x="723" y="-187"/>
      <point x="755" y="-20" type="curve" smooth="yes"/>
      <point x="949" y="977" type="line"/>
      <point x="682" y="977" type="line"/>
      <point x="710" y="1120" type="line"/>
      <point x="1161" y="1120" type="line"/>
      <point x="939" y="-20" type="line" smooth="yes"/>
      <point x="915" y="-147"/>
      <point x="866" y="-249"/>
      <point x="792" y="-321" type="curve" smooth="yes"/>
      <point x="718" y="-393"/>
      <point x="624" y="-426"/>
      <point x="516" y="-426" type="curve" smooth="yes"/>
      <point x="173" y="-426" type="line"/>
    </contour>
  </outline>
</glyph>
<glyph name="uni0137" format="1">
  <advance width="1233"/>
  <unicode hex="0137"/>
  <note>
	uni0137
  </note>
  <outline>
    <contour>
      <point x="393" y="1556" type="line"/>
      <point x="584" y="1556" type="line"/>
      <point x="414" y="682" type="line"/>
      <point x="963" y="1120" type="line"/>
      <point x="1204" y="1120" type="line"/>
      <point x="684" y="698" type="line"/>
      <point x="1057" y="0" type="line"/>
      <point x="844" y="0" type="line"/>
      <point x="537" y="582" type="line"/>
      <point x="369" y="449" type="line"/>
      <point x="281" y="0" type="line"/>
      <point x="90" y="0" type="line"/>
    </contour>
    <contour>
      <point x="477" y="-199" type="line"/>
      <point x="716" y="-199" type="line"/>
      <point x="462" y="-544" type="line"/>
      <point x="316" y="-544" type="line"/>
    </contour>
  </outline>
</glyph>
<glyph name="lacute" format="1">
  <advance width="1233"/>
  <unicode hex="013A"/>
  <note>
	lacute
  </note>
  <outline>
    <contour>
      <point x="889" y="1901" type="line"/>
      <point x="1097" y="1901" type="line"/>
      <point x="790" y="1637" type="line"/>
      <point x="630" y="1637" type="line"/>
    </contour>
    <contour>
      <point x="739" y="-8" type="line" smooth="yes"/>
      <point x="511" y="-8"/>
      <point x="397" y="76"/>
      <point x="397" y="245" type="curve" smooth="yes"/>
      <point x="397" y="290"/>
      <point x="405" y="349"/>
      <point x="416" y="404" type="curve" smooth="yes"/>
      <point x="627" y="1412" type="line"/>
      <point x="311" y="1412" type="line"/>
      <point x="340" y="1556" type="line"/>
      <point x="840" y="1556" type="line"/>
      <point x="600" y="400" type="line" smooth="yes"/>
      <point x="591" y="353"/>
      <point x="586" y="316"/>
      <point x="586" y="289" type="curve" smooth="yes"/>
      <point x="586" y="197"/>
      <point x="645" y="148"/>
      <point x="766" y="148" type="curve" smooth="yes"/>
      <point x="977" y="148" type="line"/>
      <point x="946" y="-8" type="line"/>
    </contour>
  </outline>
</glyph>
<glyph name="Ldot" format="1">
  <advance width="1233"/>
  <unicode hex="013F"/>
  <outline>
    <contour>
      <point x="640" y="576"/>
      <point x="583" y="645"/>
      <point x="602" y="745" type="curve" smooth="yes"/>
      <point x="621" y="845"/>
      <point x="706" y="914"/>
      <point x="797" y="914" type="curve" smooth="yes"/>
      <point x="888" y="914"/>
      <point x="945" y="845"/>
      <point x="926" y="745" type="curve" smooth="yes"/>
      <point x="907" y="645"/>
      <point x="822" y="576"/>
      <point x="731" y="576" type="curve" smooth="yes"/>
    </contour>
    <contour>
      <point x="368" y="1493" type="line"/>
      <point x="571" y="1493" type="line"/>
      <point x="314" y="170" type="line"/>
      <point x="1035" y="170" type="line"/>
      <point x="1002" y="0" type="line"/>
      <point x="78" y="0" type="line"/>
    </contour>
  </outline>
</glyph>
<glyph name="ldot" format="1">
  <advance width="1233"/>
  <unicode hex="0140"/>
  <outline>
    <contour>
      <point x="569" y="-8"/>
      <point x="491" y="23"/>
      <point x="441" y="98" type="curve" smooth="yes"/>
      <point x="394" y="169"/>
      <point x="383" y="269"/>
      <point x="409" y="398" type="curve" smooth="yes"/>
      <point x="606" y="1412" type="line"/>
      <point x="311" y="1412" type="line"/>
      <point x="339" y="1556" type="line"/>
      <point x="818" y="1556" type="line"/>
      <point x="593" y="398" type="line" smooth="yes"/>
      <point x="576" y="315"/>
      <point x="579" y="252"/>
      <point x="602" y="211" type="curve" smooth="yes"/>
      <point x="626" y="167"/>
      <point x="667" y="148"/>
      <point x="724" y="148" type="curve" smooth="yes"/>
      <point x="939" y="148" type="line"/>
      <point x="909" y="-8" type="line"/>
      <point x="676" y="-8" type="line" smooth="yes"/>
    </contour>
    <contour>
      <point x="840" y="540" type="line" smooth="yes"/>
      <point x="820" y="540"/>
      <point x="812" y="550"/>
      <point x="816" y="570" type="curve" smooth="yes"/>
      <point x="844" y="714" type="line" smooth="yes"/>
      <point x="848" y="734"/>
      <point x="860" y="744"/>
      <point x="880" y="744" type="curve" smooth="yes"/>
      <point x="1025" y="744" type="line" smooth="yes"/>
      <point x="1045" y="744"/>
      <point x="1053" y="734"/>
      <point x="1049" y="714" type="curve" smooth="yes"/>
      <point x="1021" y="570" type="line" smooth="yes"/>
      <point x="1017" y="550"/>
      <point x="1005" y="540"/>
      <point x="985" y="540" type="curve" smooth="yes"/>
    </contour>
  </outline>
</glyph>
<glyph name="Nacute" format="1">
  <advance width="1233"/>
  <unicode hex="0143"/>
  <note>
	Nacute
  </note>
  <outline>
    <contour>
      <point x="907" y="1866" type="line"/>
      <point x="1115" y="1866" type="line"/>
      <point x="808" y="1602" type="line"/>
      <point x="648" y="1602" type="line"/>
    </contour>
    <contour>
      <point x="285" y="1493" type="line"/>
      <point x="541" y="1493" type="line"/>
      <point x="805" y="264" type="line"/>
      <point x="1044" y="1493" type="line"/>
      <point x="1239" y="1493" type="line"/>
      <point x="948" y="0" type="line"/>
      <point x="692" y="0" type="line"/>
      <point x="428" y="1229" type="line"/>
      <point x="188" y="0" type="line"/>
      <point x="-6" y="0" type="line"/>
    </contour>
  </outline>
</glyph>
<glyph name="uni0145" format="1">
  <advance width="1233"/>
  <unicode hex="0145"/>
  <note>
	uni0145
  </note>
  <outline>
    <contour>
      <point x="285" y="1493" type="line"/>
      <point x="541" y="1493" type="line"/>
      <point x="805" y="264" type="line"/>
      <point x="1044" y="1493" type="line"/>
      <point x="1239" y="1493" type="line"/>
      <point x="948" y="0" type="line"/>
      <point x="692" y="0" type="line"/>
      <point x="428" y="1229" type="line"/>
      <point x="188" y="0" type="line"/>
      <point x="-6" y="0" type="line"/>
    </contour>
    <contour>
      <point x="375" y="-199" type="line"/>
      <point x="614" y="-199" type="line"/>
      <point x="360" y="-544" type="line"/>
      <point x="214" y="-544" type="line"/>
    </contour>
  </outline>
</glyph>
<glyph name="uni0146" format="1">
  <advance width="1233"/>
  <unicode hex="0146"/>
  <note>
	uni0146
  </note>
  <outline>
    <contour>
      <point x="303" y="1120" type="line"/>
      <point x="467" y="1120" type="line"/>
      <point x="455" y="952" type="line"/>
      <point x="559" y="1085"/>
      <point x="672" y="1147"/>
      <point x="809" y="1147" type="curve" smooth="yes"/>
      <point x="897" y="1147"/>
      <point x="969" y="1122"/>
      <point x="1019" y="1075" type="curve" smooth="yes"/>
      <point x="1069" y="1027"/>
      <point x="1096" y="959"/>
      <point x="1096" y="874" type="curve" smooth="yes"/>
      <point x="1096" y="827"/>
      <point x="1088" y="763"/>
      <point x="1075" y="694" type="curve" smooth="yes"/>
      <point x="940" y="0" type="line"/>
      <point x="756" y="0" type="line"/>
      <point x="891" y="695" type="line"/>
      <point x="892" y="698"/>
      <point x="893" y="703"/>
      <point x="894" y="709" type="curve"/>
      <point x="904" y="756"/>
      <point x="909" y="793"/>
      <point x="909" y="821" type="curve" smooth="yes"/>
      <point x="909" y="926"/>
      <point x="846" y="987"/>
      <point x="729" y="987" type="curve" smooth="yes"/>
      <point x="645" y="987"/>
      <point x="572" y="954"/>
      <point x="514" y="894" type="curve" smooth="yes"/>
      <point x="456" y="834"/>
      <point x="412" y="745"/>
      <point x="391" y="633" type="curve" smooth="yes"/>
      <point x="268" y="0" type="line"/>
      <point x="84" y="0" type="line"/>
    </contour>
    <contour>
      <point x="416" y="-199" type="line"/>
      <point x="655" y="-199" type="line"/>
      <point x="401" y="-544" type="line"/>
      <point x="255" y="-544" type="line"/>
    </contour>
  </outline>
</glyph>
<glyph name="Ncaron" format="1">
  <advance width="1233"/>
  <unicode hex="0147"/>
  <note>
	Ncaron
  </note>
  <outline>
    <contour>
      <point x="534" y="1861" type="line"/>
      <point x="670" y="1861" type="line"/>
      <point x="809" y="1683" type="line"/>
      <point x="1018" y="1861" type="line"/>
      <point x="1169" y="1861" type="line"/>
      <point x="905" y="1595" type="line"/>
      <point x="692" y="1595" type="line"/>
    </contour>
    <contour>
      <point x="285" y="1493" type="line"/>
      <point x="541" y="1493" type="line"/>
      <point x="805" y="264" type="line"/>
      <point x="1044" y="1493" type="line"/>
      <point x="1239" y="1493" type="line"/>
      <point x="948" y="0" type="line"/>
      <point x="692" y="0" type="line"/>
      <point x="428" y="1229" type="line"/>
      <point x="188" y="0" type="line"/>
      <point x="-6" y="0" type="line"/>
    </contour>
  </outline>
</glyph>
<glyph name="napostrophe" format="1">
  <advance width="1233"/>
  <unicode hex="0149"/>
  <outline>
    <contour>
      <point x="252" y="1350" type="line"/>
      <point x="292" y="1556" type="line"/>
      <point x="544" y="1556" type="line"/>
      <point x="504" y="1350" type="line"/>
      <point x="232" y="967" type="line"/>
      <point x="79" y="967" type="line"/>
    </contour>
    <contour>
      <point x="481" y="1120" type="line"/>
      <point x="647" y="1120" type="line"/>
      <point x="632" y="952" type="line"/>
      <point x="724" y="1081"/>
      <point x="848" y="1147"/>
      <point x="1001" y="1147" type="curve" smooth="yes"/>
      <point x="1121" y="1147"/>
      <point x="1195" y="1107"/>
      <point x="1236" y="1035" type="curve" smooth="yes"/>
      <point x="1278" y="960"/>
      <point x="1284" y="846"/>
      <point x="1254" y="694" type="curve" smooth="yes"/>
      <point x="1119" y="0" type="line"/>
      <point x="934" y="0" type="line"/>
      <point x="1069" y="694" type="line" smooth="yes"/>
      <point x="1108" y="895"/>
      <point x="1058" y="987"/>
      <point x="906" y="987" type="curve" smooth="yes"/>
      <point x="818" y="987"/>
      <point x="748" y="956"/>
      <point x="691" y="896" type="curve" smooth="yes"/>
      <point x="633" y="835"/>
      <point x="593" y="748"/>
      <point x="570" y="633" type="curve" smooth="yes"/>
      <point x="447" y="0" type="line"/>
      <point x="263" y="0" type="line"/>
    </contour>
  </outline>
</glyph>
<glyph name="omacron" format="1">
  <advance width="1233"/>
  <unicode hex="014D"/>
  <note>
	omacron
  </note>
  <outline>
    <contour>
      <point x="469" y="1495" type="line"/>
      <point x="1067" y="1495" type="line"/>
      <point x="1038" y="1347" type="line"/>
      <point x="440" y="1347" type="line"/>
    </contour>
    <contour>
      <point x="253" y="-29"/>
      <point x="117" y="121"/>
      <point x="117" y="392" type="curve" smooth="yes"/>
      <point x="117" y="481"/>
      <point x="132" y="576"/>
      <point x="159" y="666" type="curve" smooth="yes"/>
      <point x="186" y="756"/>
      <point x="226" y="840"/>
      <point x="274" y="911" type="curve" smooth="yes"/>
      <point x="382" y="1068"/>
      <point x="526" y="1147"/>
      <point x="717" y="1147" type="curve" smooth="yes"/>
      <point x="974" y="1147"/>
      <point x="1114" y="1004"/>
      <point x="1114" y="724" type="curve" smooth="yes"/>
      <point x="1114" y="637"/>
      <point x="1101" y="544"/>
      <point x="1074" y="456" type="curve" smooth="yes"/>
      <point x="1047" y="367"/>
      <point x="1009" y="280"/>
      <point x="958" y="207" type="curve" smooth="yes"/>
      <point x="851" y="52"/>
      <point x="707" y="-29"/>
      <point x="514" y="-29" type="curve" smooth="yes"/>
    </contour>
    <contour>
      <point x="613" y="127"/>
      <point x="687" y="162"/>
      <point x="746" y="219" type="curve" smooth="yes"/>
      <point x="805" y="275"/>
      <point x="848" y="353"/>
      <point x="877" y="439" type="curve" smooth="yes"/>
      <point x="906" y="525"/>
      <point x="920" y="619"/>
      <point x="920" y="707" type="curve" smooth="yes"/>
      <point x="920" y="906"/>
      <point x="850" y="991"/>
      <point x="709" y="991" type="curve" smooth="yes"/>
      <point x="620" y="991"/>
      <point x="546" y="956"/>
      <point x="487" y="900" type="curve" smooth="yes"/>
      <point x="428" y="843"/>
      <point x="385" y="766"/>
      <point x="356" y="680" type="curve" smooth="yes"/>
      <point x="327" y="594"/>
      <point x="313" y="499"/>
      <point x="313" y="411" type="curve" smooth="yes"/>
      <point x="313" y="212"/>
      <point x="383" y="127"/>
      <point x="524" y="127" type="curve" smooth="yes"/>
    </contour>
  </outline>
</glyph>
<glyph name="Ohungarumlaut" format="1">
  <advance width="1233"/>
  <unicode hex="0150"/>
  <note>
	Ohungarumlaut
  </note>
  <outline>
    <contour>
      <point x="766" y="1859" type="line"/>
      <point x="952" y="1859" type="line"/>
      <point x="672" y="1595" type="line"/>
      <point x="518" y="1595" type="line"/>
    </contour>
    <contour>
      <point x="1085" y="1859" type="line"/>
      <point x="1271" y="1859" type="line"/>
      <point x="991" y="1595" type="line"/>
      <point x="837" y="1595" type="line"/>
    </contour>
    <contour>
      <point x="215" y="-29"/>
      <point x="82" y="134"/>
      <point x="82" y="459" type="curve" smooth="yes"/>
      <point x="82" y="630"/>
      <point x="116" y="818"/>
      <point x="167" y="975" type="curve" smooth="yes"/>
      <point x="208" y="1104"/>
      <point x="256" y="1200"/>
      <point x="304" y="1272" type="curve" smooth="yes"/>
      <point x="416" y="1439"/>
      <point x="560" y="1520"/>
      <point x="751" y="1520" type="curve" smooth="yes"/>
      <point x="1019" y="1520"/>
      <point x="1151" y="1362"/>
      <point x="1151" y="1037" type="curve" smooth="yes"/>
      <point x="1151" y="957"/>
      <point x="1143" y="868"/>
      <point x="1128" y="779" type="curve" smooth="yes"/>
      <point x="1112" y="690"/>
      <point x="1091" y="600"/>
      <point x="1064" y="516" type="curve" smooth="yes"/>
      <point x="1024" y="391"/>
      <point x="976" y="292"/>
      <point x="927" y="219" type="curve" smooth="yes"/>
      <point x="814" y="48"/>
      <point x="667" y="-29"/>
      <point x="480" y="-29" type="curve" smooth="yes"/>
    </contour>
    <contour>
      <point x="562" y="135"/>
      <point x="617" y="154"/>
      <point x="662" y="188" type="curve" smooth="yes"/>
      <point x="707" y="222"/>
      <point x="745" y="270"/>
      <point x="778" y="333" type="curve" smooth="yes"/>
      <point x="811" y="396"/>
      <point x="841" y="473"/>
      <point x="865" y="557" type="curve" smooth="yes"/>
      <point x="889" y="640"/>
      <point x="910" y="728"/>
      <point x="923" y="816" type="curve" smooth="yes"/>
      <point x="936" y="903"/>
      <point x="944" y="987"/>
      <point x="944" y="1060" type="curve" smooth="yes"/>
      <point x="944" y="1148"/>
      <point x="933" y="1222"/>
      <point x="902" y="1274" type="curve" smooth="yes"/>
      <point x="870" y="1326"/>
      <point x="818" y="1356"/>
      <point x="734" y="1356" type="curve" smooth="yes"/>
      <point x="669" y="1356"/>
      <point x="615" y="1337"/>
      <point x="571" y="1304" type="curve" smooth="yes"/>
      <point x="526" y="1271"/>
      <point x="488" y="1220"/>
      <point x="455" y="1159" type="curve" smooth="yes"/>
      <point x="404" y="1064"/>
      <point x="364" y="939"/>
      <point x="334" y="808" type="curve" smooth="yes"/>
      <point x="304" y="676"/>
      <point x="287" y="541"/>
      <point x="287" y="432" type="curve" smooth="yes"/>
      <point x="287" y="340"/>
      <point x="299" y="265"/>
      <point x="331" y="214" type="curve" smooth="yes"/>
      <point x="363" y="163"/>
      <point x="416" y="135"/>
      <point x="497" y="135" type="curve" smooth="yes"/>
    </contour>
  </outline>
</glyph>
<glyph name="oe" format="1">
  <advance width="1233"/>
  <unicode hex="0153"/>
  <note>
	oe
  </note>
  <outline>
    <contour>
      <point x="101" y="-29"/>
      <point x="-6" y="85"/>
      <point x="-6" y="292" type="curve" smooth="yes"/>
      <point x="-6" y="327"/>
      <point x="-3" y="371"/>
      <point x="2" y="414" type="curve"/>
      <point x="3" y="431"/>
      <point x="7" y="456"/>
      <point x="11" y="482" type="curve" smooth="yes"/>
      <point x="13" y="495"/>
      <point x="15" y="508"/>
      <point x="18" y="521" type="curve"/>
      <point x="20" y="534"/>
      <point x="22" y="547"/>
      <point x="24" y="559" type="curve" smooth="yes"/>
      <point x="31" y="596"/>
      <point x="41" y="638"/>
      <point x="51" y="677" type="curve" smooth="yes"/>
      <point x="61" y="716"/>
      <point x="70" y="751"/>
      <point x="77" y="774" type="curve" smooth="yes"/>
      <point x="93" y="826"/>
      <point x="116" y="886"/>
      <point x="145" y="938" type="curve" smooth="yes"/>
      <point x="182" y="1005"/>
      <point x="227" y="1055"/>
      <point x="291" y="1094" type="curve" smooth="yes"/>
      <point x="352" y="1129"/>
      <point x="420" y="1147"/>
      <point x="495" y="1147" type="curve" smooth="yes"/>
      <point x="607" y="1147"/>
      <point x="691" y="1099"/>
      <point x="735" y="1020" type="curve"/>
      <point x="814" y="1105"/>
      <point x="904" y="1147"/>
      <point x="1008" y="1147" type="curve" smooth="yes"/>
      <point x="1090" y="1147"/>
      <point x="1154" y="1122"/>
      <point x="1201" y="1071" type="curve" smooth="yes"/>
      <point x="1248" y="1020"/>
      <point x="1272" y="948"/>
      <point x="1272" y="863" type="curve" smooth="yes"/>
      <point x="1272" y="828"/>
      <point x="1268" y="786"/>
      <point x="1264" y="754" type="curve" smooth="yes"/>
      <point x="1259" y="715"/>
      <point x="1250" y="657"/>
      <point x="1239" y="604" type="curve" smooth="yes"/>
      <point x="1223" y="514" type="line"/>
      <point x="721" y="514" type="line"/>
      <point x="714" y="483"/>
      <point x="710" y="462"/>
      <point x="706" y="440" type="curve" smooth="yes"/>
      <point x="702" y="418"/>
      <point x="699" y="396"/>
      <point x="695" y="368" type="curve"/>
      <point x="688" y="329"/>
      <point x="686" y="308"/>
      <point x="686" y="285" type="curve" smooth="yes"/>
      <point x="686" y="229"/>
      <point x="703" y="192"/>
      <point x="735" y="163" type="curve" smooth="yes"/>
      <point x="768" y="134"/>
      <point x="812" y="119"/>
      <point x="868" y="119" type="curve" smooth="yes"/>
      <point x="961" y="119"/>
      <point x="1060" y="159"/>
      <point x="1135" y="227" type="curve"/>
      <point x="1100" y="55" type="line"/>
      <point x="1055" y="24"/>
      <point x="1015" y="6"/>
      <point x="975" y="-7" type="curve" smooth="yes"/>
      <point x="932" y="-22"/>
      <point x="891" y="-29"/>
      <point x="839" y="-29" type="curve" smooth="yes"/>
      <point x="711" y="-29"/>
      <point x="618" y="20"/>
      <point x="573" y="104" type="curve"/>
      <point x="494" y="17"/>
      <point x="401" y="-29"/>
      <point x="288" y="-29" type="curve" smooth="yes"/>
    </contour>
    <contour>
      <point x="350" y="123"/>
      <point x="386" y="135"/>
      <point x="419" y="158" type="curve" smooth="yes"/>
      <point x="458" y="185"/>
      <point x="478" y="221"/>
      <point x="495" y="260" type="curve" smooth="yes"/>
      <point x="502" y="275"/>
      <point x="507" y="287"/>
      <point x="513" y="304" type="curve" smooth="yes"/>
      <point x="519" y="321"/>
      <point x="525" y="343"/>
      <point x="534" y="379" type="curve" smooth="yes"/>
      <point x="551" y="444"/>
      <point x="564" y="501"/>
      <point x="575" y="560" type="curve" smooth="yes"/>
      <point x="586" y="619"/>
      <point x="596" y="682"/>
      <point x="603" y="735" type="curve" smooth="yes"/>
      <point x="609" y="780"/>
      <point x="612" y="813"/>
      <point x="612" y="836" type="curve" smooth="yes"/>
      <point x="612" y="884"/>
      <point x="600" y="925"/>
      <point x="576" y="953" type="curve" smooth="yes"/>
      <point x="552" y="981"/>
      <point x="517" y="995"/>
      <point x="472" y="995" type="curve" smooth="yes"/>
      <point x="424" y="995"/>
      <point x="389" y="981"/>
      <point x="361" y="961" type="curve" smooth="yes"/>
      <point x="329" y="938"/>
      <point x="306" y="907"/>
      <point x="285" y="856" type="curve" smooth="yes"/>
      <point x="270" y="821"/>
      <point x="255" y="776"/>
      <point x="243" y="729" type="curve" smooth="yes"/>
      <point x="230" y="679"/>
      <point x="217" y="622"/>
      <point x="205" y="559" type="curve" smooth="yes"/>
      <point x="194" y="500"/>
      <point x="186" y="456"/>
      <point x="178" y="400" type="curve" smooth="yes"/>
      <point x="171" y="351"/>
      <point x="168" y="316"/>
      <point x="168" y="289" type="curve" smooth="yes"/>
      <point x="168" y="184"/>
      <point x="221" y="123"/>
      <point x="309" y="123" type="curve" smooth="yes"/>
    </contour>
    <contour>
      <point x="1083" y="653" type="line"/>
      <point x="1098" y="729" type="line" smooth="yes"/>
      <point x="1102" y="750"/>
      <point x="1106" y="777"/>
      <point x="1107" y="788" type="curve"/>
      <point x="1110" y="807"/>
      <point x="1110" y="825"/>
      <point x="1110" y="840" type="curve" smooth="yes"/>
      <point x="1110" y="884"/>
      <point x="1100" y="926"/>
      <point x="1077" y="953" type="curve" smooth="yes"/>
      <point x="1053" y="981"/>
      <point x="1017" y="991"/>
      <point x="980" y="991" type="curve" smooth="yes"/>
      <point x="923" y="991"/>
      <point x="880" y="967"/>
      <point x="847" y="926" type="curve" smooth="yes"/>
      <point x="807" y="877"/>
      <point x="780" y="807"/>
      <point x="768" y="735" type="curve" smooth="yes"/>
      <point x="754" y="653" type="line"/>
    </contour>
  </outline>
</glyph>
<glyph name="uni0157" format="1">
  <advance width="1233"/>
  <unicode hex="0157"/>
  <note>
	uni0157
  </note>
  <outline>
    <contour>
      <point x="434" y="1120" type="line"/>
      <point x="598" y="1120" type="line"/>
      <point x="578" y="901" type="line"/>
      <point x="667" y="1062"/>
      <point x="812" y="1147"/>
      <point x="992" y="1147" type="curve" smooth="yes"/>
      <point x="1089" y="1147"/>
      <point x="1165" y="1123"/>
      <point x="1219" y="1075" type="curve"/>
      <point x="1184" y="889" type="line"/>
      <point x="1124" y="949"/>
      <point x="1044" y="977"/>
      <point x="948" y="977" type="curve" smooth="yes"/>
      <point x="835" y="977"/>
      <point x="737" y="936"/>
      <point x="662" y="862" type="curve" smooth="yes"/>
      <point x="587" y="788"/>
      <point x="533" y="681"/>
      <point x="508" y="549" type="curve" smooth="yes"/>
      <point x="401" y="0" type="line"/>
      <point x="217" y="0" type="line"/>
    </contour>
    <contour>
      <point x="213" y="-199" type="line"/>
      <point x="452" y="-199" type="line"/>
      <point x="198" y="-544" type="line"/>
      <point x="52" y="-544" type="line"/>
    </contour>
  </outline>
</glyph>
<glyph name="Rcaron" format="1">
  <advance width="1233"/>
  <unicode hex="0158"/>
  <note>
	Rcaron
  </note>
  <outline>
    <contour>
      <point x="438" y="1861" type="line"/>
      <point x="574" y="1861" type="line"/>
      <point x="713" y="1683" type="line"/>
      <point x="922" y="1861" type="line"/>
      <point x="1073" y="1861" type="line"/>
      <point x="809" y="1595" type="line"/>
      <point x="596" y="1595" type="line"/>
    </contour>
    <contour>
      <point x="281" y="1493" type="line"/>
      <point x="697" y="1493" type="line" smooth="yes"/>
      <point x="973" y="1493"/>
      <point x="1131" y="1373"/>
      <point x="1131" y="1140" type="curve" smooth="yes"/>
      <point x="1131" y="1027"/>
      <point x="1094" y="925"/>
      <point x="1027" y="849" type="curve" smooth="yes"/>
      <point x="960" y="772"/>
      <point x="863" y="720"/>
      <point x="746" y="705" type="curve"/>
      <point x="793" y="697"/>
      <point x="835" y="671"/>
      <point x="862" y="638" type="curve" smooth="yes"/>
      <point x="890" y="602"/>
      <point x="923" y="529"/>
      <point x="959" y="408" type="curve" smooth="yes"/>
      <point x="1080" y="0" type="line"/>
      <point x="879" y="0" type="line"/>
      <point x="773" y="377" type="line" smooth="yes"/>
      <point x="744" y="481"/>
      <point x="714" y="545"/>
      <point x="674" y="582" type="curve" smooth="yes"/>
      <point x="634" y="619"/>
      <point x="583" y="631"/>
      <point x="510" y="631" type="curve" smooth="yes"/>
      <point x="318" y="631" type="line"/>
      <point x="195" y="0" type="line"/>
      <point x="-8" y="0" type="line"/>
    </contour>
    <contour>
      <point x="570" y="797" type="line" smooth="yes"/>
      <point x="678" y="797"/>
      <point x="769" y="827"/>
      <point x="831" y="883" type="curve" smooth="yes"/>
      <point x="893" y="938"/>
      <point x="928" y="1016"/>
      <point x="928" y="1112" type="curve" smooth="yes"/>
      <point x="928" y="1260"/>
      <point x="847" y="1327"/>
      <point x="666" y="1327" type="curve" smooth="yes"/>
      <point x="453" y="1327" type="line"/>
      <point x="351" y="797" type="line"/>
    </contour>
  </outline>
</glyph>
<glyph name="uni0162" format="1">
  <advance width="1233"/>
  <unicode hex="0162"/>
  <outline>
    <contour>
      <point x="532" y="-41"/>
      <point x="572" y="-79"/>
      <point x="584" y="-115" type="curve"/>
      <point x="593" y="-146"/>
      <point x="597" y="-179"/>
      <point x="590" y="-219" type="curve" smooth="yes"/>
      <point x="579" y="-272"/>
      <point x="550" y="-319"/>
      <point x="504" y="-350" type="curve" smooth="yes"/>
      <point x="459" y="-379"/>
      <point x="399" y="-395"/>
      <point x="316" y="-395" type="curve" smooth="yes"/>
      <point x="257" y="-395"/>
      <point x="199" y="-387"/>
      <point x="146" y="-371" type="curve"/>
      <point x="171" y="-240" type="line"/>
      <point x="192" y="-251"/>
      <point x="215" y="-260"/>
      <point x="239" y="-265" type="curve" smooth="yes"/>
      <point x="263" y="-270"/>
      <point x="293" y="-272"/>
      <point x="316" y="-272" type="curve" smooth="yes"/>
      <point x="401" y="-272"/>
      <point x="447" y="-239"/>
      <point x="458" y="-180" type="curve" smooth="yes"/>
      <point x="467" y="-137"/>
      <point x="466" y="-83"/>
      <point x="425" y="0" type="curve"/>
      <point x="503" y="0" type="line"/>
    </contour>
    <contour>
      <point x="629" y="1323" type="line"/>
      <point x="160" y="1323" type="line"/>
      <point x="193" y="1493" type="line"/>
      <point x="1332" y="1493" type="line"/>
      <point x="1299" y="1323" type="line"/>
      <point x="832" y="1323" type="line"/>
      <point x="575" y="0" type="line"/>
      <point x="372" y="0" type="line"/>
    </contour>
  </outline>
</glyph>
<glyph name="tcedilla" format="1">
  <advance width="1233"/>
  <unicode hex="0163"/>
  <outline>
    <contour>
      <point x="666" y="-24"/>
      <point x="686" y="-62"/>
      <point x="698" y="-98" type="curve"/>
      <point x="707" y="-129"/>
      <point x="712" y="-162"/>
      <point x="704" y="-202" type="curve" smooth="yes"/>
      <point x="694" y="-255"/>
      <point x="664" y="-302"/>
      <point x="618" y="-333" type="curve" smooth="yes"/>
      <point x="574" y="-362"/>
      <point x="514" y="-378"/>
      <point x="431" y="-378" type="curve" smooth="yes"/>
      <point x="372" y="-378"/>
      <point x="313" y="-370"/>
      <point x="260" y="-354" type="curve"/>
      <point x="286" y="-223" type="line"/>
      <point x="307" y="-234"/>
      <point x="329" y="-243"/>
      <point x="353" y="-248" type="curve" smooth="yes"/>
      <point x="377" y="-253"/>
      <point x="408" y="-255"/>
      <point x="431" y="-255" type="curve" smooth="yes"/>
      <point x="516" y="-255"/>
      <point x="561" y="-222"/>
      <point x="572" y="-163" type="curve" smooth="yes"/>
      <point x="581" y="-120"/>
      <point x="560" y="-66"/>
      <point x="519" y="17" type="curve"/>
      <point x="637" y="17" type="line"/>
    </contour>
    <contour>
      <point x="563" y="-4"/>
      <point x="488" y="17"/>
      <point x="437" y="52" type="curve" smooth="yes"/>
      <point x="384" y="89"/>
      <point x="358" y="142"/>
      <point x="358" y="222" type="curve" smooth="yes"/>
      <point x="358" y="238"/>
      <point x="359" y="261"/>
      <point x="362" y="284" type="curve" smooth="yes"/>
      <point x="363" y="293"/>
      <point x="365" y="304"/>
      <point x="367" y="318" type="curve" smooth="yes"/>
      <point x="369" y="332"/>
      <point x="372" y="348"/>
      <point x="375" y="365" type="curve" smooth="yes"/>
      <point x="494" y="977" type="line"/>
      <point x="195" y="977" type="line"/>
      <point x="223" y="1120" type="line"/>
      <point x="522" y="1120" type="line"/>
      <point x="584" y="1438" type="line"/>
      <point x="768" y="1438" type="line"/>
      <point x="707" y="1120" type="line"/>
      <point x="1124" y="1120" type="line"/>
      <point x="1096" y="977" type="line"/>
      <point x="678" y="977" type="line"/>
      <point x="559" y="365" type="line" smooth="yes"/>
      <point x="557" y="354"/>
      <point x="556" y="345"/>
      <point x="555" y="339" type="curve" smooth="yes"/>
      <point x="554" y="333"/>
      <point x="553" y="328"/>
      <point x="552" y="325" type="curve" smooth="yes"/>
      <point x="551" y="322"/>
      <point x="551" y="319"/>
      <point x="551" y="318" type="curve" smooth="yes"/>
      <point x="551" y="316"/>
      <point x="551" y="313"/>
      <point x="550" y="310" type="curve"/>
      <point x="548" y="293"/>
      <point x="547" y="277"/>
      <point x="547" y="263" type="curve" smooth="yes"/>
      <point x="547" y="174"/>
      <point x="591" y="143"/>
      <point x="727" y="143" type="curve" smooth="yes"/>
      <point x="934" y="143" type="line"/>
      <point x="905" y="-4" type="line"/>
      <point x="682" y="-4" type="line" smooth="yes"/>
    </contour>
  </outline>
</glyph>
<glyph name="Utilde" format="1">
  <advance width="1233"/>
  <unicode hex="0168"/>
  <note>
	Utilde
  </note>
  <outline>
    <contour>
      <point x="446" y="1627" type="line"/>
      <point x="493" y="1772"/>
      <point x="578" y="1846"/>
      <point x="686" y="1846" type="curve" smooth="yes"/>
      <point x="731" y="1846"/>
      <point x="774" y="1834"/>
      <point x="821" y="1799" type="curve" smooth="yes"/>
      <point x="856" y="1773" type="line" smooth="yes"/>
      <point x="880" y="1755"/>
      <point x="904" y="1746"/>
      <point x="928" y="1746" type="curve" smooth="yes"/>
      <point x="984" y="1746"/>
      <point x="1021" y="1785"/>
      <point x="1036" y="1846" type="curve"/>
      <point x="1161" y="1846" type="line"/>
      <point x="1118" y="1698"/>
      <point x="1027" y="1627"/>
      <point x="916" y="1627" type="curve" smooth="yes"/>
      <point x="873" y="1627"/>
      <point x="838" y="1638"/>
      <point x="794" y="1670" type="curve" smooth="yes"/>
      <point x="760" y="1695" type="line"/>
      <point x="758" y="1696" type="line"/>
      <point x="729" y="1717"/>
      <point x="703" y="1728"/>
      <point x="678" y="1728" type="curve" smooth="yes"/>
      <point x="632" y="1728"/>
      <point x="596" y="1694"/>
      <point x="571" y="1627" type="curve"/>
    </contour>
    <contour>
      <point x="350" y="-29"/>
      <point x="251" y="3"/>
      <point x="184" y="62" type="curve" smooth="yes"/>
      <point x="116" y="121"/>
      <point x="80" y="206"/>
      <point x="80" y="311" type="curve" smooth="yes"/>
      <point x="80" y="370"/>
      <point x="91" y="448"/>
      <point x="115" y="573" type="curve" smooth="yes"/>
      <point x="293" y="1493" type="line"/>
      <point x="496" y="1493" type="line"/>
      <point x="317" y="573" type="line"/>
      <point x="316" y="569"/>
      <point x="316" y="566"/>
      <point x="316" y="565" type="curve"/>
      <point x="315" y="564"/>
      <point x="315" y="562"/>
      <point x="315" y="560" type="curve"/>
      <point x="314" y="558"/>
      <point x="314" y="555"/>
      <point x="313" y="552" type="curve"/>
      <point x="312" y="548"/>
      <point x="311" y="541"/>
      <point x="309" y="532" type="curve" smooth="yes"/>
      <point x="289" y="433"/>
      <point x="279" y="355"/>
      <point x="279" y="312" type="curve" smooth="yes"/>
      <point x="279" y="199"/>
      <point x="352" y="135"/>
      <point x="496" y="135" type="curve" smooth="yes"/>
      <point x="545" y="135"/>
      <point x="597" y="142"/>
      <point x="643" y="161" type="curve" smooth="yes"/>
      <point x="689" y="180"/>
      <point x="728" y="209"/>
      <point x="756" y="253" type="curve" smooth="yes"/>
      <point x="771" y="277"/>
      <point x="785" y="306"/>
      <point x="801" y="361" type="curve" smooth="yes"/>
      <point x="816" y="412"/>
      <point x="833" y="485"/>
      <point x="850" y="573" type="curve" smooth="yes"/>
      <point x="1028" y="1493" type="line"/>
      <point x="1231" y="1493" type="line"/>
      <point x="1053" y="573" type="line" smooth="yes"/>
      <point x="1025" y="430"/>
      <point x="998" y="331"/>
      <point x="965" y="255" type="curve" smooth="yes"/>
      <point x="932" y="179"/>
      <point x="891" y="129"/>
      <point x="838" y="86" type="curve" smooth="yes"/>
      <point x="741" y="9"/>
      <point x="617" y="-29"/>
      <point x="478" y="-29" type="curve" smooth="yes"/>
    </contour>
  </outline>
</glyph>
<glyph name="Uhungarumlaut" format="1">
  <advance width="1233"/>
  <unicode hex="0170"/>
  <note>
	Uhungarumlaut
  </note>
  <outline>
    <contour>
      <point x="766" y="1859" type="line"/>
      <point x="952" y="1859" type="line"/>
      <point x="672" y="1595" type="line"/>
      <point x="518" y="1595" type="line"/>
    </contour>
    <contour>
      <point x="1085" y="1859" type="line"/>
      <point x="1271" y="1859" type="line"/>
      <point x="991" y="1595" type="line"/>
      <point x="837" y="1595" type="line"/>
    </contour>
    <contour>
      <point x="350" y="-29"/>
      <point x="251" y="3"/>
      <point x="184" y="62" type="curve" smooth="yes"/>
      <point x="116" y="121"/>
      <point x="80" y="206"/>
      <point x="80" y="311" type="curve" smooth="yes"/>
      <point x="80" y="370"/>
      <point x="91" y="448"/>
      <point x="115" y="573" type="curve" smooth="yes"/>
      <point x="293" y="1493" type="line"/>
      <point x="496" y="1493" type="line"/>
      <point x="317" y="573" type="line"/>
      <point x="316" y="569"/>
      <point x="316" y="566"/>
      <point x="316" y="565" type="curve"/>
      <point x="315" y="564"/>
      <point x="315" y="562"/>
      <point x="315" y="560" type="curve"/>
      <point x="314" y="558"/>
      <point x="314" y="555"/>
      <point x="313" y="552" type="curve"/>
      <point x="312" y="548"/>
      <point x="311" y="541"/>
      <point x="309" y="532" type="curve" smooth="yes"/>
      <point x="289" y="433"/>
      <point x="279" y="355"/>
      <point x="279" y="312" type="curve" smooth="yes"/>
      <point x="279" y="199"/>
      <point x="352" y="135"/>
      <point x="496" y="135" type="curve" smooth="yes"/>
      <point x="545" y="135"/>
      <point x="597" y="142"/>
      <point x="643" y="161" type="curve" smooth="yes"/>
      <point x="689" y="180"/>
      <point x="728" y="209"/>
      <point x="756" y="253" type="curve" smooth="yes"/>
      <point x="771" y="277"/>
      <point x="785" y="306"/>
      <point x="801" y="361" type="curve" smooth="yes"/>
      <point x="816" y="412"/>
      <point x="833" y="485"/>
      <point x="850" y="573" type="curve" smooth="yes"/>
      <point x="1028" y="1493" type="line"/>
      <point x="1231" y="1493" type="line"/>
      <point x="1053" y="573" type="line" smooth="yes"/>
      <point x="1025" y="430"/>
      <point x="998" y="331"/>
      <point x="965" y="255" type="curve" smooth="yes"/>
      <point x="932" y="179"/>
      <point x="891" y="129"/>
      <point x="838" y="86" type="curve" smooth="yes"/>
      <point x="741" y="9"/>
      <point x="617" y="-29"/>
      <point x="478" y="-29" type="curve" smooth="yes"/>
    </contour>
  </outline>
</glyph>
<glyph name="Wcircumflex" format="1">
  <advance width="1233"/>
  <unicode hex="0174"/>
  <note>
	Wcircumflex
  </note>
  <outline>
    <contour>
      <point x="737" y="1868" type="line"/>
      <point x="950" y="1868" type="line"/>
      <point x="1108" y="1602" type="line"/>
      <point x="975" y="1602" type="line"/>
      <point x="836" y="1780" type="line"/>
      <point x="627" y="1602" type="line"/>
      <point x="475" y="1602" type="line"/>
    </contour>
    <contour>
      <point x="145" y="1493" type="line"/>
      <point x="336" y="1493" type="line"/>
      <point x="246" y="283" type="line"/>
      <point x="575" y="1083" type="line"/>
      <point x="786" y="1083" type="line"/>
      <point x="801" y="281" type="line"/>
      <point x="1178" y="1493" type="line"/>
      <point x="1376" y="1493" type="line"/>
      <point x="866" y="0" type="line"/>
      <point x="672" y="0" type="line"/>
      <point x="641" y="870" type="line"/>
      <point x="270" y="0" type="line"/>
      <point x="82" y="0" type="line"/>
    </contour>
  </outline>
</glyph>
<glyph name="ycircumflex" format="1">
  <advance width="1233"/>
  <unicode hex="0177"/>
  <note>
	ycircumflex
  </note>
  <outline>
    <contour>
      <point x="777" y="1646" type="line"/>
      <point x="924" y="1646" type="line"/>
      <point x="1088" y="1270" type="line"/>
      <point x="955" y="1270" type="line"/>
      <point x="838" y="1511" type="line"/>
      <point x="613" y="1270" type="line"/>
      <point x="457" y="1270" type="line"/>
    </contour>
    <contour>
      <point x="20" y="-272" type="line"/>
      <point x="128" y="-272" type="line" smooth="yes"/>
      <point x="184" y="-272"/>
      <point x="230" y="-256"/>
      <point x="271" y="-222" type="curve" smooth="yes"/>
      <point x="312" y="-188"/>
      <point x="350" y="-137"/>
      <point x="386" y="-66" type="curve" smooth="yes"/>
      <point x="429" y="18" type="line"/>
      <point x="212" y="1120" type="line"/>
      <point x="395" y="1120" type="line"/>
      <point x="567" y="258" type="line"/>
      <point x="1050" y="1120" type="line"/>
      <point x="1255" y="1120" type="line"/>
      <point x="816" y="360" type="line" smooth="yes"/>
      <point x="799" y="331"/>
      <point x="783" y="303"/>
      <point x="767" y="274" type="curve" smooth="yes"/>
      <point x="734" y="217"/>
      <point x="704" y="165"/>
      <point x="680" y="123" type="curve" smooth="yes"/>
      <point x="668" y="102"/>
      <point x="658" y="85"/>
      <point x="651" y="72" type="curve" smooth="yes"/>
      <point x="546" y="-112"/>
      <point x="483" y="-220"/>
      <point x="442" y="-276" type="curve" smooth="yes"/>
      <point x="362" y="-381"/>
      <point x="260" y="-426"/>
      <point x="139" y="-426" type="curve" smooth="yes"/>
      <point x="-9" y="-426" type="line"/>
    </contour>
  </outline>
</glyph>
<glyph name="zacute" format="1">
  <advance width="1233"/>
  <unicode hex="017A"/>
  <note>
	zacute
  </note>
  <outline>
    <contour>
      <point x="940" y="1646" type="line"/>
      <point x="1159" y="1646" type="line"/>
      <point x="764" y="1270" type="line"/>
      <point x="608" y="1270" type="line"/>
    </contour>
    <contour>
      <point x="111" y="168" type="line"/>
      <point x="895" y="973" type="line"/>
      <point x="291" y="973" type="line"/>
      <point x="319" y="1120" type="line"/>
      <point x="1133" y="1120" type="line"/>
      <point x="1100" y="952" type="line"/>
      <point x="315" y="147" type="line"/>
      <point x="944" y="147" type="line"/>
      <point x="915" y="0" type="line"/>
      <point x="78" y="0" type="line"/>
    </contour>
  </outline>
</glyph>
<glyph name="Ohorn" format="1">
  <advance width="1233"/>
  <unicode hex="01A0"/>
  <note>
	Ohorn
  </note>
  <outline>
    <contour>
      <point x="1367" y="1557" type="line"/>
      <point x="1368" y="1538"/>
      <point x="1369" y="1523"/>
      <point x="1369" y="1508" type="curve" smooth="yes"/>
      <point x="1369" y="1472"/>
      <point x="1365" y="1445"/>
      <point x="1361" y="1421" type="curve" smooth="yes"/>
      <point x="1333" y="1269"/>
      <point x="1263" y="1184"/>
      <point x="1142" y="1184" type="curve" smooth="yes"/>
      <point x="1121" y="1184"/>
      <point x="1103" y="1186"/>
      <point x="1086" y="1191" type="curve"/>
      <point x="1094" y="1145"/>
      <point x="1098" y="1094"/>
      <point x="1098" y="1037" type="curve" smooth="yes"/>
      <point x="1098" y="957"/>
      <point x="1090" y="868"/>
      <point x="1075" y="779" type="curve" smooth="yes"/>
      <point x="1059" y="690"/>
      <point x="1038" y="600"/>
      <point x="1011" y="516" type="curve" smooth="yes"/>
      <point x="971" y="391"/>
      <point x="923" y="292"/>
      <point x="874" y="219" type="curve" smooth="yes"/>
      <point x="761" y="48"/>
      <point x="614" y="-29"/>
      <point x="427" y="-29" type="curve" smooth="yes"/>
      <point x="162" y="-29"/>
      <point x="29" y="134"/>
      <point x="29" y="459" type="curve" smooth="yes"/>
      <point x="29" y="630"/>
      <point x="63" y="818"/>
      <point x="114" y="975" type="curve" smooth="yes"/>
      <point x="155" y="1104"/>
      <point x="203" y="1200"/>
      <point x="251" y="1272" type="curve" smooth="yes"/>
      <point x="363" y="1439"/>
      <point x="507" y="1520"/>
      <point x="698" y="1520" type="curve" smooth="yes"/>
      <point x="849" y="1520"/>
      <point x="958" y="1468"/>
      <point x="1024" y="1364" type="curve"/>
      <point x="1067" y="1335"/>
      <point x="1099" y="1323"/>
      <point x="1131" y="1323" type="curve" smooth="yes"/>
      <point x="1187" y="1323"/>
      <point x="1225" y="1360"/>
      <point x="1240" y="1432" type="curve"/>
      <point x="1243" y="1451"/>
      <point x="1245" y="1468"/>
      <point x="1245" y="1483" type="curve" smooth="yes"/>
      <point x="1245" y="1506"/>
      <point x="1241" y="1531"/>
      <point x="1234" y="1557" type="curve"/>
    </contour>
    <contour>
      <point x="758" y="396"/>
      <point x="788" y="473"/>
      <point x="812" y="557" type="curve" smooth="yes"/>
      <point x="836" y="640"/>
      <point x="857" y="728"/>
      <point x="870" y="816" type="curve" smooth="yes"/>
      <point x="883" y="903"/>
      <point x="891" y="987"/>
      <point x="891" y="1060" type="curve" smooth="yes"/>
      <point x="891" y="1148"/>
      <point x="880" y="1222"/>
      <point x="849" y="1274" type="curve" smooth="yes"/>
      <point x="817" y="1326"/>
      <point x="765" y="1356"/>
      <point x="681" y="1356" type="curve" smooth="yes"/>
      <point x="616" y="1356"/>
      <point x="562" y="1337"/>
      <point x="518" y="1304" type="curve" smooth="yes"/>
      <point x="473" y="1271"/>
      <point x="435" y="1220"/>
      <point x="402" y="1159" type="curve" smooth="yes"/>
      <point x="351" y="1064"/>
      <point x="311" y="939"/>
      <point x="281" y="808" type="curve" smooth="yes"/>
      <point x="251" y="676"/>
      <point x="234" y="541"/>
      <point x="234" y="432" type="curve" smooth="yes"/>
      <point x="234" y="340"/>
      <point x="246" y="265"/>
      <point x="278" y="214" type="curve" smooth="yes"/>
      <point x="310" y="163"/>
      <point x="363" y="135"/>
      <point x="444" y="135" type="curve" smooth="yes"/>
      <point x="509" y="135"/>
      <point x="564" y="154"/>
      <point x="609" y="188" type="curve" smooth="yes"/>
      <point x="654" y="222"/>
      <point x="692" y="270"/>
      <point x="725" y="333" type="curve" smooth="yes"/>
    </contour>
  </outline>
</glyph>
<glyph name="ohorn" format="1">
  <advance width="1233"/>
  <unicode hex="01A1"/>
  <note>
	ohorn
  </note>
  <outline>
    <contour>
      <point x="1218" y="1137" type="line"/>
      <point x="1219" y="1118"/>
      <point x="1220" y="1103"/>
      <point x="1220" y="1088" type="curve" smooth="yes"/>
      <point x="1220" y="1052"/>
      <point x="1216" y="1025"/>
      <point x="1212" y="1001" type="curve" smooth="yes"/>
      <point x="1185" y="856"/>
      <point x="1120" y="771"/>
      <point x="1007" y="764" type="curve"/>
      <point x="1008" y="757"/>
      <point x="1008" y="751"/>
      <point x="1008" y="745" type="curve" smooth="yes"/>
      <point x="1008" y="738"/>
      <point x="1008" y="731"/>
      <point x="1008" y="724" type="curve" smooth="yes"/>
      <point x="1008" y="637"/>
      <point x="995" y="544"/>
      <point x="968" y="456" type="curve" smooth="yes"/>
      <point x="941" y="367"/>
      <point x="903" y="280"/>
      <point x="852" y="207" type="curve" smooth="yes"/>
      <point x="745" y="52"/>
      <point x="601" y="-29"/>
      <point x="408" y="-29" type="curve" smooth="yes"/>
      <point x="147" y="-29"/>
      <point x="11" y="121"/>
      <point x="11" y="392" type="curve" smooth="yes"/>
      <point x="11" y="481"/>
      <point x="26" y="576"/>
      <point x="53" y="666" type="curve" smooth="yes"/>
      <point x="80" y="756"/>
      <point x="120" y="840"/>
      <point x="168" y="911" type="curve" smooth="yes"/>
      <point x="276" y="1068"/>
      <point x="420" y="1147"/>
      <point x="611" y="1147" type="curve" smooth="yes"/>
      <point x="806" y="1147"/>
      <point x="932" y="1064"/>
      <point x="983" y="903" type="curve"/>
      <point x="1039" y="904"/>
      <point x="1076" y="941"/>
      <point x="1091" y="1012" type="curve"/>
      <point x="1094" y="1031"/>
      <point x="1096" y="1048"/>
      <point x="1096" y="1063" type="curve" smooth="yes"/>
      <point x="1096" y="1086"/>
      <point x="1092" y="1111"/>
      <point x="1085" y="1137" type="curve"/>
    </contour>
    <contour>
      <point x="507" y="127"/>
      <point x="581" y="162"/>
      <point x="640" y="219" type="curve" smooth="yes"/>
      <point x="699" y="275"/>
      <point x="742" y="353"/>
      <point x="771" y="439" type="curve" smooth="yes"/>
      <point x="800" y="525"/>
      <point x="814" y="619"/>
      <point x="814" y="707" type="curve" smooth="yes"/>
      <point x="814" y="906"/>
      <point x="744" y="991"/>
      <point x="603" y="991" type="curve" smooth="yes"/>
      <point x="514" y="991"/>
      <point x="440" y="956"/>
      <point x="381" y="900" type="curve" smooth="yes"/>
      <point x="322" y="843"/>
      <point x="279" y="766"/>
      <point x="250" y="680" type="curve" smooth="yes"/>
      <point x="221" y="594"/>
      <point x="207" y="499"/>
      <point x="207" y="411" type="curve" smooth="yes"/>
      <point x="207" y="212"/>
      <point x="277" y="127"/>
      <point x="418" y="127" type="curve" smooth="yes"/>
    </contour>
  </outline>
</glyph>
<glyph name="Gcaron" format="1">
  <advance width="1233"/>
  <unicode hex="01E6"/>
  <note>
	Gcaron
  </note>
  <outline>
    <contour>
      <point x="529" y="1861" type="line"/>
      <point x="665" y="1861" type="line"/>
      <point x="804" y="1683" type="line"/>
      <point x="1013" y="1861" type="line"/>
      <point x="1164" y="1861" type="line"/>
      <point x="900" y="1595" type="line"/>
      <point x="687" y="1595" type="line"/>
    </contour>
    <contour>
      <point x="406" y="-29"/>
      <point x="285" y="17"/>
      <point x="203" y="105" type="curve" smooth="yes"/>
      <point x="121" y="193"/>
      <point x="78" y="322"/>
      <point x="78" y="487" type="curve" smooth="yes"/>
      <point x="78" y="612"/>
      <point x="102" y="754"/>
      <point x="143" y="893" type="curve" smooth="yes"/>
      <point x="190" y="1050"/>
      <point x="248" y="1166"/>
      <point x="328" y="1266" type="curve" smooth="yes"/>
      <point x="465" y="1435"/>
      <point x="640" y="1520"/>
      <point x="852" y="1520" type="curve" smooth="yes"/>
      <point x="965" y="1520"/>
      <point x="1064" y="1495"/>
      <point x="1176" y="1438" type="curve"/>
      <point x="1135" y="1231" type="line"/>
      <point x="1049" y="1314"/>
      <point x="952" y="1356"/>
      <point x="845" y="1356" type="curve" smooth="yes"/>
      <point x="716" y="1356"/>
      <point x="599" y="1300"/>
      <point x="508" y="1192" type="curve" smooth="yes"/>
      <point x="443" y="1113"/>
      <point x="395" y="1010"/>
      <point x="356" y="887" type="curve" smooth="yes"/>
      <point x="333" y="812"/>
      <point x="316" y="738"/>
      <point x="305" y="670" type="curve" smooth="yes"/>
      <point x="293" y="601"/>
      <point x="287" y="538"/>
      <point x="287" y="487" type="curve" smooth="yes"/>
      <point x="287" y="263"/>
      <point x="396" y="135"/>
      <point x="593" y="135" type="curve" smooth="yes"/>
      <point x="681" y="135"/>
      <point x="754" y="160"/>
      <point x="803" y="207" type="curve"/>
      <point x="879" y="600" type="line"/>
      <point x="662" y="600" type="line"/>
      <point x="692" y="766" type="line"/>
      <point x="1102" y="766" type="line"/>
      <point x="969" y="96" type="line"/>
      <point x="854" y="13"/>
      <point x="715" y="-29"/>
      <point x="563" y="-29" type="curve" smooth="yes"/>
    </contour>
  </outline>
</glyph>
<glyph name="gcaron" format="1">
  <advance width="1233"/>
  <unicode hex="01E7"/>
  <note>
	gcaron
  </note>
  <outline>
    <contour>
      <point x="471" y="1673" type="line"/>
      <point x="602" y="1673" type="line"/>
      <point x="721" y="1430" type="line"/>
      <point x="946" y="1673" type="line"/>
      <point x="1102" y="1673" type="line"/>
      <point x="782" y="1297" type="line"/>
      <point x="635" y="1297" type="line"/>
    </contour>
    <contour>
      <point x="263" y="-440"/>
      <point x="159" y="-421"/>
      <point x="59" y="-385" type="curve"/>
      <point x="96" y="-203" type="line"/>
      <point x="193" y="-263"/>
      <point x="297" y="-293"/>
      <point x="409" y="-293" type="curve" smooth="yes"/>
      <point x="510" y="-293"/>
      <point x="584" y="-267"/>
      <point x="640" y="-211" type="curve" smooth="yes"/>
      <point x="695" y="-155"/>
      <point x="731" y="-68"/>
      <point x="756" y="53" type="curve" smooth="yes"/>
      <point x="780" y="170" type="line"/>
      <point x="701" y="50"/>
      <point x="578" y="-8"/>
      <point x="443" y="-8" type="curve" smooth="yes"/>
      <point x="338" y="-8"/>
      <point x="253" y="29"/>
      <point x="194" y="98" type="curve" smooth="yes"/>
      <point x="134" y="167"/>
      <point x="102" y="269"/>
      <point x="102" y="401" type="curve" smooth="yes"/>
      <point x="102" y="488"/>
      <point x="117" y="580"/>
      <point x="143" y="668" type="curve" smooth="yes"/>
      <point x="169" y="756"/>
      <point x="206" y="840"/>
      <point x="254" y="911" type="curve" smooth="yes"/>
      <point x="303" y="984"/>
      <point x="363" y="1044"/>
      <point x="431" y="1085" type="curve" smooth="yes"/>
      <point x="498" y="1125"/>
      <point x="572" y="1147"/>
      <point x="648" y="1147" type="curve" smooth="yes"/>
      <point x="783" y="1147"/>
      <point x="889" y="1078"/>
      <point x="934" y="965" type="curve"/>
      <point x="981" y="1116" type="line"/>
      <point x="1145" y="1116" type="line"/>
      <point x="942" y="72" type="line" smooth="yes"/>
      <point x="907" y="-104"/>
      <point x="849" y="-232"/>
      <point x="758" y="-316" type="curve" smooth="yes"/>
      <point x="667" y="-400"/>
      <point x="543" y="-440"/>
      <point x="378" y="-440" type="curve" smooth="yes"/>
    </contour>
    <contour>
      <point x="618" y="145"/>
      <point x="705" y="203"/>
      <point x="770" y="319" type="curve" smooth="yes"/>
      <point x="802" y="376"/>
      <point x="828" y="448"/>
      <point x="846" y="521" type="curve" smooth="yes"/>
      <point x="864" y="593"/>
      <point x="874" y="667"/>
      <point x="874" y="728" type="curve" smooth="yes"/>
      <point x="874" y="901"/>
      <point x="796" y="991"/>
      <point x="667" y="991" type="curve" smooth="yes"/>
      <point x="591" y="991"/>
      <point x="524" y="958"/>
      <point x="469" y="905" type="curve" smooth="yes"/>
      <point x="414" y="852"/>
      <point x="371" y="777"/>
      <point x="342" y="694" type="curve" smooth="yes"/>
      <point x="313" y="610"/>
      <point x="297" y="518"/>
      <point x="297" y="429" type="curve" smooth="yes"/>
      <point x="297" y="328"/>
      <point x="317" y="258"/>
      <point x="353" y="212" type="curve" smooth="yes"/>
      <point x="389" y="166"/>
      <point x="442" y="145"/>
      <point x="507" y="145" type="curve" smooth="yes"/>
    </contour>
  </outline>
</glyph>
<glyph name="Oslashacute" format="1">
  <advance width="1233"/>
  <unicode hex="01FE"/>
  <note>
	Oslashacute
  </note>
  <outline>
    <contour>
      <point x="887" y="1859" type="line"/>
      <point x="1095" y="1859" type="line"/>
      <point x="788" y="1595" type="line"/>
      <point x="628" y="1595" type="line"/>
    </contour>
    <contour>
      <point x="14" y="-6" type="line"/>
      <point x="133" y="164" type="line"/>
      <point x="97" y="241"/>
      <point x="80" y="332"/>
      <point x="80" y="453" type="curve" smooth="yes"/>
      <point x="80" y="580"/>
      <point x="99" y="721"/>
      <point x="132" y="855" type="curve" smooth="yes"/>
      <point x="164" y="989"/>
      <point x="211" y="1116"/>
      <point x="268" y="1217" type="curve" smooth="yes"/>
      <point x="384" y="1421"/>
      <point x="544" y="1520"/>
      <point x="749" y="1520" type="curve" smooth="yes"/>
      <point x="860" y="1520"/>
      <point x="944" y="1491"/>
      <point x="1016" y="1434" type="curve"/>
      <point x="1100" y="1559" type="line"/>
      <point x="1200" y="1495" type="line"/>
      <point x="1094" y="1337" type="line"/>
      <point x="1133" y="1257"/>
      <point x="1151" y="1165"/>
      <point x="1151" y="1040" type="curve" smooth="yes"/>
      <point x="1151" y="911"/>
      <point x="1131" y="770"/>
      <point x="1099" y="636" type="curve" smooth="yes"/>
      <point x="1066" y="502"/>
      <point x="1019" y="375"/>
      <point x="963" y="276" type="curve" smooth="yes"/>
      <point x="843" y="64"/>
      <point x="679" y="-29"/>
      <point x="480" y="-29" type="curve" smooth="yes"/>
      <point x="372" y="-29"/>
      <point x="283" y="-1"/>
      <point x="207" y="63" type="curve"/>
      <point x="113" y="-70" type="line"/>
    </contour>
    <contour>
      <point x="905" y="1274" type="line"/>
      <point x="866" y="1326"/>
      <point x="806" y="1356"/>
      <point x="726" y="1356" type="curve" smooth="yes"/>
      <point x="574" y="1356"/>
      <point x="474" y="1243"/>
      <point x="395" y="1018" type="curve" smooth="yes"/>
      <point x="363" y="926"/>
      <point x="336" y="821"/>
      <point x="317" y="723" type="curve" smooth="yes"/>
      <point x="298" y="625"/>
      <point x="287" y="533"/>
      <point x="287" y="469" type="curve" smooth="yes"/>
      <point x="287" y="452"/>
      <point x="288" y="437"/>
      <point x="289" y="424" type="curve" smooth="yes"/>
      <point x="290" y="411"/>
      <point x="290" y="399"/>
      <point x="291" y="389" type="curve"/>
    </contour>
    <contour>
      <point x="578" y="135"/>
      <point x="642" y="162"/>
      <point x="696" y="218" type="curve" smooth="yes"/>
      <point x="750" y="274"/>
      <point x="795" y="358"/>
      <point x="836" y="473" type="curve" smooth="yes"/>
      <point x="868" y="564"/>
      <point x="895" y="663"/>
      <point x="913" y="762" type="curve" smooth="yes"/>
      <point x="931" y="861"/>
      <point x="940" y="958"/>
      <point x="940" y="1043" type="curve" smooth="yes"/>
      <point x="940" y="1070"/>
      <point x="939" y="1093"/>
      <point x="938" y="1116" type="curve"/>
      <point x="322" y="229" type="line"/>
      <point x="349" y="169"/>
      <point x="414" y="135"/>
      <point x="502" y="135" type="curve" smooth="yes"/>
    </contour>
  </outline>
</glyph>
<glyph name="uni0219" format="1">
  <advance width="1233"/>
  <unicode hex="0219"/>
  <note>
	uni0219
  </note>
  <outline>
    <contour>
      <point x="360" y="-29"/>
      <point x="248" y="-6"/>
      <point x="115" y="41" type="curve"/>
      <point x="152" y="231" type="line"/>
      <point x="277" y="160"/>
      <point x="394" y="125"/>
      <point x="505" y="125" type="curve" smooth="yes"/>
      <point x="594" y="125"/>
      <point x="670" y="148"/>
      <point x="723" y="185" type="curve" smooth="yes"/>
      <point x="776" y="221"/>
      <point x="807" y="272"/>
      <point x="807" y="325" type="curve" smooth="yes"/>
      <point x="807" y="401"/>
      <point x="742" y="455"/>
      <point x="611" y="487" type="curve" smooth="yes"/>
      <point x="583" y="494" type="line"/>
      <point x="516" y="512" type="line" smooth="yes"/>
      <point x="345" y="557"/>
      <point x="266" y="634"/>
      <point x="266" y="778" type="curve" smooth="yes"/>
      <point x="266" y="890"/>
      <point x="313" y="982"/>
      <point x="398" y="1047" type="curve" smooth="yes"/>
      <point x="482" y="1111"/>
      <point x="605" y="1147"/>
      <point x="754" y="1147" type="curve" smooth="yes"/>
      <point x="872" y="1147"/>
      <point x="980" y="1125"/>
      <point x="1077" y="1081" type="curve"/>
      <point x="1042" y="901" type="line"/>
      <point x="946" y="961"/>
      <point x="844" y="993"/>
      <point x="731" y="993" type="curve" smooth="yes"/>
      <point x="643" y="993"/>
      <point x="572" y="973"/>
      <point x="524" y="941" type="curve" smooth="yes"/>
      <point x="475" y="908"/>
      <point x="449" y="862"/>
      <point x="449" y="810" type="curve" smooth="yes"/>
      <point x="449" y="771"/>
      <point x="463" y="742"/>
      <point x="498" y="715" type="curve" smooth="yes"/>
      <point x="533" y="688"/>
      <point x="587" y="666"/>
      <point x="670" y="645" type="curve" smooth="yes"/>
      <point x="681" y="642"/>
      <point x="688" y="640"/>
      <point x="692" y="639" type="curve" smooth="yes"/>
      <point x="764" y="621" type="line" smooth="yes"/>
      <point x="924" y="581"/>
      <point x="997" y="498"/>
      <point x="997" y="365" type="curve" smooth="yes"/>
      <point x="997" y="253"/>
      <point x="945" y="155"/>
      <point x="854" y="84" type="curve" smooth="yes"/>
      <point x="762" y="13"/>
      <point x="632" y="-29"/>
      <point x="476" y="-29" type="curve" smooth="yes"/>
    </contour>
    <contour>
      <point x="389" y="-197" type="line"/>
      <point x="628" y="-197" type="line"/>
      <point x="374" y="-542" type="line"/>
      <point x="228" y="-542" type="line"/>
    </contour>
  </outline>
</glyph>
<glyph name="uni021B" format="1">
  <advance width="1233"/>
  <unicode hex="021B"/>
  <note>
	uni021B
  </note>
  <outline>
    <contour>
      <point x="557" y="354"/>
      <point x="556" y="345"/>
      <point x="555" y="339" type="curve" smooth="yes"/>
      <point x="554" y="333"/>
      <point x="553" y="328"/>
      <point x="552" y="325" type="curve" smooth="yes"/>
      <point x="551" y="322"/>
      <point x="551" y="319"/>
      <point x="551" y="318" type="curve" smooth="yes"/>
      <point x="551" y="316"/>
      <point x="551" y="313"/>
      <point x="550" y="310" type="curve"/>
      <point x="548" y="293"/>
      <point x="547" y="277"/>
      <point x="547" y="263" type="curve" smooth="yes"/>
      <point x="547" y="174"/>
      <point x="591" y="143"/>
      <point x="727" y="143" type="curve" smooth="yes"/>
      <point x="934" y="143" type="line"/>
      <point x="905" y="-4" type="line"/>
      <point x="702" y="-4" type="line"/>
      <point x="747" y="-84"/>
      <point x="768" y="-139"/>
      <point x="768" y="-186" type="curve" smooth="yes"/>
      <point x="768" y="-249"/>
      <point x="742" y="-298"/>
      <point x="698" y="-333" type="curve" smooth="yes"/>
      <point x="653" y="-369"/>
      <point x="588" y="-388"/>
      <point x="508" y="-388" type="curve" smooth="yes"/>
      <point x="447" y="-388"/>
      <point x="386" y="-378"/>
      <point x="323" y="-358" type="curve"/>
      <point x="348" y="-229" type="line"/>
      <point x="402" y="-254"/>
      <point x="450" y="-267"/>
      <point x="493" y="-267" type="curve" smooth="yes"/>
      <point x="582" y="-267"/>
      <point x="635" y="-225"/>
      <point x="635" y="-153" type="curve" smooth="yes"/>
      <point x="635" y="-118"/>
      <point x="616" y="-66"/>
      <point x="579" y="2" type="curve"/>
      <point x="516" y="11"/>
      <point x="472" y="28"/>
      <point x="437" y="52" type="curve" smooth="yes"/>
      <point x="384" y="89"/>
      <point x="358" y="142"/>
      <point x="358" y="222" type="curve" smooth="yes"/>
      <point x="358" y="238"/>
      <point x="359" y="261"/>
      <point x="362" y="284" type="curve" smooth="yes"/>
      <point x="363" y="293"/>
      <point x="365" y="304"/>
      <point x="367" y="318" type="curve" smooth="yes"/>
      <point x="369" y="332"/>
      <point x="372" y="348"/>
      <point x="375" y="365" type="curve" smooth="yes"/>
      <point x="494" y="977" type="line"/>
      <point x="195" y="977" type="line"/>
      <point x="223" y="1120" type="line"/>
      <point x="522" y="1120" type="line"/>
      <point x="584" y="1438" type="line"/>
      <point x="768" y="1438" type="line"/>
      <point x="707" y="1120" type="line"/>
      <point x="1124" y="1120" type="line"/>
      <point x="1096" y="977" type="line"/>
      <point x="678" y="977" type="line"/>
      <point x="559" y="365" type="line" smooth="yes"/>
    </contour>
  </outline>
</glyph>
<glyph name="uni02BF" format="1">
  <advance width="1233"/>
  <unicode hex="02BF"/>
  <note>
	uni02BF
  </note>
  <outline>
    <contour>
      <point x="751" y="1007"/>
      <point x="695" y="1031"/>
      <point x="656" y="1071" type="curve" smooth="yes"/>
      <point x="616" y="1110"/>
      <point x="593" y="1165"/>
      <point x="593" y="1229" type="curve" smooth="yes"/>
      <point x="593" y="1246"/>
      <point x="595" y="1263"/>
      <point x="598" y="1282" type="curve"/>
      <point x="613" y="1358"/>
      <point x="656" y="1427"/>
      <point x="715" y="1476" type="curve" smooth="yes"/>
      <point x="774" y="1525"/>
      <point x="849" y="1556"/>
      <point x="925" y="1556" type="curve"/>
      <point x="901" y="1433" type="line"/>
      <point x="853" y="1433"/>
      <point x="808" y="1412"/>
      <point x="774" y="1379" type="curve" smooth="yes"/>
      <point x="740" y="1346"/>
      <point x="717" y="1300"/>
      <point x="717" y="1252" type="curve" smooth="yes"/>
      <point x="717" y="1181"/>
      <point x="766" y="1130"/>
      <point x="842" y="1130" type="curve"/>
      <point x="838" y="1109"/>
      <point x="834" y="1089"/>
      <point x="830" y="1069" type="curve" smooth="yes"/>
      <point x="826" y="1048"/>
      <point x="822" y="1028"/>
      <point x="819" y="1007" type="curve"/>
    </contour>
  </outline>
</glyph>
<glyph name="uni02C1" format="1">
  <advance width="1233"/>
  <unicode hex="02C1"/>
  <note>
	uni02C1
  </note>
  <outline>
    <contour>
      <point x="582" y="1259" type="line"/>
      <point x="521" y="1270"/>
      <point x="471" y="1293"/>
      <point x="436" y="1327" type="curve" smooth="yes"/>
      <point x="400" y="1361"/>
      <point x="380" y="1405"/>
      <point x="380" y="1460" type="curve" smooth="yes"/>
      <point x="380" y="1475"/>
      <point x="381" y="1489"/>
      <point x="384" y="1502" type="curve"/>
      <point x="396" y="1570"/>
      <point x="433" y="1636"/>
      <point x="497" y="1684" type="curve" smooth="yes"/>
      <point x="560" y="1732"/>
      <point x="648" y="1764"/>
      <point x="764" y="1764" type="curve" smooth="yes"/>
      <point x="836" y="1764"/>
      <point x="900" y="1752"/>
      <point x="960" y="1725" type="curve"/>
      <point x="941" y="1629" type="line"/>
      <point x="881" y="1661"/>
      <point x="818" y="1677"/>
      <point x="752" y="1677" type="curve" smooth="yes"/>
      <point x="677" y="1677"/>
      <point x="621" y="1658"/>
      <point x="580" y="1627" type="curve" smooth="yes"/>
      <point x="539" y="1595"/>
      <point x="514" y="1551"/>
      <point x="506" y="1502" type="curve"/>
      <point x="504" y="1492"/>
      <point x="503" y="1482"/>
      <point x="503" y="1472" type="curve" smooth="yes"/>
      <point x="503" y="1448"/>
      <point x="510" y="1426"/>
      <point x="524" y="1405" type="curve" smooth="yes"/>
      <point x="553" y="1362"/>
      <point x="608" y="1341"/>
      <point x="687" y="1341" type="curve" smooth="yes"/>
      <point x="726" y="1341" type="line"/>
      <point x="639" y="894" type="line"/>
      <point x="511" y="894" type="line"/>
    </contour>
  </outline>
</glyph>
<glyph name="breve" format="1">
  <advance width="1233"/>
  <unicode hex="02D8"/>
  <note>
	breve
  </note>
  <outline>
    <contour>
      <point x="568" y="1321"/>
      <point x="469" y="1410"/>
      <point x="469" y="1567" type="curve" smooth="yes"/>
      <point x="469" y="1572"/>
      <point x="469" y="1577"/>
      <point x="469" y="1582" type="curve" smooth="yes"/>
      <point x="469" y="1590"/>
      <point x="469" y="1595"/>
      <point x="472" y="1608" type="curve"/>
      <point x="592" y="1608" type="line"/>
      <point x="592" y="1591" type="line" smooth="yes"/>
      <point x="592" y="1506"/>
      <point x="651" y="1458"/>
      <point x="764" y="1458" type="curve" smooth="yes"/>
      <point x="872" y="1458"/>
      <point x="942" y="1509"/>
      <point x="979" y="1608" type="curve"/>
      <point x="1098" y="1608" type="line"/>
      <point x="1057" y="1423"/>
      <point x="935" y="1321"/>
      <point x="748" y="1321" type="curve" smooth="yes"/>
    </contour>
  </outline>
</glyph>
<glyph name="ring" format="1">
  <advance width="1233"/>
  <unicode hex="02DA"/>
  <note>
	ring
  </note>
  <outline>
    <contour>
      <point x="626" y="1321"/>
      <point x="504" y="1443"/>
      <point x="504" y="1595" type="curve" smooth="yes"/>
      <point x="504" y="1750"/>
      <point x="625" y="1870"/>
      <point x="778" y="1870" type="curve" smooth="yes"/>
      <point x="933" y="1870"/>
      <point x="1053" y="1750"/>
      <point x="1053" y="1595" type="curve" smooth="yes"/>
      <point x="1053" y="1443"/>
      <point x="931" y="1321"/>
      <point x="778" y="1321" type="curve" smooth="yes"/>
    </contour>
    <contour>
      <point x="863" y="1444"/>
      <point x="930" y="1511"/>
      <point x="930" y="1595" type="curve" smooth="yes"/>
      <point x="930" y="1680"/>
      <point x="863" y="1747"/>
      <point x="778" y="1747" type="curve" smooth="yes"/>
      <point x="693" y="1747"/>
      <point x="627" y="1682"/>
      <point x="627" y="1595" type="curve" smooth="yes"/>
      <point x="627" y="1511"/>
      <point x="694" y="1444"/>
      <point x="778" y="1444" type="curve" smooth="yes"/>
    </contour>
  </outline>
</glyph>
<glyph name="uni0302" format="1">
  <advance width="0"/>
  <unicode hex="0302"/>
  <note>
	uni0302
  </note>
  <outline>
    <contour>
      <point x="-516" y="1638" type="line"/>
      <point x="-369" y="1638" type="line"/>
      <point x="-205" y="1262" type="line"/>
      <point x="-338" y="1262" type="line"/>
      <point x="-455" y="1503" type="line"/>
      <point x="-680" y="1262" type="line"/>
      <point x="-836" y="1262" type="line"/>
    </contour>
  </outline>
</glyph>
<glyph name="uni0307" format="1">
  <advance width="0"/>
  <unicode hex="0307"/>
  <note>
	uni0307
  </note>
  <outline>
    <contour>
      <point x="-561" y="1552" type="line"/>
      <point x="-356" y="1552" type="line"/>
      <point x="-397" y="1348" type="line"/>
      <point x="-602" y="1348" type="line"/>
    </contour>
  </outline>
</glyph>
<glyph name="hookabovecomb" format="1">
  <advance width="0"/>
  <unicode hex="0309"/>
  <note>
	hookabovecomb
  </note>
  <outline>
    <contour>
      <point x="-711" y="1374" type="line"/>
      <point x="-686" y="1382"/>
      <point x="-659" y="1395"/>
      <point x="-635" y="1408" type="curve" smooth="yes"/>
      <point x="-612" y="1420"/>
      <point x="-593" y="1435"/>
      <point x="-582" y="1444" type="curve"/>
      <point x="-562" y="1463"/>
      <point x="-541" y="1501"/>
      <point x="-541" y="1536" type="curve" smooth="yes"/>
      <point x="-541" y="1556"/>
      <point x="-548" y="1575"/>
      <point x="-565" y="1589" type="curve" smooth="yes"/>
      <point x="-582" y="1603"/>
      <point x="-610" y="1611"/>
      <point x="-654" y="1611" type="curve" smooth="yes"/>
      <point x="-701" y="1611"/>
      <point x="-760" y="1602"/>
      <point x="-808" y="1579" type="curve"/>
      <point x="-783" y="1710" type="line"/>
      <point x="-722" y="1726"/>
      <point x="-663" y="1734"/>
      <point x="-604" y="1734" type="curve" smooth="yes"/>
      <point x="-464" y="1734"/>
      <point x="-394" y="1688"/>
      <point x="-394" y="1596" type="curve" smooth="yes"/>
      <point x="-394" y="1585"/>
      <point x="-395" y="1575"/>
      <point x="-397" y="1564" type="curve"/>
      <point x="-398" y="1563"/>
      <point x="-398" y="1561"/>
      <point x="-398" y="1559" type="curve" smooth="yes"/>
      <point x="-398" y="1557"/>
      <point x="-398" y="1555"/>
      <point x="-399" y="1554" type="curve"/>
      <point x="-407" y="1511"/>
      <point x="-429" y="1473"/>
      <point x="-460" y="1439" type="curve" smooth="yes"/>
      <point x="-491" y="1405"/>
      <point x="-528" y="1375"/>
      <point x="-567" y="1354" type="curve"/>
      <point x="-584" y="1266" type="line"/>
      <point x="-732" y="1266" type="line"/>
    </contour>
  </outline>
</glyph>
<glyph name="uni0310" format="1">
  <advance width="0"/>
  <unicode hex="0310"/>
  <note>
	uni0310
  </note>
  <outline>
    <contour>
      <point x="-87" y="1812" type="line"/>
      <point x="-131" y="1620"/>
      <point x="-253" y="1525"/>
      <point x="-438" y="1525" type="curve" smooth="yes"/>
      <point x="-617" y="1525"/>
      <point x="-716" y="1614"/>
      <point x="-716" y="1771" type="curve" smooth="yes"/>
      <point x="-716" y="1794"/>
      <point x="-716" y="1801"/>
      <point x="-713" y="1812" type="curve"/>
      <point x="-593" y="1812" type="line"/>
      <point x="-593" y="1795" type="line" smooth="yes"/>
      <point x="-593" y="1742"/>
      <point x="-571" y="1705"/>
      <point x="-528" y="1682" type="curve"/>
      <point x="-513" y="1756" type="line"/>
      <point x="-308" y="1756" type="line"/>
      <point x="-323" y="1680" type="line"/>
      <point x="-268" y="1703"/>
      <point x="-233" y="1745"/>
      <point x="-206" y="1812" type="curve"/>
    </contour>
  </outline>
</glyph>
<glyph name="uni031A" format="1">
  <advance width="0"/>
  <unicode hex="031A"/>
  <note>
	uni031A
  </note>
  <outline>
    <contour>
      <point x="-486" y="1768" type="line"/>
      <point x="-840" y="1768" type="line"/>
      <point x="-814" y="1904" type="line"/>
      <point x="-324" y="1904" type="line"/>
      <point x="-419" y="1414" type="line"/>
      <point x="-555" y="1414" type="line"/>
    </contour>
  </outline>
</glyph>
<glyph name="uni031B" format="1">
  <advance width="0"/>
  <unicode hex="031B"/>
  <note>
	uni031B
  </note>
  <outline>
    <contour>
      <point x="-703" y="764"/>
      <point x="-760" y="797"/>
      <point x="-829" y="872" type="curve"/>
      <point x="-806" y="991" type="line"/>
      <point x="-733" y="927"/>
      <point x="-684" y="903"/>
      <point x="-639" y="903" type="curve" smooth="yes"/>
      <point x="-583" y="903"/>
      <point x="-545" y="940"/>
      <point x="-530" y="1012" type="curve"/>
      <point x="-527" y="1031"/>
      <point x="-525" y="1048"/>
      <point x="-525" y="1063" type="curve" smooth="yes"/>
      <point x="-525" y="1086"/>
      <point x="-529" y="1111"/>
      <point x="-536" y="1137" type="curve"/>
      <point x="-403" y="1137" type="line"/>
      <point x="-402" y="1118"/>
      <point x="-401" y="1103"/>
      <point x="-401" y="1088" type="curve" smooth="yes"/>
      <point x="-401" y="1052"/>
      <point x="-405" y="1025"/>
      <point x="-409" y="1001" type="curve" smooth="yes"/>
      <point x="-437" y="849"/>
      <point x="-507" y="764"/>
      <point x="-628" y="764" type="curve" smooth="yes"/>
    </contour>
  </outline>
</glyph>
<glyph name="uni031D" format="1">
  <advance width="0"/>
  <unicode hex="031D"/>
  <note>
	uni031D
  </note>
  <outline>
    <contour>
      <point x="-842" y="-454" type="line"/>
      <point x="-665" y="-454" type="line"/>
      <point x="-631" y="-277" type="line"/>
      <point x="-495" y="-277" type="line"/>
      <point x="-529" y="-454" type="line"/>
      <point x="-352" y="-454" type="line"/>
      <point x="-379" y="-590" type="line"/>
      <point x="-869" y="-590" type="line"/>
    </contour>
  </outline>
</glyph>
<glyph name="uni031E" format="1">
  <advance width="0"/>
  <unicode hex="031E"/>
  <note>
	uni031E
  </note>
  <outline>
    <contour>
      <point x="-638" y="-413" type="line"/>
      <point x="-815" y="-413" type="line"/>
      <point x="-789" y="-277" type="line"/>
      <point x="-299" y="-277" type="line"/>
      <point x="-325" y="-413" type="line"/>
      <point x="-502" y="-413" type="line"/>
      <point x="-537" y="-590" type="line"/>
      <point x="-673" y="-590" type="line"/>
    </contour>
  </outline>
</glyph>
<glyph name="uni0322" format="1">
  <advance width="0"/>
  <unicode hex="0322"/>
  <note>
	uni0322
  </note>
  <outline>
    <contour>
      <point x="-1071" y="-426"/>
      <point x="-1166" y="-329"/>
      <point x="-1166" y="-146" type="curve" smooth="yes"/>
      <point x="-1166" y="-107"/>
      <point x="-1162" y="-67"/>
      <point x="-1153" y="-20" type="curve" smooth="yes"/>
      <point x="-1124" y="128" type="line"/>
      <point x="-939" y="128" type="line"/>
      <point x="-968" y="-20" type="line" smooth="yes"/>
      <point x="-975" y="-56"/>
      <point x="-978" y="-87"/>
      <point x="-978" y="-115" type="curve" smooth="yes"/>
      <point x="-978" y="-218"/>
      <point x="-931" y="-270"/>
      <point x="-837" y="-270" type="curve" smooth="yes"/>
      <point x="-652" y="-270" type="line"/>
      <point x="-683" y="-426" type="line"/>
      <point x="-888" y="-426" type="line" smooth="yes"/>
    </contour>
  </outline>
</glyph>
<glyph name="uni0325" format="1">
  <advance width="0"/>
  <unicode hex="0325"/>
  <note>
	uni0325
  </note>
  <outline>
    <contour>
      <point x="-918" y="-502"/>
      <point x="-961" y="-483"/>
      <point x="-991" y="-451" type="curve" smooth="yes"/>
      <point x="-1021" y="-419"/>
      <point x="-1039" y="-374"/>
      <point x="-1039" y="-322" type="curve" smooth="yes"/>
      <point x="-1039" y="-247"/>
      <point x="-1004" y="-182"/>
      <point x="-952" y="-136" type="curve" smooth="yes"/>
      <point x="-900" y="-90"/>
      <point x="-832" y="-63"/>
      <point x="-768" y="-63" type="curve" smooth="yes"/>
      <point x="-715" y="-63"/>
      <point x="-671" y="-82"/>
      <point x="-639" y="-114" type="curve" smooth="yes"/>
      <point x="-608" y="-146"/>
      <point x="-591" y="-191"/>
      <point x="-591" y="-243" type="curve" smooth="yes"/>
      <point x="-591" y="-318"/>
      <point x="-626" y="-381"/>
      <point x="-678" y="-428" type="curve" smooth="yes"/>
      <point x="-730" y="-475"/>
      <point x="-798" y="-502"/>
      <point x="-863" y="-502" type="curve" smooth="yes"/>
    </contour>
    <contour>
      <point x="-807" y="-404"/>
      <point x="-769" y="-388"/>
      <point x="-740" y="-363" type="curve" smooth="yes"/>
      <point x="-711" y="-338"/>
      <point x="-691" y="-302"/>
      <point x="-691" y="-261" type="curve" smooth="yes"/>
      <point x="-691" y="-204"/>
      <point x="-730" y="-161"/>
      <point x="-790" y="-161" type="curve" smooth="yes"/>
      <point x="-825" y="-161"/>
      <point x="-862" y="-175"/>
      <point x="-890" y="-201" type="curve" smooth="yes"/>
      <point x="-919" y="-227"/>
      <point x="-939" y="-264"/>
      <point x="-939" y="-305" type="curve" smooth="yes"/>
      <point x="-939" y="-362"/>
      <point x="-903" y="-404"/>
      <point x="-843" y="-404" type="curve" smooth="yes"/>
    </contour>
  </outline>
</glyph>
<glyph name="uni032A" format="1">
  <advance width="0"/>
  <unicode hex="032A"/>
  <note>
	uni032A
  </note>
  <outline>
    <contour>
      <point x="-860" y="-209" type="line"/>
      <point x="-309" y="-209" type="line"/>
      <point x="-373" y="-539" type="line"/>
      <point x="-510" y="-539" type="line"/>
      <point x="-472" y="-345" type="line"/>
      <point x="-749" y="-345" type="line"/>
      <point x="-787" y="-539" type="line"/>
      <point x="-924" y="-539" type="line"/>
    </contour>
  </outline>
</glyph>
<glyph name="uni032C" format="1">
  <advance width="0"/>
  <unicode hex="032C"/>
  <note>
	uni032C
  </note>
  <outline>
    <contour>
      <point x="-1101" y="-109" type="line"/>
      <point x="-962" y="-109" type="line"/>
      <point x="-830" y="-354" type="line"/>
      <point x="-601" y="-109" type="line"/>
      <point x="-462" y="-109" type="line"/>
      <point x="-781" y="-485" type="line"/>
      <point x="-928" y="-485" type="line"/>
    </contour>
  </outline>
</glyph>
<glyph name="uni0334" format="1">
  <advance width="0"/>
  <unicode hex="0334"/>
  <note>
	uni0334
  </note>
  <outline>
    <contour>
      <point x="-1139" y="666" type="line"/>
      <point x="-1079" y="706"/>
      <point x="-1025" y="734"/>
      <point x="-971" y="753" type="curve" smooth="yes"/>
      <point x="-917" y="772"/>
      <point x="-865" y="780"/>
      <point x="-808" y="780" type="curve" smooth="yes"/>
      <point x="-775" y="780"/>
      <point x="-743" y="777"/>
      <point x="-709" y="769" type="curve" smooth="yes"/>
      <point x="-675" y="761"/>
      <point x="-638" y="747"/>
      <point x="-593" y="727" type="curve"/>
      <point x="-589" y="725"/>
      <point x="-586" y="724"/>
      <point x="-584" y="723" type="curve"/>
      <point x="-583" y="722"/>
      <point x="-581" y="722"/>
      <point x="-580" y="721" type="curve" smooth="yes"/>
      <point x="-579" y="720"/>
      <point x="-578" y="719"/>
      <point x="-575" y="718" type="curve"/>
      <point x="-573" y="717"/>
      <point x="-569" y="715"/>
      <point x="-563" y="712" type="curve" smooth="yes"/>
      <point x="-488" y="675"/>
      <point x="-432" y="657"/>
      <point x="-367" y="657" type="curve" smooth="yes"/>
      <point x="-271" y="657"/>
      <point x="-176" y="696"/>
      <point x="-60" y="780" type="curve"/>
      <point x="-94" y="606" type="line"/>
      <point x="-204" y="530"/>
      <point x="-309" y="492"/>
      <point x="-408" y="492" type="curve" smooth="yes"/>
      <point x="-476" y="492"/>
      <point x="-537" y="508"/>
      <point x="-606" y="543" type="curve"/>
      <point x="-609" y="544"/>
      <point x="-611" y="545"/>
      <point x="-612" y="546" type="curve" smooth="yes"/>
      <point x="-613" y="547"/>
      <point x="-615" y="547"/>
      <point x="-616" y="548" type="curve" smooth="yes"/>
      <point x="-617" y="549"/>
      <point x="-619" y="550"/>
      <point x="-622" y="551" type="curve" smooth="yes"/>
      <point x="-625" y="552"/>
      <point x="-630" y="554"/>
      <point x="-636" y="557" type="curve"/>
      <point x="-684" y="578"/>
      <point x="-720" y="592"/>
      <point x="-752" y="601" type="curve" smooth="yes"/>
      <point x="-785" y="610"/>
      <point x="-815" y="614"/>
      <point x="-851" y="614" type="curve" smooth="yes"/>
      <point x="-959" y="614"/>
      <point x="-1054" y="580"/>
      <point x="-1173" y="492" type="curve"/>
    </contour>
  </outline>
</glyph>
<glyph name="uni0339" format="1">
  <advance width="0"/>
  <unicode hex="0339"/>
  <note>
	uni0339
  </note>
  <outline>
    <contour>
      <point x="-950" y="-404" type="line"/>
      <point x="-917" y="-404"/>
      <point x="-879" y="-388"/>
      <point x="-850" y="-363" type="curve" smooth="yes"/>
      <point x="-821" y="-338"/>
      <point x="-801" y="-302"/>
      <point x="-801" y="-261" type="curve" smooth="yes"/>
      <point x="-801" y="-209"/>
      <point x="-834" y="-161"/>
      <point x="-902" y="-161" type="curve"/>
      <point x="-883" y="-63" type="line"/>
      <point x="-822" y="-63"/>
      <point x="-775" y="-85"/>
      <point x="-745" y="-118" type="curve" smooth="yes"/>
      <point x="-715" y="-151"/>
      <point x="-701" y="-196"/>
      <point x="-701" y="-243" type="curve" smooth="yes"/>
      <point x="-701" y="-318"/>
      <point x="-737" y="-381"/>
      <point x="-788" y="-428" type="curve" smooth="yes"/>
      <point x="-840" y="-475"/>
      <point x="-908" y="-502"/>
      <point x="-969" y="-502" type="curve"/>
    </contour>
  </outline>
</glyph>
<glyph name="uni033A" format="1">
  <advance width="0"/>
  <unicode hex="033A"/>
  <note>
	uni033A
  </note>
  <outline>
    <contour>
      <point x="-860" y="-54" type="line"/>
      <point x="-723" y="-54" type="line"/>
      <point x="-761" y="-248" type="line"/>
      <point x="-484" y="-248" type="line"/>
      <point x="-446" y="-54" type="line"/>
      <point x="-309" y="-54" type="line"/>
      <point x="-373" y="-384" type="line"/>
      <point x="-924" y="-384" type="line"/>
    </contour>
  </outline>
</glyph>
